<ttFont>
    <TTGlyph name=".notdef" xMin="50" yMin="0" xMax="700" yMax="700">
      <contour>
        <pt x="50" y="700" on="1"/>
        <pt x="700" y="700" on="1"/>
        <pt x="700" y="0" on="1"/>
        <pt x="50" y="0" on="1"/>
      </contour>
      <contour>
        <pt x="570" y="650" on="1"/>
        <pt x="375" y="433" on="1"/>
        <pt x="180" y="650" on="1"/>
        <pt x="130" y="600" on="1"/>
        <pt x="327" y="380" on="1"/>
        <pt x="130" y="160" on="1"/>
        <pt x="180" y="110" on="1"/>
        <pt x="375" y="327" on="1"/>
        <pt x="570" y="110" on="1"/>
        <pt x="620" y="160" on="1"/>
        <pt x="422" y="380" on="1"/>
        <pt x="620" y="600" on="1"/>
      </contour>
      <contour>
        <pt x="162" y="68" on="1"/>
        <pt x="127" y="68" on="1"/>
        <pt x="127" y="61" on="1"/>
        <pt x="140" y="61" on="1"/>
        <pt x="140" y="26" on="1"/>
        <pt x="149" y="26" on="1"/>
        <pt x="149" y="61" on="1"/>
        <pt x="162" y="61" on="1"/>
      </contour>
      <contour>
        <pt x="271" y="58" on="1"/>
        <pt x="269" y="58" on="1"/>
        <pt x="268" y="58" on="0"/>
        <pt x="267" y="59" on="1"/>
        <pt x="263" y="59" on="0"/>
        <pt x="258" y="54" on="1"/>
        <pt x="258" y="58" on="1"/>
        <pt x="251" y="58" on="1"/>
        <pt x="251" y="26" on="1"/>
        <pt x="259" y="26" on="1"/>
        <pt x="259" y="46" on="1"/>
        <pt x="262" y="51" on="0"/>
        <pt x="266" y="51" on="1"/>
        <pt x="268" y="51" on="0"/>
        <pt x="270" y="50" on="1"/>
      </contour>
      <contour>
        <pt x="276" y="65" on="1"/>
        <pt x="276" y="60" on="0"/>
        <pt x="280" y="60" on="1"/>
        <pt x="285" y="60" on="0"/>
        <pt x="285" y="64" on="1"/>
        <pt x="285" y="69" on="0"/>
        <pt x="280" y="69" on="1"/>
        <pt x="276" y="69" on="0"/>
      </contour>
      <contour>
        <pt x="276" y="26" on="1"/>
        <pt x="285" y="26" on="1"/>
        <pt x="285" y="58" on="1"/>
        <pt x="276" y="58" on="1"/>
      </contour>
      <contour>
        <pt x="291" y="51" on="1"/>
        <pt x="296" y="51" on="1"/>
        <pt x="296" y="26" on="1"/>
        <pt x="304" y="26" on="1"/>
        <pt x="304" y="51" on="1"/>
        <pt x="312" y="51" on="1"/>
        <pt x="312" y="58" on="1"/>
        <pt x="304" y="58" on="1"/>
        <pt x="304" y="60" on="0"/>
        <pt x="305" y="61" on="1"/>
        <pt x="306" y="62" on="0"/>
        <pt x="308" y="62" on="1"/>
        <pt x="311" y="62" on="1"/>
        <pt x="314" y="62" on="1"/>
        <pt x="315" y="68" on="1"/>
        <pt x="315" y="69" on="0"/>
        <pt x="311" y="69" on="1"/>
        <pt x="306" y="69" on="1"/>
        <pt x="302" y="69" on="1"/>
        <pt x="301" y="69" on="0"/>
        <pt x="297" y="66" on="0"/>
        <pt x="297" y="65" on="1"/>
        <pt x="296" y="63" on="0"/>
        <pt x="296" y="60" on="1"/>
        <pt x="296" y="58" on="1"/>
        <pt x="291" y="58" on="1"/>
      </contour>
      <contour>
        <pt x="331" y="45" on="1"/>
        <pt x="331" y="20" on="0"/>
        <pt x="354" y="20" on="1"/>
        <pt x="365" y="20" on="0"/>
        <pt x="378" y="32" on="0"/>
        <pt x="378" y="45" on="1"/>
        <pt x="378" y="68" on="0"/>
        <pt x="354" y="68" on="1"/>
        <pt x="344" y="68" on="0"/>
        <pt x="331" y="56" on="0"/>
      </contour>
      <contour>
        <pt x="338" y="45" on="1"/>
        <pt x="338" y="62" on="0"/>
        <pt x="354" y="62" on="1"/>
        <pt x="371" y="62" on="0"/>
        <pt x="371" y="45" on="1"/>
        <pt x="371" y="27" on="0"/>
        <pt x="354" y="27" on="1"/>
        <pt x="338" y="27" on="0"/>
      </contour>
      <contour>
        <pt x="361" y="40" on="1"/>
        <pt x="359" y="39" on="0"/>
        <pt x="357" y="39" on="1"/>
        <pt x="352" y="39" on="0"/>
        <pt x="352" y="45" on="1"/>
        <pt x="352" y="49" on="0"/>
        <pt x="357" y="49" on="1"/>
        <pt x="360" y="49" on="1"/>
        <pt x="363" y="54" on="1"/>
        <pt x="359" y="56" on="0"/>
        <pt x="354" y="56" on="1"/>
        <pt x="344" y="56" on="0"/>
        <pt x="344" y="45" on="1"/>
        <pt x="344" y="32" on="0"/>
        <pt x="354" y="32" on="1"/>
        <pt x="359" y="32" on="0"/>
        <pt x="363" y="34" on="1"/>
      </contour>
      <contour>
        <pt x="402" y="27" on="1"/>
        <pt x="411" y="27" on="1"/>
        <pt x="411" y="41" on="1"/>
        <pt x="416" y="41" on="1"/>
        <pt x="423" y="41" on="0"/>
        <pt x="434" y="47" on="0"/>
        <pt x="434" y="55" on="1"/>
        <pt x="434" y="65" on="0"/>
        <pt x="422" y="69" on="0"/>
        <pt x="415" y="69" on="1"/>
        <pt x="402" y="69" on="1"/>
      </contour>
      <contour>
        <pt x="416" y="62" on="1"/>
        <pt x="425" y="62" on="0"/>
        <pt x="425" y="56" on="1"/>
        <pt x="425" y="50" on="0"/>
        <pt x="420" y="49" on="0"/>
        <pt x="415" y="49" on="1"/>
        <pt x="411" y="49" on="1"/>
        <pt x="411" y="62" on="1"/>
      </contour>
      <contour>
        <pt x="440" y="51" on="1"/>
        <pt x="443" y="52" on="0"/>
        <pt x="448" y="53" on="0"/>
        <pt x="451" y="53" on="1"/>
        <pt x="456" y="53" on="0"/>
        <pt x="456" y="48" on="1"/>
        <pt x="456" y="46" on="1"/>
        <pt x="455" y="46" on="0"/>
        <pt x="453" y="47" on="0"/>
        <pt x="451" y="47" on="1"/>
        <pt x="436" y="47" on="0"/>
        <pt x="436" y="35" on="1"/>
        <pt x="436" y="26" on="0"/>
        <pt x="446" y="26" on="1"/>
        <pt x="453" y="26" on="0"/>
        <pt x="456" y="32" on="1"/>
        <pt x="459" y="27" on="1"/>
        <pt x="466" y="27" on="1"/>
        <pt x="465" y="28" on="0"/>
        <pt x="465" y="35" on="1"/>
        <pt x="465" y="48" on="1"/>
        <pt x="465" y="60" on="0"/>
        <pt x="453" y="60" on="1"/>
        <pt x="448" y="60" on="0"/>
        <pt x="440" y="57" on="0"/>
        <pt x="438" y="56" on="1"/>
      </contour>
      <contour>
        <pt x="450" y="33" on="1"/>
        <pt x="445" y="33" on="0"/>
        <pt x="445" y="38" on="1"/>
        <pt x="445" y="42" on="0"/>
        <pt x="451" y="42" on="1"/>
        <pt x="453" y="42" on="0"/>
        <pt x="455" y="41" on="0"/>
        <pt x="456" y="41" on="1"/>
        <pt x="456" y="38" on="1"/>
        <pt x="455" y="33" on="0"/>
      </contour>
      <contour>
        <pt x="494" y="59" on="1"/>
        <pt x="492" y="60" on="0"/>
        <pt x="489" y="60" on="1"/>
        <pt x="484" y="60" on="0"/>
        <pt x="482" y="54" on="1"/>
        <pt x="481" y="54" on="1"/>
        <pt x="480" y="59" on="1"/>
        <pt x="473" y="59" on="1"/>
        <pt x="473" y="27" on="1"/>
        <pt x="482" y="27" on="1"/>
        <pt x="482" y="47" on="1"/>
        <pt x="482" y="52" on="0"/>
        <pt x="489" y="52" on="1"/>
        <pt x="490" y="52" on="0"/>
        <pt x="490" y="51" on="0"/>
        <pt x="491" y="51" on="1"/>
        <pt x="492" y="51" on="1"/>
      </contour>
      <contour>
        <pt x="499" y="51" on="1"/>
        <pt x="509" y="53" on="0"/>
        <pt x="510" y="53" on="1"/>
        <pt x="516" y="53" on="0"/>
        <pt x="516" y="48" on="1"/>
        <pt x="516" y="46" on="1"/>
        <pt x="514" y="46" on="0"/>
        <pt x="512" y="47" on="0"/>
        <pt x="510" y="47" on="1"/>
        <pt x="495" y="47" on="0"/>
        <pt x="495" y="35" on="1"/>
        <pt x="495" y="26" on="0"/>
        <pt x="505" y="26" on="1"/>
        <pt x="513" y="26" on="0"/>
        <pt x="516" y="32" on="1"/>
        <pt x="517" y="32" on="1"/>
        <pt x="518" y="27" on="1"/>
        <pt x="525" y="27" on="1"/>
        <pt x="524" y="28" on="0"/>
        <pt x="524" y="35" on="1"/>
        <pt x="524" y="48" on="1"/>
        <pt x="524" y="60" on="0"/>
        <pt x="512" y="60" on="1"/>
        <pt x="507" y="60" on="0"/>
        <pt x="501" y="57" on="0"/>
        <pt x="498" y="56" on="1"/>
      </contour>
      <contour>
        <pt x="509" y="33" on="1"/>
        <pt x="504" y="33" on="0"/>
        <pt x="504" y="38" on="1"/>
        <pt x="504" y="42" on="0"/>
        <pt x="510" y="42" on="1"/>
        <pt x="512" y="42" on="0"/>
        <pt x="514" y="41" on="0"/>
        <pt x="516" y="41" on="1"/>
        <pt x="516" y="38" on="1"/>
        <pt x="513" y="33" on="0"/>
      </contour>
      <contour>
        <pt x="557" y="69" on="1"/>
        <pt x="521" y="69" on="1"/>
        <pt x="521" y="62" on="1"/>
        <pt x="535" y="62" on="1"/>
        <pt x="535" y="27" on="1"/>
        <pt x="543" y="27" on="1"/>
        <pt x="543" y="62" on="1"/>
        <pt x="557" y="62" on="1"/>
      </contour>
      <contour>
        <pt x="567" y="59" on="1"/>
        <pt x="557" y="59" on="1"/>
        <pt x="571" y="27" on="1"/>
        <pt x="569" y="22" on="0"/>
        <pt x="566" y="22" on="1"/>
        <pt x="564" y="23" on="1"/>
        <pt x="562" y="16" on="1"/>
        <pt x="563" y="15" on="0"/>
        <pt x="568" y="15" on="1"/>
        <pt x="575" y="15" on="0"/>
        <pt x="579" y="30" on="1"/>
        <pt x="591" y="59" on="1"/>
        <pt x="582" y="59" on="1"/>
        <pt x="576" y="41" on="1"/>
        <pt x="576" y="35" on="1"/>
        <pt x="575" y="35" on="1"/>
        <pt x="574" y="41" on="1"/>
      </contour>
      <contour>
        <pt x="595" y="15" on="1"/>
        <pt x="604" y="15" on="1"/>
        <pt x="604" y="28" on="1"/>
        <pt x="606" y="26" on="0"/>
        <pt x="610" y="26" on="1"/>
        <pt x="626" y="26" on="0"/>
        <pt x="626" y="44" on="1"/>
        <pt x="626" y="60" on="0"/>
        <pt x="613" y="60" on="1"/>
        <pt x="607" y="60" on="0"/>
        <pt x="603" y="55" on="1"/>
        <pt x="601" y="55" on="1"/>
        <pt x="600" y="59" on="1"/>
        <pt x="595" y="59" on="1"/>
      </contour>
      <contour>
        <pt x="611" y="53" on="1"/>
        <pt x="617" y="53" on="0"/>
        <pt x="617" y="44" on="1"/>
        <pt x="617" y="33" on="0"/>
        <pt x="608" y="33" on="1"/>
        <pt x="606" y="33" on="0"/>
        <pt x="604" y="35" on="1"/>
        <pt x="604" y="47" on="1"/>
        <pt x="604" y="53" on="0"/>
      </contour>
      <contour>
        <pt x="656" y="35" on="1"/>
        <pt x="654" y="33" on="0"/>
        <pt x="648" y="33" on="1"/>
        <pt x="640" y="33" on="0"/>
        <pt x="640" y="40" on="1"/>
        <pt x="661" y="40" on="1"/>
        <pt x="661" y="47" on="1"/>
        <pt x="661" y="60" on="0"/>
        <pt x="647" y="60" on="1"/>
        <pt x="631" y="60" on="0"/>
        <pt x="631" y="42" on="1"/>
        <pt x="631" y="26" on="0"/>
        <pt x="647" y="26" on="1"/>
        <pt x="655" y="26" on="0"/>
        <pt x="659" y="30" on="1"/>
      </contour>
      <contour>
        <pt x="647" y="53" on="1"/>
        <pt x="654" y="53" on="0"/>
        <pt x="653" y="46" on="1"/>
        <pt x="640" y="46" on="1"/>
        <pt x="640" y="53" on="0"/>
      </contour>
      <contour>
        <pt x="92" y="27" on="1"/>
        <pt x="101" y="27" on="1"/>
        <pt x="101" y="41" on="1"/>
        <pt x="106" y="41" on="1"/>
        <pt x="113" y="41" on="0"/>
        <pt x="124" y="47" on="0"/>
        <pt x="124" y="55" on="1"/>
        <pt x="124" y="65" on="0"/>
        <pt x="112" y="69" on="0"/>
        <pt x="105" y="69" on="1"/>
        <pt x="92" y="69" on="1"/>
      </contour>
      <contour>
        <pt x="106" y="62" on="1"/>
        <pt x="115" y="62" on="0"/>
        <pt x="115" y="56" on="1"/>
        <pt x="115" y="50" on="0"/>
        <pt x="110" y="49" on="0"/>
        <pt x="105" y="49" on="1"/>
        <pt x="101" y="49" on="1"/>
        <pt x="101" y="62" on="1"/>
      </contour>
      <contour>
        <pt x="200" y="38" on="1"/>
        <pt x="200" y="33" on="0"/>
        <pt x="192" y="33" on="1"/>
        <pt x="189" y="33" on="0"/>
        <pt x="185" y="34" on="0"/>
        <pt x="181" y="36" on="1"/>
        <pt x="178" y="27" on="1"/>
        <pt x="182" y="26" on="0"/>
        <pt x="188" y="25" on="0"/>
        <pt x="193" y="25" on="1"/>
        <pt x="209" y="25" on="0"/>
        <pt x="209" y="39" on="1"/>
        <pt x="209" y="44" on="0"/>
        <pt x="202" y="49" on="0"/>
        <pt x="195" y="52" on="0"/>
        <pt x="188" y="55" on="0"/>
        <pt x="188" y="58" on="1"/>
        <pt x="188" y="61" on="0"/>
        <pt x="195" y="61" on="1"/>
        <pt x="198" y="61" on="0"/>
        <pt x="203" y="60" on="0"/>
        <pt x="206" y="59" on="1"/>
        <pt x="208" y="67" on="1"/>
        <pt x="204" y="68" on="0"/>
        <pt x="198" y="69" on="0"/>
        <pt x="195" y="69" on="1"/>
        <pt x="179" y="69" on="0"/>
        <pt x="179" y="56" on="1"/>
        <pt x="179" y="51" on="0"/>
        <pt x="186" y="46" on="0"/>
        <pt x="193" y="43" on="0"/>
        <pt x="200" y="40" on="0"/>
      </contour>
      <contour>
        <pt x="239" y="34" on="1"/>
        <pt x="237" y="32" on="0"/>
        <pt x="231" y="32" on="1"/>
        <pt x="223" y="32" on="0"/>
        <pt x="223" y="39" on="1"/>
        <pt x="244" y="39" on="1"/>
        <pt x="244" y="46" on="1"/>
        <pt x="244" y="59" on="0"/>
        <pt x="230" y="59" on="1"/>
        <pt x="214" y="59" on="0"/>
        <pt x="214" y="41" on="1"/>
        <pt x="214" y="25" on="0"/>
        <pt x="230" y="25" on="1"/>
        <pt x="238" y="25" on="0"/>
        <pt x="242" y="29" on="1"/>
      </contour>
      <contour>
        <pt x="230" y="52" on="1"/>
        <pt x="237" y="52" on="0"/>
        <pt x="236" y="45" on="1"/>
        <pt x="223" y="45" on="1"/>
        <pt x="223" y="52" on="0"/>
      </contour>
    </TTGlyph>
    <TTGlyph name="A" xMin="-44" yMin="0" xMax="692" yMax="712">
      <contour>
        <pt x="205" y="0" on="1"/>
        <pt x="-44" y="0" on="1"/>
        <pt x="-37" y="38" on="1"/>
        <pt x="-19" y="48" on="0"/>
        <pt x="21" y="63" on="0"/>
        <pt x="41" y="67" on="1"/>
        <pt x="437" y="712" on="1"/>
        <pt x="510" y="712" on="1"/>
        <pt x="623" y="67" on="1"/>
        <pt x="642" y="63" on="0"/>
        <pt x="679" y="47" on="0"/>
        <pt x="692" y="38" on="1"/>
        <pt x="684" y="0" on="1"/>
        <pt x="376" y="0" on="1"/>
        <pt x="383" y="38" on="1"/>
        <pt x="404" y="48" on="0"/>
        <pt x="451" y="63" on="0"/>
        <pt x="472" y="67" on="1"/>
        <pt x="448" y="226" on="1"/>
        <pt x="227" y="226" on="1"/>
        <pt x="132" y="67" on="1"/>
        <pt x="153" y="64" on="0"/>
        <pt x="195" y="49" on="0"/>
        <pt x="212" y="38" on="1"/>
      </contour>
      <contour>
        <pt x="261" y="291" on="1"/>
        <pt x="440" y="291" on="1"/>
        <pt x="412" y="482" on="1"/>
        <pt x="412" y="568" on="1"/>
        <pt x="410" y="568" on="1"/>
        <pt x="372" y="480" on="1"/>
      </contour>
    </TTGlyph>
    <TTGlyph name="AE" xMin="-44" yMin="0" xMax="1001" yMax="700">
      <contour>
        <pt x="1001" y="700" on="1"/>
        <pt x="991" y="655" on="0"/>
        <pt x="960" y="559" on="0"/>
        <pt x="943" y="517" on="1"/>
        <pt x="901" y="517" on="1"/>
        <pt x="880" y="635" on="1"/>
        <pt x="693" y="635" on="1"/>
        <pt x="641" y="390" on="1"/>
        <pt x="764" y="390" on="1"/>
        <pt x="824" y="467" on="1"/>
        <pt x="855" y="467" on="1"/>
        <pt x="853" y="443" on="0"/>
        <pt x="844" y="386" on="0"/>
        <pt x="832" y="328" on="0"/>
        <pt x="817" y="271" on="0"/>
        <pt x="809" y="246" on="1"/>
        <pt x="777" y="246" on="1"/>
        <pt x="750" y="325" on="1"/>
        <pt x="627" y="325" on="1"/>
        <pt x="572" y="65" on="1"/>
        <pt x="767" y="65" on="1"/>
        <pt x="847" y="192" on="1"/>
        <pt x="889" y="192" on="1"/>
        <pt x="889" y="173" on="0"/>
        <pt x="886" y="125" on="0"/>
        <pt x="881" y="74" on="0"/>
        <pt x="873" y="22" on="0"/>
        <pt x="868" y="0" on="1"/>
        <pt x="332" y="0" on="1"/>
        <pt x="339" y="38" on="1"/>
        <pt x="357" y="46" on="0"/>
        <pt x="400" y="62" on="0"/>
        <pt x="423" y="67" on="1"/>
        <pt x="461" y="244" on="1"/>
        <pt x="279" y="244" on="1"/>
        <pt x="141" y="67" on="1"/>
        <pt x="179" y="58" on="0"/>
        <pt x="211" y="38" on="1"/>
        <pt x="204" y="0" on="1"/>
        <pt x="-44" y="0" on="1"/>
        <pt x="-37" y="38" on="1"/>
        <pt x="-19" y="48" on="0"/>
        <pt x="21" y="63" on="0"/>
        <pt x="40" y="67" on="1"/>
        <pt x="508" y="638" on="1"/>
        <pt x="494" y="643" on="0"/>
        <pt x="466" y="654" on="0"/>
        <pt x="455" y="662" on="1"/>
        <pt x="463" y="700" on="1"/>
      </contour>
      <contour>
        <pt x="329" y="309" on="1"/>
        <pt x="476" y="309" on="1"/>
        <pt x="540" y="594" on="1"/>
        <pt x="538" y="594" on="1"/>
        <pt x="484" y="504" on="1"/>
      </contour>
    </TTGlyph>
    <TTGlyph name="Aacute" xMin="-44" yMin="0" xMax="708" yMax="899">
      <component glyphName="A" x="0" y="0" flags="0x204"/>
      <component glyphName="uniF6C9" x="78" y="0" flags="0x4"/>
    </TTGlyph>
    <TTGlyph name="Abreve" xMin="-44" yMin="0" xMax="692" yMax="902">
      <component glyphName="A" x="0" y="0" flags="0x204"/>
      <component glyphName="uniF406" x="40" y="0" flags="0x4"/>
    </TTGlyph>
    <TTGlyph name="Acircumflex" xMin="-44" yMin="0" xMax="692" yMax="895">
      <component glyphName="A" x="0" y="0" flags="0x204"/>
      <component glyphName="uniF408" x="38" y="0" flags="0x4"/>
    </TTGlyph>
    <TTGlyph name="Adieresis" xMin="-44" yMin="0" xMax="692" yMax="857">
      <component glyphName="A" x="0" y="0" flags="0x204"/>
      <component glyphName="uniF6CB" x="62" y="0" flags="0x4"/>
    </TTGlyph>
    <TTGlyph name="Agrave" xMin="-44" yMin="0" xMax="692" yMax="901">
      <component glyphName="A" x="0" y="0" flags="0x204"/>
      <component glyphName="uniF6CE" x="74" y="0" flags="0x4"/>
    </TTGlyph>
    <TTGlyph name="Amacron" xMin="-44" yMin="0" xMax="692" yMax="849">
      <component glyphName="A" x="0" y="0" flags="0x204"/>
      <component glyphName="uniF6D0" x="43" y="0" flags="0x4"/>
    </TTGlyph>
    <TTGlyph name="Aogonek" xMin="-44" yMin="-255" xMax="692" yMax="712">
      <contour>
        <pt x="205" y="0" on="1"/>
        <pt x="-44" y="0" on="1"/>
        <pt x="-37" y="38" on="1"/>
        <pt x="-19" y="48" on="0"/>
        <pt x="21" y="63" on="0"/>
        <pt x="41" y="67" on="1"/>
        <pt x="437" y="712" on="1"/>
        <pt x="510" y="712" on="1"/>
        <pt x="623" y="67" on="1"/>
        <pt x="642" y="63" on="0"/>
        <pt x="679" y="47" on="0"/>
        <pt x="692" y="38" on="1"/>
        <pt x="688" y="18" on="1"/>
        <pt x="684" y="0" on="1"/>
        <pt x="651" y="0" on="1"/>
        <pt x="608" y="-27" on="0"/>
        <pt x="554" y="-103" on="0"/>
        <pt x="554" y="-135" on="1"/>
        <pt x="554" y="-161" on="0"/>
        <pt x="585" y="-189" on="0"/>
        <pt x="608" y="-189" on="1"/>
        <pt x="620" y="-189" on="0"/>
        <pt x="642" y="-187" on="0"/>
        <pt x="654" y="-184" on="1"/>
        <pt x="654" y="-227" on="1"/>
        <pt x="640" y="-238" on="0"/>
        <pt x="585" y="-255" on="0"/>
        <pt x="553" y="-255" on="1"/>
        <pt x="492" y="-255" on="0"/>
        <pt x="427" y="-198" on="0"/>
        <pt x="427" y="-157" on="1"/>
        <pt x="427" y="-103" on="0"/>
        <pt x="509" y="-27" on="0"/>
        <pt x="577" y="0" on="1"/>
        <pt x="376" y="0" on="1"/>
        <pt x="383" y="38" on="1"/>
        <pt x="404" y="48" on="0"/>
        <pt x="451" y="63" on="0"/>
        <pt x="472" y="67" on="1"/>
        <pt x="448" y="226" on="1"/>
        <pt x="227" y="226" on="1"/>
        <pt x="132" y="67" on="1"/>
        <pt x="153" y="64" on="0"/>
        <pt x="195" y="49" on="0"/>
        <pt x="212" y="38" on="1"/>
      </contour>
      <contour>
        <pt x="261" y="291" on="1"/>
        <pt x="440" y="291" on="1"/>
        <pt x="412" y="482" on="1"/>
        <pt x="412" y="568" on="1"/>
        <pt x="410" y="568" on="1"/>
        <pt x="372" y="480" on="1"/>
      </contour>
    </TTGlyph>
    <TTGlyph name="Aring" xMin="-44" yMin="0" xMax="692" yMax="878">
      <contour>
        <pt x="356" y="777" on="1"/>
        <pt x="356" y="798" on="0"/>
        <pt x="378" y="835" on="0"/>
        <pt x="418" y="862" on="0"/>
        <pt x="475" y="878" on="0"/>
        <pt x="510" y="878" on="1"/>
        <pt x="558" y="878" on="0"/>
        <pt x="616" y="844" on="0"/>
        <pt x="616" y="806" on="1"/>
        <pt x="616" y="768" on="0"/>
        <pt x="555" y="716" on="0"/>
        <pt x="510" y="709" on="1"/>
        <pt x="623" y="67" on="1"/>
        <pt x="642" y="63" on="0"/>
        <pt x="679" y="47" on="0"/>
        <pt x="692" y="38" on="1"/>
        <pt x="684" y="0" on="1"/>
        <pt x="376" y="0" on="1"/>
        <pt x="383" y="38" on="1"/>
        <pt x="404" y="48" on="0"/>
        <pt x="451" y="63" on="0"/>
        <pt x="472" y="67" on="1"/>
        <pt x="448" y="226" on="1"/>
        <pt x="227" y="226" on="1"/>
        <pt x="132" y="67" on="1"/>
        <pt x="153" y="64" on="0"/>
        <pt x="195" y="49" on="0"/>
        <pt x="212" y="38" on="1"/>
        <pt x="205" y="0" on="1"/>
        <pt x="-44" y="0" on="1"/>
        <pt x="-37" y="38" on="1"/>
        <pt x="-19" y="48" on="0"/>
        <pt x="21" y="63" on="0"/>
        <pt x="41" y="67" on="1"/>
        <pt x="434" y="706" on="1"/>
        <pt x="356" y="715" on="0"/>
      </contour>
      <contour>
        <pt x="261" y="291" on="1"/>
        <pt x="440" y="291" on="1"/>
        <pt x="412" y="482" on="1"/>
        <pt x="412" y="568" on="1"/>
        <pt x="410" y="568" on="1"/>
        <pt x="372" y="480" on="1"/>
      </contour>
      <contour>
        <pt x="439" y="785" on="1"/>
        <pt x="439" y="769" on="0"/>
        <pt x="464" y="754" on="0"/>
        <pt x="479" y="754" on="1"/>
        <pt x="503" y="754" on="0"/>
        <pt x="533" y="776" on="0"/>
        <pt x="533" y="792" on="1"/>
        <pt x="533" y="812" on="0"/>
        <pt x="511" y="828" on="0"/>
        <pt x="492" y="828" on="1"/>
        <pt x="469" y="828" on="0"/>
        <pt x="439" y="805" on="0"/>
      </contour>
    </TTGlyph>
    <TTGlyph name="Atilde" xMin="-44" yMin="0" xMax="692" yMax="876">
      <component glyphName="A" x="0" y="0" flags="0x204"/>
      <component glyphName="uniF40D" x="-23" y="0" flags="0x4"/>
    </TTGlyph>
    <TTGlyph name="B" xMin="-24" yMin="-7" xMax="653" yMax="705">
      <contour>
        <pt x="-24" y="-1" on="1"/>
        <pt x="-17" y="37" on="1"/>
        <pt x="5" y="48" on="0"/>
        <pt x="51" y="64" on="0"/>
        <pt x="72" y="66" on="1"/>
        <pt x="192" y="632" on="1"/>
        <pt x="172" y="636" on="0"/>
        <pt x="132" y="651" on="0"/>
        <pt x="116" y="661" on="1"/>
        <pt x="124" y="699" on="1"/>
        <pt x="283" y="699" on="1"/>
        <pt x="321" y="699" on="0"/>
        <pt x="392" y="705" on="0"/>
        <pt x="436" y="705" on="1"/>
        <pt x="484" y="705" on="0"/>
        <pt x="564" y="690" on="0"/>
        <pt x="621" y="659" on="0"/>
        <pt x="653" y="608" on="0"/>
        <pt x="653" y="572" on="1"/>
        <pt x="653" y="530" on="0"/>
        <pt x="624" y="464" on="0"/>
        <pt x="573" y="414" on="0"/>
        <pt x="503" y="382" on="0"/>
        <pt x="462" y="374" on="1"/>
        <pt x="462" y="370" on="1"/>
        <pt x="489" y="368" on="0"/>
        <pt x="543" y="352" on="0"/>
        <pt x="586" y="320" on="0"/>
        <pt x="613" y="271" on="0"/>
        <pt x="613" y="237" on="1"/>
        <pt x="613" y="183" on="0"/>
        <pt x="570" y="94" on="0"/>
        <pt x="486" y="29" on="0"/>
        <pt x="360" y="-7" on="0"/>
        <pt x="277" y="-7" on="1"/>
        <pt x="256" y="-7" on="0"/>
        <pt x="207" y="-5" on="0"/>
        <pt x="157" y="-3" on="0"/>
        <pt x="111" y="-1" on="0"/>
        <pt x="95" y="-1" on="1"/>
      </contour>
      <contour>
        <pt x="290" y="58" on="1"/>
        <pt x="327" y="58" on="0"/>
        <pt x="389" y="84" on="0"/>
        <pt x="433" y="131" on="0"/>
        <pt x="458" y="194" on="0"/>
        <pt x="458" y="231" on="1"/>
        <pt x="458" y="286" on="0"/>
        <pt x="387" y="322" on="0"/>
        <pt x="323" y="322" on="1"/>
        <pt x="270" y="322" on="1"/>
        <pt x="216" y="65" on="1"/>
        <pt x="229" y="62" on="0"/>
        <pt x="259" y="58" on="0"/>
      </contour>
      <contour>
        <pt x="316" y="387" on="1"/>
        <pt x="333" y="387" on="0"/>
        <pt x="368" y="390" on="0"/>
        <pt x="383" y="392" on="1"/>
        <pt x="443" y="415" on="0"/>
        <pt x="503" y="501" on="0"/>
        <pt x="503" y="558" on="1"/>
        <pt x="503" y="597" on="0"/>
        <pt x="457" y="640" on="0"/>
        <pt x="405" y="640" on="1"/>
        <pt x="384" y="640" on="0"/>
        <pt x="351" y="638" on="0"/>
        <pt x="337" y="636" on="1"/>
        <pt x="284" y="387" on="1"/>
      </contour>
    </TTGlyph>
    <TTGlyph name="C" xMin="59" yMin="-12" xMax="695" yMax="712">
      <contour>
        <pt x="561" y="210" on="1"/>
        <pt x="603" y="210" on="1"/>
        <pt x="603" y="194" on="0"/>
        <pt x="601" y="149" on="0"/>
        <pt x="595" y="98" on="0"/>
        <pt x="587" y="48" on="0"/>
        <pt x="582" y="28" on="1"/>
        <pt x="561" y="17" on="0"/>
        <pt x="510" y="2" on="0"/>
        <pt x="458" y="-8" on="0"/>
        <pt x="410" y="-12" on="0"/>
        <pt x="392" y="-12" on="1"/>
        <pt x="300" y="-12" on="0"/>
        <pt x="174" y="38" on="0"/>
        <pt x="94" y="118" on="0"/>
        <pt x="59" y="218" on="0"/>
        <pt x="59" y="269" on="1"/>
        <pt x="59" y="368" on="0"/>
        <pt x="117" y="531" on="0"/>
        <pt x="228" y="648" on="0"/>
        <pt x="389" y="712" on="0"/>
        <pt x="491" y="712" on="1"/>
        <pt x="557" y="712" on="0"/>
        <pt x="662" y="693" on="0"/>
        <pt x="695" y="677" on="1"/>
        <pt x="692" y="661" on="0"/>
        <pt x="678" y="611" on="0"/>
        <pt x="660" y="556" on="0"/>
        <pt x="640" y="503" on="0"/>
        <pt x="631" y="485" on="1"/>
        <pt x="589" y="485" on="1"/>
        <pt x="566" y="636" on="1"/>
        <pt x="557" y="641" on="0"/>
        <pt x="515" y="647" on="0"/>
        <pt x="494" y="647" on="1"/>
        <pt x="436" y="647" on="0"/>
        <pt x="339" y="591" on="0"/>
        <pt x="268" y="489" on="0"/>
        <pt x="229" y="344" on="0"/>
        <pt x="229" y="255" on="1"/>
        <pt x="229" y="199" on="0"/>
        <pt x="261" y="122" on="0"/>
        <pt x="312" y="74" on="0"/>
        <pt x="373" y="53" on="0"/>
        <pt x="402" y="53" on="1"/>
        <pt x="431" y="53" on="0"/>
        <pt x="473" y="64" on="0"/>
        <pt x="483" y="70" on="1"/>
      </contour>
    </TTGlyph>
    <TTGlyph name="Cacute" xMin="59" yMin="-12" xMax="695" yMax="899">
      <component glyphName="C" x="0" y="0" flags="0x204"/>
      <component glyphName="uniF6C9" x="44" y="0" flags="0x4"/>
    </TTGlyph>
    <TTGlyph name="Ccaron" xMin="59" yMin="-12" xMax="695" yMax="902">
      <component glyphName="C" x="0" y="0" flags="0x204"/>
      <component glyphName="uniF6CA" x="53" y="0" flags="0x4"/>
    </TTGlyph>
    <TTGlyph name="Ccedilla" xMin="59" yMin="-285" xMax="695" yMax="712">
      <contour>
        <pt x="561" y="210" on="1"/>
        <pt x="603" y="210" on="1"/>
        <pt x="603" y="194" on="0"/>
        <pt x="601" y="149" on="0"/>
        <pt x="595" y="98" on="0"/>
        <pt x="587" y="48" on="0"/>
        <pt x="582" y="28" on="1"/>
        <pt x="563" y="18" on="0"/>
        <pt x="517" y="3" on="0"/>
        <pt x="469" y="-6" on="0"/>
        <pt x="423" y="-11" on="0"/>
        <pt x="404" y="-12" on="1"/>
        <pt x="369" y="-70" on="1"/>
        <pt x="427" y="-72" on="0"/>
        <pt x="477" y="-112" on="0"/>
        <pt x="477" y="-147" on="1"/>
        <pt x="477" y="-185" on="0"/>
        <pt x="426" y="-237" on="0"/>
        <pt x="354" y="-270" on="0"/>
        <pt x="274" y="-285" on="0"/>
        <pt x="245" y="-285" on="1"/>
        <pt x="245" y="-239" on="1"/>
        <pt x="263" y="-237" on="0"/>
        <pt x="298" y="-227" on="0"/>
        <pt x="327" y="-209" on="0"/>
        <pt x="344" y="-184" on="0"/>
        <pt x="344" y="-167" on="1"/>
        <pt x="343" y="-149" on="0"/>
        <pt x="323" y="-127" on="0"/>
        <pt x="288" y="-125" on="1"/>
        <pt x="342" y="-10" on="1"/>
        <pt x="264" y="-3" on="0"/>
        <pt x="157" y="50" on="0"/>
        <pt x="89" y="128" on="0"/>
        <pt x="59" y="222" on="0"/>
        <pt x="59" y="269" on="1"/>
        <pt x="59" y="368" on="0"/>
        <pt x="117" y="531" on="0"/>
        <pt x="228" y="648" on="0"/>
        <pt x="389" y="712" on="0"/>
        <pt x="491" y="712" on="1"/>
        <pt x="557" y="712" on="0"/>
        <pt x="662" y="693" on="0"/>
        <pt x="695" y="677" on="1"/>
        <pt x="692" y="661" on="0"/>
        <pt x="678" y="611" on="0"/>
        <pt x="660" y="556" on="0"/>
        <pt x="640" y="503" on="0"/>
        <pt x="631" y="485" on="1"/>
        <pt x="589" y="485" on="1"/>
        <pt x="566" y="636" on="1"/>
        <pt x="557" y="641" on="0"/>
        <pt x="515" y="647" on="0"/>
        <pt x="494" y="647" on="1"/>
        <pt x="436" y="647" on="0"/>
        <pt x="339" y="591" on="0"/>
        <pt x="268" y="489" on="0"/>
        <pt x="229" y="344" on="0"/>
        <pt x="229" y="255" on="1"/>
        <pt x="229" y="199" on="0"/>
        <pt x="261" y="122" on="0"/>
        <pt x="312" y="74" on="0"/>
        <pt x="373" y="53" on="0"/>
        <pt x="402" y="53" on="1"/>
        <pt x="431" y="53" on="0"/>
        <pt x="473" y="64" on="0"/>
        <pt x="483" y="70" on="1"/>
      </contour>
    </TTGlyph>
    <TTGlyph name="Ccircumflex" xMin="59" yMin="-12" xMax="695" yMax="895">
      <component glyphName="C" x="0" y="0" flags="0x204"/>
      <component glyphName="uniF408" x="54" y="0" flags="0x4"/>
    </TTGlyph>
    <TTGlyph name="D" xMin="-24" yMin="-9" xMax="739" yMax="708">
      <contour>
        <pt x="-24" y="0" on="1"/>
        <pt x="-17" y="38" on="1"/>
        <pt x="2" y="48" on="0"/>
        <pt x="48" y="63" on="0"/>
        <pt x="72" y="67" on="1"/>
        <pt x="192" y="633" on="1"/>
        <pt x="169" y="638" on="0"/>
        <pt x="130" y="653" on="0"/>
        <pt x="116" y="662" on="1"/>
        <pt x="124" y="700" on="1"/>
        <pt x="240" y="700" on="1"/>
        <pt x="257" y="700" on="0"/>
        <pt x="308" y="702" on="0"/>
        <pt x="363" y="705" on="0"/>
        <pt x="414" y="708" on="0"/>
        <pt x="432" y="708" on="1"/>
        <pt x="516" y="708" on="0"/>
        <pt x="633" y="672" on="0"/>
        <pt x="706" y="606" on="0"/>
        <pt x="739" y="515" on="0"/>
        <pt x="739" y="460" on="1"/>
        <pt x="739" y="403" on="0"/>
        <pt x="719" y="290" on="0"/>
        <pt x="673" y="186" on="0"/>
        <pt x="601" y="96" on="0"/>
        <pt x="496" y="29" on="0"/>
        <pt x="358" y="-9" on="0"/>
        <pt x="269" y="-9" on="1"/>
        <pt x="256" y="-9" on="0"/>
        <pt x="211" y="-6" on="0"/>
        <pt x="159" y="-3" on="0"/>
        <pt x="108" y="0" on="0"/>
        <pt x="89" y="0" on="1"/>
      </contour>
      <contour>
        <pt x="409" y="643" on="1"/>
        <pt x="391" y="643" on="0"/>
        <pt x="359" y="641" on="0"/>
        <pt x="345" y="639" on="1"/>
        <pt x="222" y="60" on="1"/>
        <pt x="237" y="58" on="0"/>
        <pt x="275" y="56" on="0"/>
        <pt x="286" y="56" on="1"/>
        <pt x="367" y="56" on="0"/>
        <pt x="477" y="133" on="0"/>
        <pt x="545" y="254" on="0"/>
        <pt x="574" y="402" on="0"/>
        <pt x="574" y="473" on="1"/>
        <pt x="574" y="514" on="0"/>
        <pt x="558" y="578" on="0"/>
        <pt x="520" y="621" on="0"/>
        <pt x="456" y="643" on="0"/>
      </contour>
    </TTGlyph>
    <TTGlyph name="Dcaron" xMin="-24" yMin="-9" xMax="739" yMax="902">
      <component glyphName="D" x="0" y="0" flags="0x204"/>
      <component glyphName="uniF6CA" x="-4" y="0" flags="0x4"/>
    </TTGlyph>
    <TTGlyph name="Dcroat" xMin="-24" yMin="-9" xMax="739" yMax="708">
      <contour>
        <pt x="-24" y="0" on="1"/>
        <pt x="-17" y="38" on="1"/>
        <pt x="2" y="48" on="0"/>
        <pt x="48" y="63" on="0"/>
        <pt x="72" y="67" on="1"/>
        <pt x="127" y="329" on="1"/>
        <pt x="40" y="329" on="1"/>
        <pt x="53" y="389" on="1"/>
        <pt x="140" y="389" on="1"/>
        <pt x="192" y="633" on="1"/>
        <pt x="169" y="638" on="0"/>
        <pt x="130" y="653" on="0"/>
        <pt x="116" y="662" on="1"/>
        <pt x="124" y="700" on="1"/>
        <pt x="240" y="700" on="1"/>
        <pt x="257" y="700" on="0"/>
        <pt x="308" y="702" on="0"/>
        <pt x="363" y="705" on="0"/>
        <pt x="414" y="708" on="0"/>
        <pt x="432" y="708" on="1"/>
        <pt x="516" y="708" on="0"/>
        <pt x="633" y="672" on="0"/>
        <pt x="706" y="606" on="0"/>
        <pt x="739" y="515" on="0"/>
        <pt x="739" y="460" on="1"/>
        <pt x="739" y="403" on="0"/>
        <pt x="719" y="290" on="0"/>
        <pt x="673" y="186" on="0"/>
        <pt x="601" y="96" on="0"/>
        <pt x="496" y="29" on="0"/>
        <pt x="358" y="-9" on="0"/>
        <pt x="269" y="-9" on="1"/>
        <pt x="256" y="-9" on="0"/>
        <pt x="211" y="-6" on="0"/>
        <pt x="159" y="-3" on="0"/>
        <pt x="108" y="0" on="0"/>
        <pt x="89" y="0" on="1"/>
      </contour>
      <contour>
        <pt x="409" y="643" on="1"/>
        <pt x="391" y="643" on="0"/>
        <pt x="351" y="641" on="0"/>
        <pt x="337" y="639" on="1"/>
        <pt x="283" y="389" on="1"/>
        <pt x="435" y="389" on="1"/>
        <pt x="422" y="329" on="1"/>
        <pt x="271" y="329" on="1"/>
        <pt x="214" y="60" on="1"/>
        <pt x="229" y="58" on="0"/>
        <pt x="275" y="56" on="0"/>
        <pt x="286" y="56" on="1"/>
        <pt x="367" y="56" on="0"/>
        <pt x="477" y="133" on="0"/>
        <pt x="545" y="254" on="0"/>
        <pt x="574" y="402" on="0"/>
        <pt x="574" y="473" on="1"/>
        <pt x="574" y="514" on="0"/>
        <pt x="558" y="578" on="0"/>
        <pt x="520" y="621" on="0"/>
        <pt x="456" y="643" on="0"/>
      </contour>
    </TTGlyph>
    <TTGlyph name="E" xMin="-24" yMin="0" xMax="650" yMax="700">
      <contour>
        <pt x="650" y="700" on="1"/>
        <pt x="640" y="655" on="0"/>
        <pt x="610" y="559" on="0"/>
        <pt x="592" y="517" on="1"/>
        <pt x="550" y="517" on="1"/>
        <pt x="529" y="635" on="1"/>
        <pt x="342" y="635" on="1"/>
        <pt x="290" y="390" on="1"/>
        <pt x="413" y="390" on="1"/>
        <pt x="473" y="467" on="1"/>
        <pt x="504" y="467" on="1"/>
        <pt x="499" y="418" on="0"/>
        <pt x="474" y="298" on="0"/>
        <pt x="458" y="246" on="1"/>
        <pt x="426" y="246" on="1"/>
        <pt x="399" y="325" on="1"/>
        <pt x="276" y="325" on="1"/>
        <pt x="222" y="65" on="1"/>
        <pt x="416" y="65" on="1"/>
        <pt x="496" y="192" on="1"/>
        <pt x="538" y="192" on="1"/>
        <pt x="538" y="174" on="0"/>
        <pt x="535" y="126" on="0"/>
        <pt x="530" y="74" on="0"/>
        <pt x="522" y="22" on="0"/>
        <pt x="517" y="0" on="1"/>
        <pt x="-24" y="0" on="1"/>
        <pt x="-17" y="38" on="1"/>
        <pt x="3" y="47" on="0"/>
        <pt x="48" y="63" on="0"/>
        <pt x="72" y="67" on="1"/>
        <pt x="192" y="633" on="1"/>
        <pt x="172" y="637" on="0"/>
        <pt x="132" y="652" on="0"/>
        <pt x="116" y="662" on="1"/>
        <pt x="124" y="700" on="1"/>
      </contour>
    </TTGlyph>
    <TTGlyph name="Eacute" xMin="-24" yMin="0" xMax="650" yMax="899">
      <component glyphName="E" x="0" y="0" flags="0x204"/>
      <component glyphName="uniF6C9" x="-19" y="0" flags="0x4"/>
    </TTGlyph>
    <TTGlyph name="Ecaron" xMin="-24" yMin="0" xMax="650" yMax="902">
      <component glyphName="E" x="0" y="0" flags="0x204"/>
      <component glyphName="uniF6CA" x="-22" y="0" flags="0x4"/>
    </TTGlyph>
    <TTGlyph name="Ecircumflex" xMin="-24" yMin="0" xMax="650" yMax="895">
      <component glyphName="E" x="0" y="0" flags="0x204"/>
      <component glyphName="uniF408" x="-12" y="0" flags="0x4"/>
    </TTGlyph>
    <TTGlyph name="Edieresis" xMin="-24" yMin="0" xMax="650" yMax="857">
      <component glyphName="E" x="0" y="0" flags="0x204"/>
      <component glyphName="uniF6CB" x="-6" y="0" flags="0x4"/>
    </TTGlyph>
    <TTGlyph name="Edotaccent" xMin="-24" yMin="0" xMax="650" yMax="885">
      <component glyphName="E" x="0" y="0" flags="0x204"/>
      <component glyphName="uniF40B" x="42" y="0" flags="0x4"/>
    </TTGlyph>
    <TTGlyph name="Egrave" xMin="-24" yMin="0" xMax="650" yMax="901">
      <component glyphName="E" x="0" y="0" flags="0x204"/>
      <component glyphName="uniF6CE" x="35" y="0" flags="0x4"/>
    </TTGlyph>
    <TTGlyph name="Emacron" xMin="-24" yMin="0" xMax="650" yMax="849">
      <component glyphName="E" x="0" y="0" flags="0x204"/>
      <component glyphName="uniF6D0" x="-28" y="0" flags="0x4"/>
    </TTGlyph>
    <TTGlyph name="Eogonek" xMin="-24" yMin="-255" xMax="650" yMax="700">
      <contour>
        <pt x="650" y="700" on="1"/>
        <pt x="640" y="655" on="0"/>
        <pt x="610" y="559" on="0"/>
        <pt x="592" y="517" on="1"/>
        <pt x="550" y="517" on="1"/>
        <pt x="529" y="635" on="1"/>
        <pt x="342" y="635" on="1"/>
        <pt x="290" y="390" on="1"/>
        <pt x="413" y="390" on="1"/>
        <pt x="473" y="467" on="1"/>
        <pt x="504" y="467" on="1"/>
        <pt x="499" y="418" on="0"/>
        <pt x="474" y="298" on="0"/>
        <pt x="458" y="246" on="1"/>
        <pt x="426" y="246" on="1"/>
        <pt x="399" y="325" on="1"/>
        <pt x="276" y="325" on="1"/>
        <pt x="222" y="65" on="1"/>
        <pt x="416" y="65" on="1"/>
        <pt x="496" y="192" on="1"/>
        <pt x="538" y="192" on="1"/>
        <pt x="538" y="174" on="0"/>
        <pt x="535" y="126" on="0"/>
        <pt x="530" y="74" on="0"/>
        <pt x="522" y="22" on="0"/>
        <pt x="517" y="0" on="1"/>
        <pt x="472" y="0" on="1"/>
        <pt x="429" y="-27" on="0"/>
        <pt x="375" y="-103" on="0"/>
        <pt x="375" y="-135" on="1"/>
        <pt x="375" y="-161" on="0"/>
        <pt x="406" y="-189" on="0"/>
        <pt x="429" y="-189" on="1"/>
        <pt x="441" y="-189" on="0"/>
        <pt x="463" y="-187" on="0"/>
        <pt x="475" y="-184" on="1"/>
        <pt x="475" y="-227" on="1"/>
        <pt x="461" y="-238" on="0"/>
        <pt x="406" y="-255" on="0"/>
        <pt x="374" y="-255" on="1"/>
        <pt x="313" y="-255" on="0"/>
        <pt x="248" y="-198" on="0"/>
        <pt x="248" y="-157" on="1"/>
        <pt x="248" y="-103" on="0"/>
        <pt x="330" y="-27" on="0"/>
        <pt x="398" y="0" on="1"/>
        <pt x="-24" y="0" on="1"/>
        <pt x="-17" y="38" on="1"/>
        <pt x="3" y="47" on="0"/>
        <pt x="48" y="63" on="0"/>
        <pt x="72" y="67" on="1"/>
        <pt x="192" y="633" on="1"/>
        <pt x="172" y="637" on="0"/>
        <pt x="132" y="652" on="0"/>
        <pt x="116" y="662" on="1"/>
        <pt x="124" y="700" on="1"/>
      </contour>
    </TTGlyph>
    <TTGlyph name="Eth" xMin="-24" yMin="-9" xMax="739" yMax="708">
      <contour>
        <pt x="-24" y="0" on="1"/>
        <pt x="-17" y="38" on="1"/>
        <pt x="2" y="48" on="0"/>
        <pt x="48" y="63" on="0"/>
        <pt x="72" y="67" on="1"/>
        <pt x="127" y="329" on="1"/>
        <pt x="40" y="329" on="1"/>
        <pt x="53" y="389" on="1"/>
        <pt x="140" y="389" on="1"/>
        <pt x="192" y="633" on="1"/>
        <pt x="169" y="638" on="0"/>
        <pt x="130" y="653" on="0"/>
        <pt x="116" y="662" on="1"/>
        <pt x="124" y="700" on="1"/>
        <pt x="240" y="700" on="1"/>
        <pt x="257" y="700" on="0"/>
        <pt x="308" y="702" on="0"/>
        <pt x="363" y="705" on="0"/>
        <pt x="414" y="708" on="0"/>
        <pt x="432" y="708" on="1"/>
        <pt x="516" y="708" on="0"/>
        <pt x="633" y="672" on="0"/>
        <pt x="706" y="606" on="0"/>
        <pt x="739" y="515" on="0"/>
        <pt x="739" y="460" on="1"/>
        <pt x="739" y="403" on="0"/>
        <pt x="719" y="290" on="0"/>
        <pt x="673" y="186" on="0"/>
        <pt x="601" y="96" on="0"/>
        <pt x="496" y="29" on="0"/>
        <pt x="358" y="-9" on="0"/>
        <pt x="269" y="-9" on="1"/>
        <pt x="256" y="-9" on="0"/>
        <pt x="211" y="-6" on="0"/>
        <pt x="159" y="-3" on="0"/>
        <pt x="108" y="0" on="0"/>
        <pt x="89" y="0" on="1"/>
      </contour>
      <contour>
        <pt x="409" y="643" on="1"/>
        <pt x="391" y="643" on="0"/>
        <pt x="351" y="641" on="0"/>
        <pt x="337" y="639" on="1"/>
        <pt x="283" y="389" on="1"/>
        <pt x="435" y="389" on="1"/>
        <pt x="422" y="329" on="1"/>
        <pt x="271" y="329" on="1"/>
        <pt x="214" y="60" on="1"/>
        <pt x="229" y="58" on="0"/>
        <pt x="275" y="56" on="0"/>
        <pt x="286" y="56" on="1"/>
        <pt x="367" y="56" on="0"/>
        <pt x="477" y="133" on="0"/>
        <pt x="545" y="254" on="0"/>
        <pt x="574" y="402" on="0"/>
        <pt x="574" y="473" on="1"/>
        <pt x="574" y="514" on="0"/>
        <pt x="558" y="578" on="0"/>
        <pt x="520" y="621" on="0"/>
        <pt x="456" y="643" on="0"/>
      </contour>
    </TTGlyph>
    <TTGlyph name="Euro" xMin="-37" yMin="-12" xMax="635" yMax="712">
      <contour>
        <pt x="221" y="381" on="1"/>
        <pt x="218" y="366" on="0"/>
        <pt x="215" y="334" on="0"/>
        <pt x="213" y="318" on="1"/>
        <pt x="417" y="318" on="1"/>
        <pt x="385" y="251" on="1"/>
        <pt x="210" y="251" on="1"/>
        <pt x="210" y="196" on="0"/>
        <pt x="232" y="121" on="0"/>
        <pt x="269" y="74" on="0"/>
        <pt x="318" y="53" on="0"/>
        <pt x="345" y="53" on="1"/>
        <pt x="374" y="53" on="0"/>
        <pt x="413" y="64" on="0"/>
        <pt x="423" y="70" on="1"/>
        <pt x="501" y="210" on="1"/>
        <pt x="543" y="210" on="1"/>
        <pt x="543" y="194" on="0"/>
        <pt x="541" y="149" on="0"/>
        <pt x="535" y="98" on="0"/>
        <pt x="527" y="48" on="0"/>
        <pt x="522" y="28" on="1"/>
        <pt x="501" y="17" on="0"/>
        <pt x="451" y="2" on="0"/>
        <pt x="400" y="-8" on="0"/>
        <pt x="352" y="-12" on="0"/>
        <pt x="334" y="-12" on="1"/>
        <pt x="254" y="-12" on="0"/>
        <pt x="149" y="34" on="0"/>
        <pt x="86" y="108" on="0"/>
        <pt x="60" y="202" on="0"/>
        <pt x="58" y="251" on="1"/>
        <pt x="-37" y="251" on="1"/>
        <pt x="-6" y="318" on="1"/>
        <pt x="60" y="318" on="1"/>
        <pt x="61" y="334" on="0"/>
        <pt x="65" y="365" on="0"/>
        <pt x="68" y="381" on="1"/>
        <pt x="-10" y="381" on="1"/>
        <pt x="22" y="448" on="1"/>
        <pt x="85" y="448" on="1"/>
        <pt x="104" y="507" on="0"/>
        <pt x="169" y="605" on="0"/>
        <pt x="258" y="674" on="0"/>
        <pt x="367" y="712" on="0"/>
        <pt x="432" y="712" on="1"/>
        <pt x="498" y="712" on="0"/>
        <pt x="602" y="693" on="0"/>
        <pt x="635" y="677" on="1"/>
        <pt x="632" y="661" on="0"/>
        <pt x="618" y="611" on="0"/>
        <pt x="600" y="556" on="0"/>
        <pt x="580" y="503" on="0"/>
        <pt x="571" y="485" on="1"/>
        <pt x="529" y="485" on="1"/>
        <pt x="506" y="636" on="1"/>
        <pt x="497" y="641" on="0"/>
        <pt x="457" y="647" on="0"/>
        <pt x="437" y="647" on="1"/>
        <pt x="371" y="647" on="0"/>
        <pt x="265" y="543" on="0"/>
        <pt x="237" y="448" on="1"/>
        <pt x="478" y="448" on="1"/>
        <pt x="446" y="381" on="1"/>
      </contour>
    </TTGlyph>
    <TTGlyph name="F" xMin="-24" yMin="0" xMax="647" yMax="700">
      <contour>
        <pt x="212" y="67" on="1"/>
        <pt x="257" y="61" on="0"/>
        <pt x="292" y="38" on="1"/>
        <pt x="285" y="0" on="1"/>
        <pt x="-24" y="0" on="1"/>
        <pt x="-17" y="38" on="1"/>
        <pt x="1" y="47" on="0"/>
        <pt x="40" y="62" on="0"/>
        <pt x="62" y="67" on="1"/>
        <pt x="182" y="633" on="1"/>
        <pt x="140" y="645" on="0"/>
        <pt x="116" y="662" on="1"/>
        <pt x="124" y="700" on="1"/>
        <pt x="647" y="700" on="1"/>
        <pt x="643" y="680" on="0"/>
        <pt x="630" y="633" on="0"/>
        <pt x="615" y="584" on="0"/>
        <pt x="598" y="537" on="0"/>
        <pt x="589" y="517" on="1"/>
        <pt x="547" y="517" on="1"/>
        <pt x="526" y="635" on="1"/>
        <pt x="332" y="635" on="1"/>
        <pt x="276" y="372" on="1"/>
        <pt x="414" y="372" on="1"/>
        <pt x="475" y="449" on="1"/>
        <pt x="506" y="449" on="1"/>
        <pt x="504" y="424" on="0"/>
        <pt x="495" y="366" on="0"/>
        <pt x="482" y="306" on="0"/>
        <pt x="466" y="250" on="0"/>
        <pt x="459" y="228" on="1"/>
        <pt x="428" y="228" on="1"/>
        <pt x="401" y="307" on="1"/>
        <pt x="263" y="307" on="1"/>
      </contour>
    </TTGlyph>
    <TTGlyph name="G" xMin="59" yMin="-12" xMax="726" yMax="712">
      <contour>
        <pt x="603" y="44" on="1"/>
        <pt x="578" y="31" on="0"/>
        <pt x="515" y="10" on="0"/>
        <pt x="450" y="-4" on="0"/>
        <pt x="390" y="-12" on="0"/>
        <pt x="368" y="-12" on="1"/>
        <pt x="300" y="-12" on="0"/>
        <pt x="186" y="22" on="0"/>
        <pt x="104" y="92" on="0"/>
        <pt x="59" y="198" on="0"/>
        <pt x="59" y="270" on="1"/>
        <pt x="59" y="369" on="0"/>
        <pt x="118" y="531" on="0"/>
        <pt x="229" y="648" on="0"/>
        <pt x="391" y="712" on="0"/>
        <pt x="493" y="712" on="1"/>
        <pt x="526" y="712" on="0"/>
        <pt x="591" y="707" on="0"/>
        <pt x="650" y="698" on="0"/>
        <pt x="698" y="685" on="0"/>
        <pt x="713" y="677" on="1"/>
        <pt x="710" y="662" on="0"/>
        <pt x="696" y="615" on="0"/>
        <pt x="678" y="561" on="0"/>
        <pt x="658" y="507" on="0"/>
        <pt x="648" y="485" on="1"/>
        <pt x="607" y="485" on="1"/>
        <pt x="584" y="637" on="1"/>
        <pt x="570" y="642" on="0"/>
        <pt x="519" y="647" on="0"/>
        <pt x="497" y="647" on="1"/>
        <pt x="430" y="647" on="0"/>
        <pt x="329" y="582" on="0"/>
        <pt x="262" y="472" on="0"/>
        <pt x="229" y="328" on="0"/>
        <pt x="229" y="249" on="1"/>
        <pt x="229" y="197" on="0"/>
        <pt x="253" y="123" on="0"/>
        <pt x="294" y="75" on="0"/>
        <pt x="349" y="53" on="0"/>
        <pt x="381" y="53" on="1"/>
        <pt x="410" y="53" on="0"/>
        <pt x="473" y="69" on="0"/>
        <pt x="491" y="80" on="1"/>
        <pt x="531" y="268" on="1"/>
        <pt x="506" y="270" on="0"/>
        <pt x="462" y="286" on="0"/>
        <pt x="445" y="297" on="1"/>
        <pt x="453" y="335" on="1"/>
        <pt x="726" y="335" on="1"/>
        <pt x="718" y="297" on="1"/>
        <pt x="707" y="288" on="0"/>
        <pt x="674" y="273" on="0"/>
        <pt x="650" y="268" on="1"/>
      </contour>
    </TTGlyph>
    <TTGlyph name="Gbreve" xMin="59" yMin="-12" xMax="726" yMax="902">
      <component glyphName="G" x="0" y="0" flags="0x204"/>
      <component glyphName="uniF406" x="79" y="0" flags="0x4"/>
    </TTGlyph>
    <TTGlyph name="Gcircumflex" xMin="59" yMin="-12" xMax="726" yMax="895">
      <component glyphName="G" x="0" y="0" flags="0x204"/>
      <component glyphName="uniF408" x="79" y="0" flags="0x4"/>
    </TTGlyph>
    <TTGlyph name="Gcommaaccent" xMin="59" yMin="-286" xMax="726" yMax="712">
      <component glyphName="G" x="0" y="0" flags="0x204"/>
      <component glyphName="uniF409" x="271" y="0" flags="0x4"/>
    </TTGlyph>
    <TTGlyph name="H" xMin="-24" yMin="0" xMax="853" yMax="700">
      <contour>
        <pt x="279" y="0" on="1"/>
        <pt x="-24" y="0" on="1"/>
        <pt x="-17" y="38" on="1"/>
        <pt x="3" y="48" on="0"/>
        <pt x="50" y="63" on="0"/>
        <pt x="72" y="67" on="1"/>
        <pt x="192" y="633" on="1"/>
        <pt x="169" y="637" on="0"/>
        <pt x="129" y="653" on="0"/>
        <pt x="116" y="662" on="1"/>
        <pt x="124" y="700" on="1"/>
        <pt x="427" y="700" on="1"/>
        <pt x="419" y="662" on="1"/>
        <pt x="404" y="651" on="0"/>
        <pt x="362" y="637" on="0"/>
        <pt x="342" y="633" on="1"/>
        <pt x="290" y="391" on="1"/>
        <pt x="555" y="391" on="1"/>
        <pt x="607" y="633" on="1"/>
        <pt x="564" y="644" on="0"/>
        <pt x="542" y="662" on="1"/>
        <pt x="550" y="700" on="1"/>
        <pt x="853" y="700" on="1"/>
        <pt x="845" y="662" on="1"/>
        <pt x="826" y="651" on="0"/>
        <pt x="779" y="636" on="0"/>
        <pt x="757" y="633" on="1"/>
        <pt x="637" y="67" on="1"/>
        <pt x="659" y="63" on="0"/>
        <pt x="698" y="47" on="0"/>
        <pt x="712" y="38" on="1"/>
        <pt x="705" y="0" on="1"/>
        <pt x="402" y="0" on="1"/>
        <pt x="409" y="38" on="1"/>
        <pt x="426" y="47" on="0"/>
        <pt x="466" y="63" on="0"/>
        <pt x="487" y="67" on="1"/>
        <pt x="541" y="326" on="1"/>
        <pt x="276" y="326" on="1"/>
        <pt x="222" y="67" on="1"/>
        <pt x="256" y="60" on="0"/>
        <pt x="286" y="38" on="1"/>
      </contour>
    </TTGlyph>
    <TTGlyph name="Hbar" xMin="-24" yMin="0" xMax="853" yMax="700">
      <contour>
        <pt x="101" y="561" on="1"/>
        <pt x="176" y="561" on="1"/>
        <pt x="192" y="633" on="1"/>
        <pt x="169" y="637" on="0"/>
        <pt x="129" y="653" on="0"/>
        <pt x="116" y="662" on="1"/>
        <pt x="124" y="700" on="1"/>
        <pt x="427" y="700" on="1"/>
        <pt x="419" y="662" on="1"/>
        <pt x="404" y="651" on="0"/>
        <pt x="362" y="637" on="0"/>
        <pt x="342" y="633" on="1"/>
        <pt x="326" y="561" on="1"/>
        <pt x="591" y="561" on="1"/>
        <pt x="607" y="633" on="1"/>
        <pt x="564" y="644" on="0"/>
        <pt x="542" y="662" on="1"/>
        <pt x="550" y="700" on="1"/>
        <pt x="853" y="700" on="1"/>
        <pt x="845" y="662" on="1"/>
        <pt x="826" y="651" on="0"/>
        <pt x="779" y="636" on="0"/>
        <pt x="757" y="633" on="1"/>
        <pt x="742" y="561" on="1"/>
        <pt x="818" y="561" on="1"/>
        <pt x="804" y="498" on="1"/>
        <pt x="728" y="498" on="1"/>
        <pt x="637" y="67" on="1"/>
        <pt x="659" y="63" on="0"/>
        <pt x="698" y="47" on="0"/>
        <pt x="712" y="38" on="1"/>
        <pt x="705" y="0" on="1"/>
        <pt x="402" y="0" on="1"/>
        <pt x="409" y="38" on="1"/>
        <pt x="426" y="47" on="0"/>
        <pt x="466" y="63" on="0"/>
        <pt x="487" y="67" on="1"/>
        <pt x="541" y="326" on="1"/>
        <pt x="276" y="326" on="1"/>
        <pt x="222" y="67" on="1"/>
        <pt x="256" y="60" on="0"/>
        <pt x="286" y="38" on="1"/>
        <pt x="279" y="0" on="1"/>
        <pt x="-24" y="0" on="1"/>
        <pt x="-17" y="38" on="1"/>
        <pt x="3" y="48" on="0"/>
        <pt x="50" y="63" on="0"/>
        <pt x="72" y="67" on="1"/>
        <pt x="163" y="498" on="1"/>
        <pt x="87" y="498" on="1"/>
      </contour>
      <contour>
        <pt x="555" y="391" on="1"/>
        <pt x="578" y="498" on="1"/>
        <pt x="313" y="498" on="1"/>
        <pt x="290" y="391" on="1"/>
      </contour>
    </TTGlyph>
    <TTGlyph name="Hcircumflex" xMin="-24" yMin="0" xMax="853" yMax="895">
      <component glyphName="H" x="0" y="0" flags="0x204"/>
      <component glyphName="uniF408" x="70" y="0" flags="0x4"/>
    </TTGlyph>
    <TTGlyph name="I" xMin="-14" yMin="0" xMax="446" yMax="700">
      <contour>
        <pt x="298" y="0" on="1"/>
        <pt x="-14" y="0" on="1"/>
        <pt x="-7" y="38" on="1"/>
        <pt x="40" y="60" on="0"/>
        <pt x="81" y="67" on="1"/>
        <pt x="201" y="633" on="1"/>
        <pt x="181" y="636" on="0"/>
        <pt x="142" y="651" on="0"/>
        <pt x="126" y="662" on="1"/>
        <pt x="134" y="700" on="1"/>
        <pt x="446" y="700" on="1"/>
        <pt x="438" y="662" on="1"/>
        <pt x="418" y="651" on="0"/>
        <pt x="371" y="636" on="0"/>
        <pt x="351" y="633" on="1"/>
        <pt x="231" y="67" on="1"/>
        <pt x="250" y="63" on="0"/>
        <pt x="290" y="49" on="0"/>
        <pt x="305" y="38" on="1"/>
      </contour>
    </TTGlyph>
    <TTGlyph name="Iacute" xMin="-14" yMin="0" xMax="463" yMax="899">
      <component glyphName="I" x="0" y="0" flags="0x204"/>
      <component glyphName="uniF6C9" x="-167" y="0" flags="0x4"/>
    </TTGlyph>
    <TTGlyph name="Icircumflex" xMin="-14" yMin="0" xMax="446" yMax="895">
      <component glyphName="I" x="0" y="0" flags="0x204"/>
      <component glyphName="uniF408" x="-140" y="0" flags="0x4"/>
    </TTGlyph>
    <TTGlyph name="Idieresis" xMin="-14" yMin="0" xMax="503" yMax="857">
      <component glyphName="I" x="0" y="0" flags="0x204"/>
      <component glyphName="uniF6CB" x="-120" y="0" flags="0x4"/>
    </TTGlyph>
    <TTGlyph name="Idotaccent" xMin="-14" yMin="0" xMax="446" yMax="885">
      <component glyphName="I" x="0" y="0" flags="0x204"/>
      <component glyphName="uniF40B" x="-71" y="0" flags="0x4"/>
    </TTGlyph>
    <TTGlyph name="Igrave" xMin="-14" yMin="0" xMax="446" yMax="901">
      <component glyphName="I" x="0" y="0" flags="0x204"/>
      <component glyphName="uniF6CE" x="-67" y="0" flags="0x4"/>
    </TTGlyph>
    <TTGlyph name="Imacron" xMin="-14" yMin="0" xMax="476" yMax="849">
      <component glyphName="I" x="0" y="0" flags="0x204"/>
      <component glyphName="uniF6D0" x="-135" y="0" flags="0x4"/>
    </TTGlyph>
    <TTGlyph name="Iogonek" xMin="-14" yMin="-255" xMax="446" yMax="700">
      <contour>
        <pt x="298" y="0" on="1"/>
        <pt x="249" y="0" on="1"/>
        <pt x="228" y="-14" on="0"/>
        <pt x="192" y="-47" on="0"/>
        <pt x="167" y="-83" on="0"/>
        <pt x="152" y="-119" on="0"/>
        <pt x="152" y="-135" on="1"/>
        <pt x="152" y="-161" on="0"/>
        <pt x="184" y="-189" on="0"/>
        <pt x="206" y="-189" on="1"/>
        <pt x="218" y="-189" on="0"/>
        <pt x="240" y="-187" on="0"/>
        <pt x="252" y="-184" on="1"/>
        <pt x="252" y="-227" on="1"/>
        <pt x="238" y="-238" on="0"/>
        <pt x="184" y="-255" on="0"/>
        <pt x="152" y="-255" on="1"/>
        <pt x="91" y="-255" on="0"/>
        <pt x="25" y="-198" on="0"/>
        <pt x="25" y="-157" on="1"/>
        <pt x="25" y="-103" on="0"/>
        <pt x="108" y="-27" on="0"/>
        <pt x="175" y="0" on="1"/>
        <pt x="-14" y="0" on="1"/>
        <pt x="-7" y="38" on="1"/>
        <pt x="40" y="60" on="0"/>
        <pt x="81" y="67" on="1"/>
        <pt x="201" y="633" on="1"/>
        <pt x="181" y="636" on="0"/>
        <pt x="142" y="651" on="0"/>
        <pt x="126" y="662" on="1"/>
        <pt x="134" y="700" on="1"/>
        <pt x="446" y="700" on="1"/>
        <pt x="438" y="662" on="1"/>
        <pt x="418" y="651" on="0"/>
        <pt x="371" y="636" on="0"/>
        <pt x="351" y="633" on="1"/>
        <pt x="231" y="67" on="1"/>
        <pt x="250" y="63" on="0"/>
        <pt x="290" y="49" on="0"/>
        <pt x="305" y="38" on="1"/>
      </contour>
    </TTGlyph>
    <TTGlyph name="J" xMin="-43" yMin="-160" xMax="438" yMax="700">
      <contour>
        <pt x="129" y="700" on="1"/>
        <pt x="438" y="700" on="1"/>
        <pt x="430" y="662" on="1"/>
        <pt x="413" y="651" on="0"/>
        <pt x="366" y="636" on="0"/>
        <pt x="346" y="633" on="1"/>
        <pt x="238" y="121" on="1"/>
        <pt x="221" y="39" on="0"/>
        <pt x="150" y="-66" on="0"/>
        <pt x="69" y="-128" on="0"/>
        <pt x="-8" y="-156" on="0"/>
        <pt x="-31" y="-160" on="1"/>
        <pt x="-43" y="-134" on="1"/>
        <pt x="-24" y="-121" on="0"/>
        <pt x="11" y="-83" on="0"/>
        <pt x="44" y="-26" on="0"/>
        <pt x="74" y="56" on="0"/>
        <pt x="87" y="115" on="1"/>
        <pt x="196" y="633" on="1"/>
        <pt x="175" y="637" on="0"/>
        <pt x="135" y="652" on="0"/>
        <pt x="121" y="662" on="1"/>
      </contour>
    </TTGlyph>
    <TTGlyph name="Jcircumflex" xMin="-43" yMin="-160" xMax="442" yMax="895">
      <component glyphName="J" x="0" y="0" flags="0x204"/>
      <component glyphName="uniF408" x="-144" y="0" flags="0x4"/>
    </TTGlyph>
    <TTGlyph name="K" xMin="-24" yMin="0" xMax="771" yMax="700">
      <contour>
        <pt x="499" y="700" on="1"/>
        <pt x="771" y="700" on="1"/>
        <pt x="763" y="662" on="1"/>
        <pt x="745" y="651" on="0"/>
        <pt x="698" y="636" on="0"/>
        <pt x="678" y="633" on="1"/>
        <pt x="436" y="390" on="1"/>
        <pt x="452" y="357" on="0"/>
        <pt x="498" y="277" on="0"/>
        <pt x="549" y="191" on="0"/>
        <pt x="604" y="103" on="0"/>
        <pt x="631" y="63" on="1"/>
        <pt x="673" y="34" on="1"/>
        <pt x="666" y="0" on="1"/>
        <pt x="498" y="0" on="1"/>
        <pt x="463" y="28" on="1"/>
        <pt x="445" y="58" on="0"/>
        <pt x="407" y="131" on="0"/>
        <pt x="371" y="210" on="0"/>
        <pt x="338" y="290" on="0"/>
        <pt x="325" y="328" on="1"/>
        <pt x="277" y="328" on="1"/>
        <pt x="222" y="67" on="1"/>
        <pt x="242" y="62" on="0"/>
        <pt x="275" y="46" on="0"/>
        <pt x="286" y="38" on="1"/>
        <pt x="279" y="0" on="1"/>
        <pt x="-24" y="0" on="1"/>
        <pt x="-17" y="38" on="1"/>
        <pt x="5" y="49" on="0"/>
        <pt x="50" y="63" on="0"/>
        <pt x="72" y="67" on="1"/>
        <pt x="192" y="633" on="1"/>
        <pt x="169" y="636" on="0"/>
        <pt x="129" y="652" on="0"/>
        <pt x="116" y="662" on="1"/>
        <pt x="124" y="700" on="1"/>
        <pt x="427" y="700" on="1"/>
        <pt x="419" y="662" on="1"/>
        <pt x="405" y="654" on="0"/>
        <pt x="364" y="638" on="0"/>
        <pt x="342" y="633" on="1"/>
        <pt x="288" y="379" on="1"/>
        <pt x="347" y="393" on="1"/>
        <pt x="558" y="633" on="1"/>
        <pt x="538" y="638" on="0"/>
        <pt x="503" y="653" on="0"/>
        <pt x="491" y="662" on="1"/>
      </contour>
    </TTGlyph>
    <TTGlyph name="Kcommaaccent" xMin="-24" yMin="-286" xMax="771" yMax="700">
      <component glyphName="K" x="0" y="0" flags="0x204"/>
      <component glyphName="uniF409" x="225" y="0" flags="0x4"/>
    </TTGlyph>
    <TTGlyph name="L" xMin="-24" yMin="0" xMax="561" yMax="700">
      <contour>
        <pt x="124" y="700" on="1"/>
        <pt x="452" y="700" on="1"/>
        <pt x="444" y="662" on="1"/>
        <pt x="422" y="651" on="0"/>
        <pt x="367" y="636" on="0"/>
        <pt x="342" y="633" on="1"/>
        <pt x="222" y="65" on="1"/>
        <pt x="415" y="65" on="1"/>
        <pt x="519" y="244" on="1"/>
        <pt x="561" y="244" on="1"/>
        <pt x="561" y="221" on="0"/>
        <pt x="555" y="159" on="0"/>
        <pt x="545" y="91" on="0"/>
        <pt x="532" y="25" on="0"/>
        <pt x="525" y="0" on="1"/>
        <pt x="-24" y="0" on="1"/>
        <pt x="-17" y="38" on="1"/>
        <pt x="9" y="50" on="0"/>
        <pt x="53" y="64" on="0"/>
        <pt x="72" y="67" on="1"/>
        <pt x="192" y="633" on="1"/>
        <pt x="170" y="637" on="0"/>
        <pt x="130" y="651" on="0"/>
        <pt x="116" y="662" on="1"/>
      </contour>
    </TTGlyph>
    <TTGlyph name="Lacute" xMin="-24" yMin="0" xMax="561" yMax="899">
      <component glyphName="L" x="0" y="0" flags="0x204"/>
      <component glyphName="uniF6C9" x="-99" y="0" flags="0x4"/>
    </TTGlyph>
    <TTGlyph name="Lcaron" xMin="-24" yMin="0" xMax="670" yMax="717">
      <component glyphName="L" x="0" y="0" flags="0x4"/>
      <component glyphName="caron.L" x="150" y="0" flags="0x4"/>
    </TTGlyph>
    <TTGlyph name="Lcommaaccent" xMin="-24" yMin="-286" xMax="561" yMax="700">
      <component glyphName="L" x="0" y="0" flags="0x204"/>
      <component glyphName="uniF409" x="171" y="0" flags="0x4"/>
    </TTGlyph>
    <TTGlyph name="Lslash" xMin="-24" yMin="0" xMax="561" yMax="700">
      <contour>
        <pt x="124" y="700" on="1"/>
        <pt x="452" y="700" on="1"/>
        <pt x="444" y="662" on="1"/>
        <pt x="422" y="651" on="0"/>
        <pt x="367" y="636" on="0"/>
        <pt x="342" y="633" on="1"/>
        <pt x="296" y="419" on="1"/>
        <pt x="427" y="490" on="1"/>
        <pt x="410" y="411" on="1"/>
        <pt x="280" y="340" on="1"/>
        <pt x="222" y="65" on="1"/>
        <pt x="415" y="65" on="1"/>
        <pt x="519" y="244" on="1"/>
        <pt x="561" y="244" on="1"/>
        <pt x="561" y="221" on="0"/>
        <pt x="555" y="159" on="0"/>
        <pt x="545" y="91" on="0"/>
        <pt x="532" y="25" on="0"/>
        <pt x="525" y="0" on="1"/>
        <pt x="-24" y="0" on="1"/>
        <pt x="-17" y="38" on="1"/>
        <pt x="9" y="50" on="0"/>
        <pt x="53" y="64" on="0"/>
        <pt x="72" y="67" on="1"/>
        <pt x="110" y="248" on="1"/>
        <pt x="18" y="198" on="1"/>
        <pt x="35" y="277" on="1"/>
        <pt x="127" y="327" on="1"/>
        <pt x="192" y="633" on="1"/>
        <pt x="170" y="637" on="0"/>
        <pt x="130" y="651" on="0"/>
        <pt x="116" y="662" on="1"/>
      </contour>
    </TTGlyph>
    <TTGlyph name="M" xMin="-24" yMin="0" xMax="1013" yMax="700">
      <contour>
        <pt x="864" y="0" on="1"/>
        <pt x="565" y="0" on="1"/>
        <pt x="573" y="38" on="1"/>
        <pt x="595" y="48" on="0"/>
        <pt x="637" y="62" on="0"/>
        <pt x="660" y="67" on="1"/>
        <pt x="748" y="485" on="1"/>
        <pt x="778" y="602" on="1"/>
        <pt x="770" y="602" on="1"/>
        <pt x="715" y="495" on="1"/>
        <pt x="416" y="0" on="1"/>
        <pt x="371" y="0" on="1"/>
        <pt x="282" y="491" on="1"/>
        <pt x="270" y="608" on="1"/>
        <pt x="261" y="608" on="1"/>
        <pt x="235" y="481" on="1"/>
        <pt x="149" y="71" on="1"/>
        <pt x="167" y="67" on="0"/>
        <pt x="210" y="49" on="0"/>
        <pt x="227" y="38" on="1"/>
        <pt x="219" y="0" on="1"/>
        <pt x="-24" y="0" on="1"/>
        <pt x="-17" y="38" on="1"/>
        <pt x="0" y="47" on="0"/>
        <pt x="52" y="68" on="0"/>
        <pt x="75" y="72" on="1"/>
        <pt x="193" y="633" on="1"/>
        <pt x="173" y="637" on="0"/>
        <pt x="132" y="651" on="0"/>
        <pt x="117" y="662" on="1"/>
        <pt x="125" y="700" on="1"/>
        <pt x="396" y="700" on="1"/>
        <pt x="459" y="293" on="1"/>
        <pt x="467" y="197" on="1"/>
        <pt x="468" y="197" on="1"/>
        <pt x="515" y="295" on="1"/>
        <pt x="761" y="700" on="1"/>
        <pt x="1013" y="700" on="1"/>
        <pt x="1005" y="662" on="1"/>
        <pt x="987" y="651" on="0"/>
        <pt x="944" y="637" on="0"/>
        <pt x="923" y="633" on="1"/>
        <pt x="803" y="66" on="1"/>
        <pt x="823" y="62" on="0"/>
        <pt x="859" y="46" on="0"/>
        <pt x="872" y="38" on="1"/>
      </contour>
    </TTGlyph>
    <TTGlyph name="N" xMin="-24" yMin="-12" xMax="842" yMax="700">
      <contour>
        <pt x="595" y="700" on="1"/>
        <pt x="842" y="700" on="1"/>
        <pt x="834" y="662" on="1"/>
        <pt x="811" y="645" on="0"/>
        <pt x="763" y="624" on="0"/>
        <pt x="740" y="618" on="1"/>
        <pt x="606" y="-12" on="1"/>
        <pt x="525" y="-12" on="1"/>
        <pt x="277" y="498" on="1"/>
        <pt x="253" y="575" on="1"/>
        <pt x="250" y="575" on="1"/>
        <pt x="241" y="495" on="1"/>
        <pt x="152" y="78" on="1"/>
        <pt x="170" y="73" on="0"/>
        <pt x="215" y="50" on="0"/>
        <pt x="229" y="38" on="1"/>
        <pt x="222" y="0" on="1"/>
        <pt x="-24" y="0" on="1"/>
        <pt x="-17" y="38" on="1"/>
        <pt x="28" y="66" on="0"/>
        <pt x="76" y="78" on="1"/>
        <pt x="192" y="624" on="1"/>
        <pt x="175" y="631" on="0"/>
        <pt x="136" y="653" on="0"/>
        <pt x="125" y="663" on="1"/>
        <pt x="132" y="700" on="1"/>
        <pt x="344" y="700" on="1"/>
        <pt x="545" y="284" on="1"/>
        <pt x="575" y="198" on="1"/>
        <pt x="579" y="198" on="1"/>
        <pt x="594" y="284" on="1"/>
        <pt x="664" y="618" on="1"/>
        <pt x="642" y="626" on="0"/>
        <pt x="601" y="649" on="0"/>
        <pt x="587" y="662" on="1"/>
      </contour>
    </TTGlyph>
    <TTGlyph name="Nacute" xMin="-24" yMin="-12" xMax="842" yMax="899">
      <component glyphName="N" x="0" y="0" flags="0x204"/>
      <component glyphName="uniF6C9" x="31" y="0" flags="0x4"/>
    </TTGlyph>
    <TTGlyph name="Ncaron" xMin="-24" yMin="-12" xMax="842" yMax="902">
      <component glyphName="N" x="0" y="0" flags="0x204"/>
      <component glyphName="uniF6CA" x="55" y="0" flags="0x4"/>
    </TTGlyph>
    <TTGlyph name="Ncommaaccent" xMin="-24" yMin="-286" xMax="842" yMax="700">
      <component glyphName="N" x="0" y="0" flags="0x204"/>
      <component glyphName="uniF409" x="220" y="0" flags="0x4"/>
    </TTGlyph>
    <TTGlyph name="Ntilde" xMin="-24" yMin="-12" xMax="842" yMax="876">
      <component glyphName="N" x="0" y="0" flags="0x204"/>
      <component glyphName="uniF40D" x="-34" y="0" flags="0x4"/>
    </TTGlyph>
    <TTGlyph name="O" xMin="59" yMin="-12" xMax="756" yMax="712">
      <contour>
        <pt x="59" y="271" on="1"/>
        <pt x="59" y="363" on="0"/>
        <pt x="116" y="524" on="0"/>
        <pt x="223" y="643" on="0"/>
        <pt x="378" y="712" on="0"/>
        <pt x="476" y="712" on="1"/>
        <pt x="543" y="712" on="0"/>
        <pt x="647" y="673" on="0"/>
        <pt x="719" y="600" on="0"/>
        <pt x="756" y="496" on="0"/>
        <pt x="756" y="431" on="1"/>
        <pt x="756" y="349" on="0"/>
        <pt x="706" y="190" on="0"/>
        <pt x="604" y="65" on="0"/>
        <pt x="451" y="-12" on="0"/>
        <pt x="348" y="-12" on="1"/>
        <pt x="279" y="-12" on="0"/>
        <pt x="171" y="31" on="0"/>
        <pt x="97" y="107" on="0"/>
        <pt x="59" y="211" on="0"/>
      </contour>
      <contour>
        <pt x="229" y="252" on="1"/>
        <pt x="229" y="152" on="0"/>
        <pt x="304" y="53" on="0"/>
        <pt x="368" y="53" on="1"/>
        <pt x="425" y="53" on="0"/>
        <pt x="507" y="127" on="0"/>
        <pt x="561" y="242" on="0"/>
        <pt x="586" y="385" on="0"/>
        <pt x="586" y="454" on="1"/>
        <pt x="586" y="543" on="0"/>
        <pt x="525" y="647" on="0"/>
        <pt x="455" y="647" on="1"/>
        <pt x="416" y="647" on="0"/>
        <pt x="353" y="612" on="0"/>
        <pt x="302" y="552" on="0"/>
        <pt x="265" y="473" on="0"/>
        <pt x="241" y="385" on="0"/>
        <pt x="229" y="294" on="0"/>
      </contour>
    </TTGlyph>
    <TTGlyph name="OE" xMin="59" yMin="-12" xMax="1032" yMax="712">
      <contour>
        <pt x="441" y="0" on="1"/>
        <pt x="417" y="-5" on="0"/>
        <pt x="370" y="-12" on="0"/>
        <pt x="346" y="-12" on="1"/>
        <pt x="272" y="-12" on="0"/>
        <pt x="164" y="26" on="0"/>
        <pt x="94" y="97" on="0"/>
        <pt x="59" y="196" on="0"/>
        <pt x="59" y="258" on="1"/>
        <pt x="59" y="352" on="0"/>
        <pt x="114" y="518" on="0"/>
        <pt x="219" y="641" on="0"/>
        <pt x="372" y="712" on="0"/>
        <pt x="471" y="712" on="1"/>
        <pt x="481" y="712" on="0"/>
        <pt x="512" y="710" on="0"/>
        <pt x="545" y="707" on="0"/>
        <pt x="576" y="702" on="0"/>
        <pt x="588" y="700" on="1"/>
        <pt x="1032" y="700" on="1"/>
        <pt x="1021" y="655" on="0"/>
        <pt x="991" y="559" on="0"/>
        <pt x="974" y="517" on="1"/>
        <pt x="932" y="517" on="1"/>
        <pt x="911" y="635" on="1"/>
        <pt x="724" y="635" on="1"/>
        <pt x="672" y="390" on="1"/>
        <pt x="795" y="390" on="1"/>
        <pt x="855" y="467" on="1"/>
        <pt x="886" y="467" on="1"/>
        <pt x="881" y="418" on="0"/>
        <pt x="856" y="298" on="0"/>
        <pt x="840" y="246" on="1"/>
        <pt x="808" y="246" on="1"/>
        <pt x="781" y="325" on="1"/>
        <pt x="658" y="325" on="1"/>
        <pt x="603" y="65" on="1"/>
        <pt x="798" y="65" on="1"/>
        <pt x="878" y="192" on="1"/>
        <pt x="920" y="192" on="1"/>
        <pt x="920" y="173" on="0"/>
        <pt x="917" y="125" on="0"/>
        <pt x="912" y="74" on="0"/>
        <pt x="904" y="22" on="0"/>
        <pt x="899" y="0" on="1"/>
      </contour>
      <contour>
        <pt x="357" y="53" on="1"/>
        <pt x="381" y="53" on="0"/>
        <pt x="433" y="66" on="0"/>
        <pt x="456" y="77" on="1"/>
        <pt x="570" y="617" on="1"/>
        <pt x="550" y="630" on="0"/>
        <pt x="496" y="647" on="0"/>
        <pt x="465" y="647" on="1"/>
        <pt x="409" y="647" on="0"/>
        <pt x="322" y="576" on="0"/>
        <pt x="261" y="460" on="0"/>
        <pt x="229" y="312" on="0"/>
        <pt x="229" y="236" on="1"/>
        <pt x="229" y="195" on="0"/>
        <pt x="241" y="127" on="0"/>
        <pt x="271" y="79" on="0"/>
        <pt x="320" y="53" on="0"/>
      </contour>
    </TTGlyph>
    <TTGlyph name="Oacute" xMin="59" yMin="-12" xMax="756" yMax="899">
      <component glyphName="O" x="0" y="0" flags="0x204"/>
      <component glyphName="uniF6C9" x="33" y="0" flags="0x4"/>
    </TTGlyph>
    <TTGlyph name="Ocircumflex" xMin="59" yMin="-12" xMax="756" yMax="895">
      <component glyphName="O" x="0" y="0" flags="0x204"/>
      <component glyphName="uniF408" x="52" y="0" flags="0x4"/>
    </TTGlyph>
    <TTGlyph name="Odieresis" xMin="59" yMin="-12" xMax="756" yMax="857">
      <component glyphName="O" x="0" y="0" flags="0x204"/>
      <component glyphName="uniF6CB" x="68" y="0" flags="0x4"/>
    </TTGlyph>
    <TTGlyph name="Ograve" xMin="59" yMin="-12" xMax="756" yMax="901">
      <component glyphName="O" x="0" y="0" flags="0x204"/>
      <component glyphName="uniF6CE" x="123" y="0" flags="0x4"/>
    </TTGlyph>
    <TTGlyph name="Ohungarumlaut" xMin="59" yMin="-12" xMax="756" yMax="889">
      <component glyphName="O" x="0" y="0" flags="0x204"/>
      <component glyphName="uniF6CF" x="33" y="0" flags="0x4"/>
    </TTGlyph>
    <TTGlyph name="Omacron" xMin="59" yMin="-12" xMax="756" yMax="849">
      <component glyphName="O" x="0" y="0" flags="0x204"/>
      <component glyphName="uniF6D0" x="52" y="0" flags="0x4"/>
    </TTGlyph>
    <TTGlyph name="Oslash" xMin="59" yMin="-18" xMax="756" yMax="718">
      <contour>
        <pt x="59" y="271" on="1"/>
        <pt x="59" y="363" on="0"/>
        <pt x="116" y="524" on="0"/>
        <pt x="223" y="643" on="0"/>
        <pt x="378" y="712" on="0"/>
        <pt x="476" y="712" on="1"/>
        <pt x="524" y="712" on="0"/>
        <pt x="604" y="692" on="0"/>
        <pt x="636" y="673" on="1"/>
        <pt x="674" y="718" on="1"/>
        <pt x="724" y="677" on="1"/>
        <pt x="687" y="633" on="1"/>
        <pt x="722" y="596" on="0"/>
        <pt x="756" y="494" on="0"/>
        <pt x="756" y="431" on="1"/>
        <pt x="756" y="349" on="0"/>
        <pt x="706" y="190" on="0"/>
        <pt x="604" y="65" on="0"/>
        <pt x="451" y="-12" on="0"/>
        <pt x="348" y="-12" on="1"/>
        <pt x="297" y="-12" on="0"/>
        <pt x="213" y="12" on="0"/>
        <pt x="180" y="33" on="1"/>
        <pt x="136" y="-18" on="1"/>
        <pt x="87" y="25" on="1"/>
        <pt x="129" y="74" on="1"/>
        <pt x="94" y="112" on="0"/>
        <pt x="59" y="212" on="0"/>
      </contour>
      <contour>
        <pt x="368" y="53" on="1"/>
        <pt x="421" y="53" on="0"/>
        <pt x="497" y="112" on="0"/>
        <pt x="548" y="208" on="0"/>
        <pt x="576" y="328" on="0"/>
        <pt x="581" y="389" on="1"/>
        <pt x="584" y="446" on="0"/>
        <pt x="573" y="498" on="1"/>
        <pt x="258" y="126" on="1"/>
        <pt x="292" y="53" on="0"/>
      </contour>
      <contour>
        <pt x="455" y="647" on="1"/>
        <pt x="402" y="647" on="0"/>
        <pt x="323" y="586" on="0"/>
        <pt x="268" y="489" on="0"/>
        <pt x="238" y="370" on="0"/>
        <pt x="234" y="312" on="1"/>
        <pt x="231" y="256" on="0"/>
        <pt x="242" y="207" on="1"/>
        <pt x="557" y="580" on="1"/>
        <pt x="543" y="612" on="0"/>
        <pt x="493" y="647" on="0"/>
      </contour>
    </TTGlyph>
    <TTGlyph name="Otilde" xMin="59" yMin="-12" xMax="756" yMax="876">
      <component glyphName="O" x="0" y="0" flags="0x204"/>
      <component glyphName="uniF40D" x="-29" y="0" flags="0x4"/>
    </TTGlyph>
    <TTGlyph name="P" xMin="-24" yMin="0" xMax="678" yMax="708">
      <contour>
        <pt x="222" y="67" on="1"/>
        <pt x="248" y="63" on="0"/>
        <pt x="297" y="48" on="0"/>
        <pt x="316" y="38" on="1"/>
        <pt x="309" y="0" on="1"/>
        <pt x="-24" y="0" on="1"/>
        <pt x="-17" y="38" on="1"/>
        <pt x="27" y="59" on="0"/>
        <pt x="72" y="67" on="1"/>
        <pt x="192" y="633" on="1"/>
        <pt x="170" y="637" on="0"/>
        <pt x="132" y="652" on="0"/>
        <pt x="116" y="662" on="1"/>
        <pt x="124" y="700" on="1"/>
        <pt x="250" y="700" on="1"/>
        <pt x="290" y="700" on="0"/>
        <pt x="395" y="708" on="0"/>
        <pt x="438" y="708" on="1"/>
        <pt x="490" y="708" on="0"/>
        <pt x="579" y="690" on="0"/>
        <pt x="642" y="651" on="0"/>
        <pt x="678" y="587" on="0"/>
        <pt x="678" y="541" on="1"/>
        <pt x="678" y="482" on="0"/>
        <pt x="634" y="381" on="0"/>
        <pt x="550" y="307" on="0"/>
        <pt x="428" y="264" on="0"/>
        <pt x="351" y="264" on="1"/>
        <pt x="346" y="264" on="0"/>
        <pt x="323" y="264" on="0"/>
        <pt x="296" y="265" on="0"/>
        <pt x="271" y="266" on="0"/>
        <pt x="264" y="267" on="1"/>
      </contour>
      <contour>
        <pt x="401" y="643" on="1"/>
        <pt x="381" y="643" on="0"/>
        <pt x="354" y="639" on="0"/>
        <pt x="343" y="637" on="1"/>
        <pt x="278" y="333" on="1"/>
        <pt x="287" y="331" on="0"/>
        <pt x="323" y="329" on="0"/>
        <pt x="334" y="329" on="1"/>
        <pt x="377" y="329" on="0"/>
        <pt x="443" y="360" on="0"/>
        <pt x="488" y="417" on="0"/>
        <pt x="512" y="494" on="0"/>
        <pt x="512" y="541" on="1"/>
        <pt x="512" y="564" on="0"/>
        <pt x="501" y="602" on="0"/>
        <pt x="476" y="629" on="0"/>
        <pt x="433" y="643" on="0"/>
      </contour>
    </TTGlyph>
    <TTGlyph name="Q" xMin="59" yMin="-210" xMax="756" yMax="712">
      <contour>
        <pt x="755" y="-112" on="1"/>
        <pt x="733" y="-131" on="0"/>
        <pt x="685" y="-166" on="0"/>
        <pt x="633" y="-194" on="0"/>
        <pt x="580" y="-210" on="0"/>
        <pt x="553" y="-210" on="1"/>
        <pt x="507" y="-210" on="0"/>
        <pt x="421" y="-177" on="0"/>
        <pt x="330" y="-134" on="0"/>
        <pt x="227" y="-94" on="0"/>
        <pt x="164" y="-86" on="1"/>
        <pt x="198" y="-42" on="1"/>
        <pt x="248" y="-33" on="0"/>
        <pt x="339" y="-42" on="0"/>
        <pt x="425" y="-63" on="0"/>
        <pt x="510" y="-89" on="0"/>
        <pt x="599" y="-105" on="0"/>
        <pt x="695" y="-104" on="0"/>
        <pt x="750" y="-87" on="1"/>
      </contour>
      <contour>
        <pt x="59" y="271" on="1"/>
        <pt x="59" y="363" on="0"/>
        <pt x="116" y="524" on="0"/>
        <pt x="223" y="643" on="0"/>
        <pt x="378" y="712" on="0"/>
        <pt x="476" y="712" on="1"/>
        <pt x="543" y="712" on="0"/>
        <pt x="647" y="673" on="0"/>
        <pt x="719" y="600" on="0"/>
        <pt x="756" y="496" on="0"/>
        <pt x="756" y="431" on="1"/>
        <pt x="756" y="349" on="0"/>
        <pt x="706" y="190" on="0"/>
        <pt x="604" y="65" on="0"/>
        <pt x="451" y="-12" on="0"/>
        <pt x="348" y="-12" on="1"/>
        <pt x="279" y="-12" on="0"/>
        <pt x="171" y="31" on="0"/>
        <pt x="97" y="107" on="0"/>
        <pt x="59" y="211" on="0"/>
      </contour>
      <contour>
        <pt x="229" y="252" on="1"/>
        <pt x="229" y="152" on="0"/>
        <pt x="304" y="53" on="0"/>
        <pt x="368" y="53" on="1"/>
        <pt x="425" y="53" on="0"/>
        <pt x="507" y="127" on="0"/>
        <pt x="561" y="242" on="0"/>
        <pt x="586" y="385" on="0"/>
        <pt x="586" y="454" on="1"/>
        <pt x="586" y="543" on="0"/>
        <pt x="525" y="647" on="0"/>
        <pt x="455" y="647" on="1"/>
        <pt x="416" y="647" on="0"/>
        <pt x="353" y="612" on="0"/>
        <pt x="302" y="552" on="0"/>
        <pt x="265" y="473" on="0"/>
        <pt x="241" y="385" on="0"/>
        <pt x="229" y="294" on="0"/>
      </contour>
    </TTGlyph>
    <TTGlyph name="R" xMin="-24" yMin="0" xMax="659" yMax="708">
      <contour>
        <pt x="222" y="67" on="1"/>
        <pt x="243" y="61" on="0"/>
        <pt x="277" y="46" on="0"/>
        <pt x="291" y="38" on="1"/>
        <pt x="284" y="0" on="1"/>
        <pt x="-24" y="0" on="1"/>
        <pt x="-17" y="38" on="1"/>
        <pt x="8" y="50" on="0"/>
        <pt x="51" y="63" on="0"/>
        <pt x="72" y="67" on="1"/>
        <pt x="192" y="633" on="1"/>
        <pt x="143" y="644" on="0"/>
        <pt x="116" y="662" on="1"/>
        <pt x="124" y="700" on="1"/>
        <pt x="230" y="700" on="1"/>
        <pt x="250" y="700" on="0"/>
        <pt x="301" y="702" on="0"/>
        <pt x="357" y="705" on="0"/>
        <pt x="415" y="708" on="0"/>
        <pt x="441" y="708" on="1"/>
        <pt x="552" y="708" on="0"/>
        <pt x="659" y="622" on="0"/>
        <pt x="659" y="543" on="1"/>
        <pt x="659" y="506" on="0"/>
        <pt x="635" y="437" on="0"/>
        <pt x="588" y="378" on="0"/>
        <pt x="519" y="333" on="0"/>
        <pt x="473" y="320" on="1"/>
        <pt x="499" y="257" on="0"/>
        <pt x="576" y="127" on="0"/>
        <pt x="613" y="66" on="1"/>
        <pt x="655" y="34" on="1"/>
        <pt x="648" y="0" on="1"/>
        <pt x="489" y="0" on="1"/>
        <pt x="452" y="33" on="1"/>
        <pt x="418" y="88" on="0"/>
        <pt x="361" y="233" on="0"/>
        <pt x="348" y="303" on="1"/>
        <pt x="272" y="303" on="1"/>
      </contour>
      <contour>
        <pt x="395" y="643" on="1"/>
        <pt x="379" y="643" on="0"/>
        <pt x="353" y="639" on="0"/>
        <pt x="342" y="637" on="1"/>
        <pt x="283" y="358" on="1"/>
        <pt x="341" y="358" on="1"/>
        <pt x="382" y="358" on="0"/>
        <pt x="443" y="389" on="0"/>
        <pt x="483" y="442" on="0"/>
        <pt x="503" y="510" on="0"/>
        <pt x="503" y="548" on="1"/>
        <pt x="504" y="599" on="0"/>
        <pt x="451" y="643" on="0"/>
      </contour>
    </TTGlyph>
    <TTGlyph name="Racute" xMin="-24" yMin="0" xMax="659" yMax="899">
      <component glyphName="R" x="0" y="0" flags="0x204"/>
      <component glyphName="uniF6C9" x="-19" y="0" flags="0x4"/>
    </TTGlyph>
    <TTGlyph name="Rcaron" xMin="-24" yMin="0" xMax="659" yMax="902">
      <component glyphName="R" x="0" y="0" flags="0x204"/>
      <component glyphName="uniF6CA" x="-26" y="0" flags="0x4"/>
    </TTGlyph>
    <TTGlyph name="Rcommaaccent" xMin="-24" yMin="-286" xMax="659" yMax="708">
      <component glyphName="R" x="0" y="0" flags="0x204"/>
      <component glyphName="uniF409" x="205" y="0" flags="0x4"/>
    </TTGlyph>
    <TTGlyph name="S" xMin="15" yMin="-12" xMax="601" yMax="712">
      <contour>
        <pt x="140" y="83" on="1"/>
        <pt x="150" y="73" on="0"/>
        <pt x="202" y="53" on="0"/>
        <pt x="231" y="53" on="1"/>
        <pt x="262" y="53" on="0"/>
        <pt x="316" y="64" on="0"/>
        <pt x="355" y="88" on="0"/>
        <pt x="377" y="127" on="0"/>
        <pt x="377" y="155" on="1"/>
        <pt x="377" y="191" on="0"/>
        <pt x="339" y="242" on="0"/>
        <pt x="283" y="284" on="0"/>
        <pt x="216" y="325" on="0"/>
        <pt x="160" y="377" on="0"/>
        <pt x="122" y="447" on="0"/>
        <pt x="122" y="498" on="1"/>
        <pt x="122" y="551" on="0"/>
        <pt x="164" y="631" on="0"/>
        <pt x="238" y="685" on="0"/>
        <pt x="340" y="712" on="0"/>
        <pt x="401" y="712" on="1"/>
        <pt x="462" y="712" on="0"/>
        <pt x="563" y="695" on="0"/>
        <pt x="601" y="677" on="1"/>
        <pt x="596" y="657" on="0"/>
        <pt x="580" y="605" on="0"/>
        <pt x="561" y="554" on="0"/>
        <pt x="542" y="509" on="0"/>
        <pt x="535" y="494" on="1"/>
        <pt x="494" y="494" on="1"/>
        <pt x="477" y="631" on="1"/>
        <pt x="463" y="639" on="0"/>
        <pt x="416" y="647" on="0"/>
        <pt x="391" y="647" on="1"/>
        <pt x="365" y="647" on="0"/>
        <pt x="320" y="636" on="0"/>
        <pt x="287" y="613" on="0"/>
        <pt x="267" y="577" on="0"/>
        <pt x="267" y="552" on="1"/>
        <pt x="267" y="517" on="0"/>
        <pt x="306" y="465" on="0"/>
        <pt x="363" y="422" on="0"/>
        <pt x="431" y="379" on="0"/>
        <pt x="488" y="326" on="0"/>
        <pt x="527" y="256" on="0"/>
        <pt x="527" y="207" on="1"/>
        <pt x="527" y="101" on="0"/>
        <pt x="370" y="-12" on="0"/>
        <pt x="224" y="-12" on="1"/>
        <pt x="192" y="-12" on="0"/>
        <pt x="127" y="-4" on="0"/>
        <pt x="69" y="10" on="0"/>
        <pt x="25" y="26" on="0"/>
        <pt x="15" y="35" on="1"/>
        <pt x="21" y="59" on="0"/>
        <pt x="39" y="112" on="0"/>
        <pt x="59" y="165" on="0"/>
        <pt x="80" y="212" on="0"/>
        <pt x="89" y="230" on="1"/>
        <pt x="130" y="230" on="1"/>
      </contour>
    </TTGlyph>
    <TTGlyph name="Sacute" xMin="15" yMin="-12" xMax="602" yMax="899">
      <component glyphName="S" x="0" y="0" flags="0x204"/>
      <component glyphName="uniF6C9" x="-28" y="0" flags="0x4"/>
    </TTGlyph>
    <TTGlyph name="Scaron" xMin="15" yMin="-12" xMax="607" yMax="902">
      <component glyphName="S" x="0" y="0" flags="0x204"/>
      <component glyphName="uniF6CA" x="-26" y="0" flags="0x4"/>
    </TTGlyph>
    <TTGlyph name="Scedilla" xMin="15" yMin="-285" xMax="601" yMax="712">
      <contour>
        <pt x="140" y="83" on="1"/>
        <pt x="150" y="73" on="0"/>
        <pt x="202" y="53" on="0"/>
        <pt x="231" y="53" on="1"/>
        <pt x="262" y="53" on="0"/>
        <pt x="316" y="64" on="0"/>
        <pt x="355" y="88" on="0"/>
        <pt x="377" y="127" on="0"/>
        <pt x="377" y="155" on="1"/>
        <pt x="377" y="191" on="0"/>
        <pt x="339" y="242" on="0"/>
        <pt x="283" y="284" on="0"/>
        <pt x="216" y="325" on="0"/>
        <pt x="160" y="377" on="0"/>
        <pt x="122" y="447" on="0"/>
        <pt x="122" y="498" on="1"/>
        <pt x="122" y="551" on="0"/>
        <pt x="164" y="631" on="0"/>
        <pt x="238" y="685" on="0"/>
        <pt x="340" y="712" on="0"/>
        <pt x="401" y="712" on="1"/>
        <pt x="462" y="712" on="0"/>
        <pt x="563" y="695" on="0"/>
        <pt x="601" y="677" on="1"/>
        <pt x="596" y="657" on="0"/>
        <pt x="580" y="605" on="0"/>
        <pt x="561" y="554" on="0"/>
        <pt x="542" y="509" on="0"/>
        <pt x="535" y="494" on="1"/>
        <pt x="494" y="494" on="1"/>
        <pt x="477" y="631" on="1"/>
        <pt x="463" y="639" on="0"/>
        <pt x="416" y="647" on="0"/>
        <pt x="391" y="647" on="1"/>
        <pt x="365" y="647" on="0"/>
        <pt x="320" y="636" on="0"/>
        <pt x="287" y="613" on="0"/>
        <pt x="267" y="577" on="0"/>
        <pt x="267" y="552" on="1"/>
        <pt x="267" y="517" on="0"/>
        <pt x="306" y="465" on="0"/>
        <pt x="363" y="422" on="0"/>
        <pt x="431" y="379" on="0"/>
        <pt x="488" y="326" on="0"/>
        <pt x="527" y="256" on="0"/>
        <pt x="527" y="207" on="1"/>
        <pt x="527" y="107" on="0"/>
        <pt x="388" y="-4" on="0"/>
        <pt x="259" y="-11" on="1"/>
        <pt x="224" y="-70" on="1"/>
        <pt x="282" y="-72" on="0"/>
        <pt x="332" y="-112" on="0"/>
        <pt x="332" y="-147" on="1"/>
        <pt x="332" y="-185" on="0"/>
        <pt x="281" y="-237" on="0"/>
        <pt x="209" y="-270" on="0"/>
        <pt x="129" y="-285" on="0"/>
        <pt x="100" y="-285" on="1"/>
        <pt x="100" y="-239" on="1"/>
        <pt x="118" y="-237" on="0"/>
        <pt x="153" y="-227" on="0"/>
        <pt x="182" y="-209" on="0"/>
        <pt x="199" y="-184" on="0"/>
        <pt x="199" y="-167" on="1"/>
        <pt x="198" y="-149" on="0"/>
        <pt x="178" y="-127" on="0"/>
        <pt x="143" y="-125" on="1"/>
        <pt x="196" y="-11" on="1"/>
        <pt x="167" y="-10" on="0"/>
        <pt x="110" y="-1" on="0"/>
        <pt x="61" y="12" on="0"/>
        <pt x="24" y="27" on="0"/>
        <pt x="15" y="35" on="1"/>
        <pt x="21" y="59" on="0"/>
        <pt x="39" y="112" on="0"/>
        <pt x="59" y="165" on="0"/>
        <pt x="80" y="212" on="0"/>
        <pt x="89" y="230" on="1"/>
        <pt x="130" y="230" on="1"/>
      </contour>
    </TTGlyph>
    <TTGlyph name="Scircumflex" xMin="15" yMin="-12" xMax="601" yMax="895">
      <component glyphName="S" x="0" y="0" flags="0x204"/>
      <component glyphName="uniF408" x="-25" y="0" flags="0x4"/>
    </TTGlyph>
    <TTGlyph name="Scommaaccent" xMin="15" yMin="-286" xMax="601" yMax="712">
      <component glyphName="S" x="0" y="0" flags="0x204"/>
      <component glyphName="uniF409" x="128" y="0" flags="0x4"/>
    </TTGlyph>
    <TTGlyph name="T" xMin="91" yMin="0" xMax="756" yMax="700">
      <contour>
        <pt x="461" y="0" on="1"/>
        <pt x="117" y="0" on="1"/>
        <pt x="125" y="38" on="1"/>
        <pt x="147" y="47" on="0"/>
        <pt x="201" y="63" on="0"/>
        <pt x="228" y="67" on="1"/>
        <pt x="349" y="635" on="1"/>
        <pt x="233" y="635" on="1"/>
        <pt x="132" y="464" on="1"/>
        <pt x="91" y="464" on="1"/>
        <pt x="91" y="484" on="0"/>
        <pt x="96" y="546" on="0"/>
        <pt x="103" y="612" on="0"/>
        <pt x="113" y="677" on="0"/>
        <pt x="119" y="700" on="1"/>
        <pt x="756" y="700" on="1"/>
        <pt x="751" y="676" on="0"/>
        <pt x="734" y="612" on="0"/>
        <pt x="714" y="546" on="0"/>
        <pt x="693" y="485" on="0"/>
        <pt x="684" y="464" on="1"/>
        <pt x="642" y="464" on="1"/>
        <pt x="615" y="635" on="1"/>
        <pt x="499" y="635" on="1"/>
        <pt x="378" y="67" on="1"/>
        <pt x="403" y="62" on="0"/>
        <pt x="451" y="48" on="0"/>
        <pt x="469" y="38" on="1"/>
      </contour>
    </TTGlyph>
    <TTGlyph name="Tcaron" xMin="91" yMin="0" xMax="756" yMax="902">
      <component glyphName="T" x="0" y="0" flags="0x204"/>
      <component glyphName="uniF6CA" x="10" y="0" flags="0x4"/>
    </TTGlyph>
    <TTGlyph name="Tcedilla" xMin="91" yMin="-285" xMax="756" yMax="700">
      <contour>
        <pt x="461" y="0" on="1"/>
        <pt x="320" y="0" on="1"/>
        <pt x="278" y="-70" on="1"/>
        <pt x="336" y="-72" on="0"/>
        <pt x="386" y="-112" on="0"/>
        <pt x="386" y="-147" on="1"/>
        <pt x="386" y="-185" on="0"/>
        <pt x="335" y="-237" on="0"/>
        <pt x="263" y="-270" on="0"/>
        <pt x="183" y="-285" on="0"/>
        <pt x="154" y="-285" on="1"/>
        <pt x="154" y="-239" on="1"/>
        <pt x="172" y="-237" on="0"/>
        <pt x="207" y="-227" on="0"/>
        <pt x="236" y="-209" on="0"/>
        <pt x="253" y="-184" on="0"/>
        <pt x="253" y="-167" on="1"/>
        <pt x="252" y="-149" on="0"/>
        <pt x="232" y="-127" on="0"/>
        <pt x="197" y="-125" on="1"/>
        <pt x="256" y="0" on="1"/>
        <pt x="117" y="0" on="1"/>
        <pt x="125" y="38" on="1"/>
        <pt x="147" y="47" on="0"/>
        <pt x="201" y="63" on="0"/>
        <pt x="228" y="67" on="1"/>
        <pt x="349" y="635" on="1"/>
        <pt x="233" y="635" on="1"/>
        <pt x="132" y="464" on="1"/>
        <pt x="91" y="464" on="1"/>
        <pt x="91" y="484" on="0"/>
        <pt x="96" y="546" on="0"/>
        <pt x="103" y="612" on="0"/>
        <pt x="113" y="677" on="0"/>
        <pt x="119" y="700" on="1"/>
        <pt x="756" y="700" on="1"/>
        <pt x="751" y="676" on="0"/>
        <pt x="734" y="612" on="0"/>
        <pt x="714" y="546" on="0"/>
        <pt x="693" y="485" on="0"/>
        <pt x="684" y="464" on="1"/>
        <pt x="642" y="464" on="1"/>
        <pt x="615" y="635" on="1"/>
        <pt x="499" y="635" on="1"/>
        <pt x="378" y="67" on="1"/>
        <pt x="403" y="62" on="0"/>
        <pt x="451" y="48" on="0"/>
        <pt x="469" y="38" on="1"/>
      </contour>
    </TTGlyph>
    <TTGlyph name="Tcommaaccent" xMin="91" yMin="-286" xMax="756" yMax="700">
      <component glyphName="T" x="0" y="0" flags="0x204"/>
      <component glyphName="uniF409" x="185" y="0" flags="0x4"/>
    </TTGlyph>
    <TTGlyph name="Thorn" xMin="-24" yMin="0" xMax="652" yMax="700">
      <contour>
        <pt x="221" y="63" on="1"/>
        <pt x="247" y="60" on="0"/>
        <pt x="298" y="43" on="0"/>
        <pt x="315" y="33" on="1"/>
        <pt x="309" y="0" on="1"/>
        <pt x="-24" y="0" on="1"/>
        <pt x="-18" y="33" on="1"/>
        <pt x="26" y="54" on="0"/>
        <pt x="71" y="62" on="1"/>
        <pt x="193" y="638" on="1"/>
        <pt x="173" y="641" on="0"/>
        <pt x="133" y="657" on="0"/>
        <pt x="117" y="667" on="1"/>
        <pt x="124" y="700" on="1"/>
        <pt x="437" y="700" on="1"/>
        <pt x="430" y="667" on="1"/>
        <pt x="410" y="656" on="0"/>
        <pt x="363" y="641" on="0"/>
        <pt x="343" y="638" on="1"/>
        <pt x="334" y="593" on="1"/>
        <pt x="355" y="595" on="0"/>
        <pt x="402" y="598" on="0"/>
        <pt x="421" y="598" on="1"/>
        <pt x="530" y="598" on="0"/>
        <pt x="652" y="518" on="0"/>
        <pt x="652" y="434" on="1"/>
        <pt x="652" y="373" on="0"/>
        <pt x="603" y="276" on="0"/>
        <pt x="516" y="208" on="0"/>
        <pt x="395" y="172" on="0"/>
        <pt x="324" y="172" on="1"/>
        <pt x="319" y="172" on="0"/>
        <pt x="297" y="172" on="0"/>
        <pt x="272" y="173" on="0"/>
        <pt x="250" y="174" on="0"/>
        <pt x="245" y="175" on="1"/>
      </contour>
      <contour>
        <pt x="375" y="533" on="1"/>
        <pt x="355" y="533" on="0"/>
        <pt x="331" y="530" on="0"/>
        <pt x="320" y="527" on="1"/>
        <pt x="258" y="241" on="1"/>
        <pt x="267" y="238" on="0"/>
        <pt x="303" y="237" on="0"/>
        <pt x="314" y="237" on="1"/>
        <pt x="354" y="237" on="0"/>
        <pt x="417" y="265" on="0"/>
        <pt x="462" y="316" on="0"/>
        <pt x="486" y="385" on="0"/>
        <pt x="486" y="426" on="1"/>
        <pt x="486" y="478" on="0"/>
        <pt x="437" y="533" on="0"/>
      </contour>
    </TTGlyph>
    <TTGlyph name="U" xMin="76" yMin="-9" xMax="815" yMax="700">
      <contour>
        <pt x="112" y="700" on="1"/>
        <pt x="420" y="700" on="1"/>
        <pt x="412" y="662" on="1"/>
        <pt x="376" y="641" on="0"/>
        <pt x="330" y="633" on="1"/>
        <pt x="251" y="260" on="1"/>
        <pt x="231" y="162" on="0"/>
        <pt x="301" y="74" on="0"/>
        <pt x="376" y="74" on="1"/>
        <pt x="446" y="74" on="0"/>
        <pt x="540" y="155" on="0"/>
        <pt x="561" y="253" on="1"/>
        <pt x="640" y="628" on="1"/>
        <pt x="617" y="633" on="0"/>
        <pt x="572" y="651" on="0"/>
        <pt x="559" y="662" on="1"/>
        <pt x="567" y="700" on="1"/>
        <pt x="815" y="700" on="1"/>
        <pt x="807" y="662" on="1"/>
        <pt x="789" y="649" on="0"/>
        <pt x="740" y="633" on="0"/>
        <pt x="717" y="628" on="1"/>
        <pt x="637" y="252" on="1"/>
        <pt x="610" y="123" on="0"/>
        <pt x="467" y="-9" on="0"/>
        <pt x="334" y="-9" on="1"/>
        <pt x="191" y="-9" on="0"/>
        <pt x="76" y="141" on="0"/>
        <pt x="104" y="271" on="1"/>
        <pt x="180" y="633" on="1"/>
        <pt x="160" y="637" on="0"/>
        <pt x="117" y="651" on="0"/>
        <pt x="104" y="662" on="1"/>
      </contour>
    </TTGlyph>
    <TTGlyph name="Uacute" xMin="76" yMin="-9" xMax="815" yMax="899">
      <component glyphName="U" x="0" y="0" flags="0x204"/>
      <component glyphName="uniF6C9" x="108" y="0" flags="0x4"/>
    </TTGlyph>
    <TTGlyph name="Ubreve" xMin="76" yMin="-9" xMax="815" yMax="902">
      <component glyphName="U" x="0" y="0" flags="0x204"/>
      <component glyphName="uniF406" x="54" y="0" flags="0x4"/>
    </TTGlyph>
    <TTGlyph name="Ucircumflex" xMin="76" yMin="-9" xMax="815" yMax="895">
      <component glyphName="U" x="0" y="0" flags="0x204"/>
      <component glyphName="uniF408" x="58" y="0" flags="0x4"/>
    </TTGlyph>
    <TTGlyph name="Udieresis" xMin="76" yMin="-9" xMax="815" yMax="857">
      <component glyphName="U" x="0" y="0" flags="0x204"/>
      <component glyphName="uniF6CB" x="83" y="0" flags="0x4"/>
    </TTGlyph>
    <TTGlyph name="Ugrave" xMin="76" yMin="-9" xMax="815" yMax="901">
      <component glyphName="U" x="0" y="0" flags="0x204"/>
      <component glyphName="uniF6CE" x="104" y="0" flags="0x4"/>
    </TTGlyph>
    <TTGlyph name="Uhungarumlaut" xMin="76" yMin="-9" xMax="815" yMax="889">
      <component glyphName="U" x="0" y="0" flags="0x204"/>
      <component glyphName="uniF6CF" x="70" y="0" flags="0x4"/>
    </TTGlyph>
    <TTGlyph name="Umacron" xMin="76" yMin="-9" xMax="815" yMax="849">
      <component glyphName="U" x="0" y="0" flags="0x204"/>
      <component glyphName="uniF6D0" x="53" y="0" flags="0x4"/>
    </TTGlyph>
    <TTGlyph name="Uogonek" xMin="76" yMin="-255" xMax="815" yMax="700">
      <contour>
        <pt x="112" y="700" on="1"/>
        <pt x="420" y="700" on="1"/>
        <pt x="412" y="662" on="1"/>
        <pt x="376" y="641" on="0"/>
        <pt x="330" y="633" on="1"/>
        <pt x="251" y="260" on="1"/>
        <pt x="231" y="162" on="0"/>
        <pt x="301" y="74" on="0"/>
        <pt x="376" y="74" on="1"/>
        <pt x="446" y="74" on="0"/>
        <pt x="540" y="155" on="0"/>
        <pt x="561" y="253" on="1"/>
        <pt x="640" y="628" on="1"/>
        <pt x="617" y="633" on="0"/>
        <pt x="572" y="651" on="0"/>
        <pt x="559" y="662" on="1"/>
        <pt x="567" y="700" on="1"/>
        <pt x="815" y="700" on="1"/>
        <pt x="807" y="662" on="1"/>
        <pt x="789" y="649" on="0"/>
        <pt x="740" y="633" on="0"/>
        <pt x="717" y="628" on="1"/>
        <pt x="637" y="252" on="1"/>
        <pt x="617" y="155" on="0"/>
        <pt x="529" y="34" on="0"/>
        <pt x="454" y="8" on="1"/>
        <pt x="430" y="-5" on="0"/>
        <pt x="390" y="-40" on="0"/>
        <pt x="361" y="-79" on="0"/>
        <pt x="344" y="-118" on="0"/>
        <pt x="344" y="-135" on="1"/>
        <pt x="344" y="-161" on="0"/>
        <pt x="376" y="-189" on="0"/>
        <pt x="398" y="-189" on="1"/>
        <pt x="410" y="-189" on="0"/>
        <pt x="432" y="-187" on="0"/>
        <pt x="444" y="-184" on="1"/>
        <pt x="444" y="-227" on="1"/>
        <pt x="430" y="-238" on="0"/>
        <pt x="376" y="-255" on="0"/>
        <pt x="344" y="-255" on="1"/>
        <pt x="283" y="-255" on="0"/>
        <pt x="217" y="-198" on="0"/>
        <pt x="217" y="-157" on="1"/>
        <pt x="217" y="-108" on="0"/>
        <pt x="288" y="-35" on="0"/>
        <pt x="346" y="-9" on="1"/>
        <pt x="334" y="-9" on="1"/>
        <pt x="191" y="-9" on="0"/>
        <pt x="76" y="141" on="0"/>
        <pt x="104" y="271" on="1"/>
        <pt x="180" y="633" on="1"/>
        <pt x="160" y="637" on="0"/>
        <pt x="117" y="651" on="0"/>
        <pt x="104" y="662" on="1"/>
      </contour>
    </TTGlyph>
    <TTGlyph name="Uring" xMin="76" yMin="-9" xMax="815" yMax="878">
      <component glyphName="U" x="0" y="0" flags="0x204"/>
      <component glyphName="uniF40C" x="85" y="0" flags="0x4"/>
    </TTGlyph>
    <TTGlyph name="V" xMin="96" yMin="-12" xMax="836" yMax="700">
      <contour>
        <pt x="652" y="633" on="1"/>
        <pt x="629" y="638" on="0"/>
        <pt x="588" y="652" on="0"/>
        <pt x="574" y="662" on="1"/>
        <pt x="582" y="700" on="1"/>
        <pt x="836" y="700" on="1"/>
        <pt x="828" y="662" on="1"/>
        <pt x="814" y="654" on="0"/>
        <pt x="773" y="638" on="0"/>
        <pt x="750" y="633" on="1"/>
        <pt x="386" y="0" on="1"/>
        <pt x="286" y="-12" on="1"/>
        <pt x="165" y="633" on="1"/>
        <pt x="144" y="638" on="0"/>
        <pt x="107" y="653" on="0"/>
        <pt x="96" y="662" on="1"/>
        <pt x="104" y="700" on="1"/>
        <pt x="434" y="700" on="1"/>
        <pt x="426" y="662" on="1"/>
        <pt x="408" y="653" on="0"/>
        <pt x="362" y="638" on="0"/>
        <pt x="338" y="633" on="1"/>
        <pt x="395" y="239" on="1"/>
        <pt x="398" y="145" on="1"/>
        <pt x="400" y="145" on="1"/>
        <pt x="442" y="241" on="1"/>
      </contour>
    </TTGlyph>
    <TTGlyph name="W" xMin="96" yMin="-12" xMax="1136" yMax="700">
      <contour>
        <pt x="955" y="633" on="1"/>
        <pt x="935" y="636" on="0"/>
        <pt x="893" y="651" on="0"/>
        <pt x="876" y="662" on="1"/>
        <pt x="884" y="700" on="1"/>
        <pt x="1136" y="700" on="1"/>
        <pt x="1128" y="662" on="1"/>
        <pt x="1110" y="651" on="0"/>
        <pt x="1068" y="637" on="0"/>
        <pt x="1049" y="633" on="1"/>
        <pt x="738" y="0" on="1"/>
        <pt x="631" y="-12" on="1"/>
        <pt x="579" y="472" on="1"/>
        <pt x="328" y="0" on="1"/>
        <pt x="221" y="-12" on="1"/>
        <pt x="163" y="633" on="1"/>
        <pt x="122" y="642" on="0"/>
        <pt x="96" y="662" on="1"/>
        <pt x="104" y="700" on="1"/>
        <pt x="425" y="700" on="1"/>
        <pt x="417" y="662" on="1"/>
        <pt x="398" y="652" on="0"/>
        <pt x="352" y="638" on="0"/>
        <pt x="329" y="633" on="1"/>
        <pt x="346" y="279" on="1"/>
        <pt x="341" y="149" on="1"/>
        <pt x="343" y="149" on="1"/>
        <pt x="405" y="284" on="1"/>
        <pt x="627" y="700" on="1"/>
        <pt x="687" y="700" on="1"/>
        <pt x="739" y="289" on="1"/>
        <pt x="747" y="159" on="1"/>
        <pt x="749" y="159" on="1"/>
        <pt x="801" y="291" on="1"/>
      </contour>
    </TTGlyph>
    <TTGlyph name="X" xMin="-36" yMin="0" xMax="787" yMax="700">
      <contour>
        <pt x="539" y="700" on="1"/>
        <pt x="787" y="700" on="1"/>
        <pt x="779" y="662" on="1"/>
        <pt x="763" y="652" on="0"/>
        <pt x="726" y="638" on="0"/>
        <pt x="705" y="633" on="1"/>
        <pt x="470" y="371" on="1"/>
        <pt x="610" y="67" on="1"/>
        <pt x="632" y="62" on="0"/>
        <pt x="666" y="48" on="0"/>
        <pt x="680" y="38" on="1"/>
        <pt x="673" y="0" on="1"/>
        <pt x="350" y="0" on="1"/>
        <pt x="357" y="38" on="1"/>
        <pt x="375" y="47" on="0"/>
        <pt x="413" y="62" on="0"/>
        <pt x="435" y="67" on="1"/>
        <pt x="342" y="286" on="1"/>
        <pt x="160" y="66" on="1"/>
        <pt x="180" y="61" on="0"/>
        <pt x="213" y="49" on="0"/>
        <pt x="228" y="38" on="1"/>
        <pt x="220" y="0" on="1"/>
        <pt x="-36" y="0" on="1"/>
        <pt x="-28" y="38" on="1"/>
        <pt x="-11" y="49" on="0"/>
        <pt x="26" y="62" on="0"/>
        <pt x="46" y="67" on="1"/>
        <pt x="309" y="353" on="1"/>
        <pt x="183" y="633" on="1"/>
        <pt x="165" y="638" on="0"/>
        <pt x="135" y="652" on="0"/>
        <pt x="121" y="662" on="1"/>
        <pt x="129" y="700" on="1"/>
        <pt x="445" y="700" on="1"/>
        <pt x="437" y="662" on="1"/>
        <pt x="423" y="654" on="0"/>
        <pt x="385" y="639" on="0"/>
        <pt x="359" y="633" on="1"/>
        <pt x="436" y="433" on="1"/>
        <pt x="601" y="633" on="1"/>
        <pt x="582" y="638" on="0"/>
        <pt x="545" y="653" on="0"/>
        <pt x="531" y="662" on="1"/>
      </contour>
    </TTGlyph>
    <TTGlyph name="Y" xMin="96" yMin="0" xMax="803" yMax="700">
      <contour>
        <pt x="554" y="700" on="1"/>
        <pt x="803" y="700" on="1"/>
        <pt x="795" y="662" on="1"/>
        <pt x="778" y="652" on="0"/>
        <pt x="738" y="637" on="0"/>
        <pt x="718" y="633" on="1"/>
        <pt x="451" y="293" on="1"/>
        <pt x="403" y="67" on="1"/>
        <pt x="422" y="64" on="0"/>
        <pt x="458" y="48" on="0"/>
        <pt x="473" y="38" on="1"/>
        <pt x="465" y="0" on="1"/>
        <pt x="157" y="0" on="1"/>
        <pt x="165" y="38" on="1"/>
        <pt x="184" y="47" on="0"/>
        <pt x="230" y="63" on="0"/>
        <pt x="253" y="67" on="1"/>
        <pt x="301" y="292" on="1"/>
        <pt x="171" y="633" on="1"/>
        <pt x="149" y="637" on="0"/>
        <pt x="110" y="652" on="0"/>
        <pt x="96" y="662" on="1"/>
        <pt x="104" y="700" on="1"/>
        <pt x="429" y="700" on="1"/>
        <pt x="421" y="662" on="1"/>
        <pt x="407" y="654" on="0"/>
        <pt x="367" y="638" on="0"/>
        <pt x="341" y="633" on="1"/>
        <pt x="428" y="364" on="1"/>
        <pt x="619" y="633" on="1"/>
        <pt x="598" y="638" on="0"/>
        <pt x="560" y="653" on="0"/>
        <pt x="546" y="662" on="1"/>
      </contour>
    </TTGlyph>
    <TTGlyph name="Yacute" xMin="96" yMin="0" xMax="803" yMax="899">
      <component glyphName="Y" x="0" y="0" flags="0x204"/>
      <component glyphName="uniF6C9" x="74" y="0" flags="0x4"/>
    </TTGlyph>
    <TTGlyph name="Ydieresis" xMin="96" yMin="0" xMax="803" yMax="857">
      <component glyphName="Y" x="0" y="0" flags="0x204"/>
      <component glyphName="uniF6CB" x="74" y="0" flags="0x4"/>
    </TTGlyph>
    <TTGlyph name="Z" xMin="5" yMin="0" xMax="674" yMax="700">
      <contour>
        <pt x="539" y="211" on="1"/>
        <pt x="580" y="211" on="1"/>
        <pt x="580" y="190" on="0"/>
        <pt x="576" y="136" on="0"/>
        <pt x="570" y="80" on="0"/>
        <pt x="561" y="24" on="0"/>
        <pt x="556" y="0" on="1"/>
        <pt x="5" y="0" on="1"/>
        <pt x="5" y="65" on="1"/>
        <pt x="496" y="635" on="1"/>
        <pt x="266" y="635" on="1"/>
        <pt x="177" y="492" on="1"/>
        <pt x="135" y="492" on="1"/>
        <pt x="135" y="514" on="0"/>
        <pt x="138" y="570" on="0"/>
        <pt x="145" y="627" on="0"/>
        <pt x="153" y="680" on="0"/>
        <pt x="158" y="700" on="1"/>
        <pt x="674" y="700" on="1"/>
        <pt x="674" y="635" on="1"/>
        <pt x="182" y="65" on="1"/>
        <pt x="446" y="65" on="1"/>
      </contour>
    </TTGlyph>
    <TTGlyph name="Zacute" xMin="5" yMin="0" xMax="674" yMax="899">
      <component glyphName="Z" x="0" y="0" flags="0x204"/>
      <component glyphName="uniF6C9" x="-1" y="0" flags="0x4"/>
    </TTGlyph>
    <TTGlyph name="Zcaron" xMin="5" yMin="0" xMax="674" yMax="902">
      <component glyphName="Z" x="0" y="0" flags="0x204"/>
      <component glyphName="uniF6CA" x="-28" y="0" flags="0x4"/>
    </TTGlyph>
    <TTGlyph name="Zdotaccent" xMin="5" yMin="0" xMax="674" yMax="885">
      <component glyphName="Z" x="0" y="0" flags="0x204"/>
      <component glyphName="uniF40B" x="50" y="0" flags="0x4"/>
    </TTGlyph>
    <TTGlyph name="a" xMin="28" yMin="-12" xMax="543" yMax="510">
      <contour>
        <pt x="215" y="68" on="1"/>
        <pt x="234" y="68" on="0"/>
        <pt x="275" y="102" on="0"/>
        <pt x="312" y="153" on="0"/>
        <pt x="343" y="214" on="0"/>
        <pt x="354" y="240" on="1"/>
        <pt x="391" y="438" on="1"/>
        <pt x="379" y="446" on="0"/>
        <pt x="358" y="453" on="0"/>
        <pt x="341" y="453" on="1"/>
        <pt x="301" y="453" on="0"/>
        <pt x="237" y="400" on="0"/>
        <pt x="193" y="315" on="0"/>
        <pt x="170" y="209" on="0"/>
        <pt x="170" y="156" on="1"/>
        <pt x="170" y="110" on="0"/>
        <pt x="192" y="68" on="0"/>
      </contour>
      <contour>
        <pt x="339" y="159" on="1"/>
        <pt x="326" y="127" on="0"/>
        <pt x="287" y="66" on="0"/>
        <pt x="237" y="18" on="0"/>
        <pt x="177" y="-12" on="0"/>
        <pt x="142" y="-12" on="1"/>
        <pt x="90" y="-12" on="0"/>
        <pt x="28" y="64" on="0"/>
        <pt x="28" y="139" on="1"/>
        <pt x="28" y="217" on="0"/>
        <pt x="71" y="352" on="0"/>
        <pt x="150" y="453" on="0"/>
        <pt x="262" y="510" on="0"/>
        <pt x="331" y="510" on="1"/>
        <pt x="357" y="510" on="0"/>
        <pt x="394" y="498" on="0"/>
        <pt x="415" y="489" on="1"/>
        <pt x="441" y="499" on="0"/>
        <pt x="501" y="509" on="0"/>
        <pt x="543" y="509" on="1"/>
        <pt x="459" y="69" on="1"/>
        <pt x="529" y="69" on="1"/>
        <pt x="529" y="35" on="1"/>
        <pt x="519" y="27" on="0"/>
        <pt x="486" y="11" on="0"/>
        <pt x="447" y="-1" on="0"/>
        <pt x="406" y="-9" on="0"/>
        <pt x="388" y="-9" on="1"/>
        <pt x="353" y="-9" on="0"/>
        <pt x="323" y="21" on="0"/>
        <pt x="323" y="37" on="1"/>
        <pt x="323" y="55" on="0"/>
        <pt x="333" y="114" on="0"/>
        <pt x="343" y="159" on="1"/>
      </contour>
    </TTGlyph>
    <TTGlyph name="aacute" xMin="28" yMin="-12" xMax="543" yMax="765">
      <component glyphName="a" x="0" y="0" flags="0x204"/>
      <component glyphName="acute" x="49" y="0" flags="0x4"/>
    </TTGlyph>
    <TTGlyph name="abreve" xMin="28" yMin="-12" xMax="543" yMax="748">
      <component glyphName="a" x="0" y="0" flags="0x204"/>
      <component glyphName="breve" x="6" y="0" flags="0x4"/>
    </TTGlyph>
    <TTGlyph name="acircumflex" xMin="28" yMin="-12" xMax="543" yMax="794">
      <component glyphName="a" x="0" y="0" flags="0x204"/>
      <component glyphName="circumflex" x="35" y="0" flags="0x4"/>
    </TTGlyph>
    <TTGlyph name="acute" xMin="239" yMin="562" xMax="480" yMax="765">
      <contour>
        <pt x="357" y="763" on="1"/>
        <pt x="365" y="765" on="0"/>
        <pt x="402" y="764" on="0"/>
        <pt x="442" y="758" on="0"/>
        <pt x="475" y="747" on="0"/>
        <pt x="480" y="741" on="1"/>
        <pt x="480" y="717" on="1"/>
        <pt x="279" y="562" on="1"/>
        <pt x="239" y="584" on="1"/>
      </contour>
    </TTGlyph>
    <TTGlyph name="acutecomb" xMin="-231" yMin="562" xMax="10" yMax="765">
      <component glyphName="acute" x="-470" y="0" flags="0x4"/>
    </TTGlyph>
    <TTGlyph name="adieresis" xMin="28" yMin="-12" xMax="543" yMax="729">
      <component glyphName="a" x="0" y="0" flags="0x204"/>
      <component glyphName="dieresis" x="0" y="0" flags="0x4"/>
    </TTGlyph>
    <TTGlyph name="ae" xMin="19" yMin="-12" xMax="763" yMax="512">
      <component glyphName="uni04D5" x="0" y="0" flags="0x204"/>
    </TTGlyph>
    <TTGlyph name="afii10017" xMin="-44" yMin="0" xMax="692" yMax="712">
      <component glyphName="A" x="0" y="0" flags="0x204"/>
    </TTGlyph>
    <TTGlyph name="afii10018" xMin="-24" yMin="-3" xMax="661" yMax="700">
      <contour>
        <pt x="192" y="633" on="1"/>
        <pt x="146" y="641" on="0"/>
        <pt x="116" y="662" on="1"/>
        <pt x="124" y="700" on="1"/>
        <pt x="661" y="700" on="1"/>
        <pt x="656" y="676" on="0"/>
        <pt x="641" y="621" on="0"/>
        <pt x="623" y="565" on="0"/>
        <pt x="604" y="513" on="0"/>
        <pt x="595" y="492" on="1"/>
        <pt x="554" y="492" on="1"/>
        <pt x="522" y="635" on="1"/>
        <pt x="342" y="635" on="1"/>
        <pt x="294" y="407" on="1"/>
        <pt x="318" y="411" on="0"/>
        <pt x="374" y="414" on="0"/>
        <pt x="394" y="414" on="1"/>
        <pt x="495" y="414" on="0"/>
        <pt x="610" y="339" on="0"/>
        <pt x="610" y="257" on="1"/>
        <pt x="610" y="195" on="0"/>
        <pt x="560" y="98" on="0"/>
        <pt x="471" y="32" on="0"/>
        <pt x="349" y="-3" on="0"/>
        <pt x="276" y="-3" on="1"/>
        <pt x="271" y="-3" on="0"/>
        <pt x="231" y="-2" on="0"/>
        <pt x="182" y="-1" on="0"/>
        <pt x="132" y="0" on="0"/>
        <pt x="117" y="0" on="1"/>
        <pt x="-24" y="0" on="1"/>
        <pt x="-17" y="38" on="1"/>
        <pt x="25" y="59" on="0"/>
        <pt x="72" y="67" on="1"/>
      </contour>
      <contour>
        <pt x="343" y="349" on="1"/>
        <pt x="327" y="349" on="0"/>
        <pt x="293" y="346" on="0"/>
        <pt x="280" y="343" on="1"/>
        <pt x="222" y="66" on="1"/>
        <pt x="226" y="65" on="0"/>
        <pt x="241" y="63" on="0"/>
        <pt x="259" y="62" on="0"/>
        <pt x="275" y="62" on="0"/>
        <pt x="280" y="62" on="1"/>
        <pt x="319" y="62" on="0"/>
        <pt x="381" y="93" on="0"/>
        <pt x="423" y="145" on="0"/>
        <pt x="445" y="215" on="0"/>
        <pt x="445" y="253" on="1"/>
        <pt x="445" y="299" on="0"/>
        <pt x="403" y="349" on="0"/>
      </contour>
    </TTGlyph>
    <TTGlyph name="afii10019" xMin="-24" yMin="-7" xMax="653" yMax="705">
      <component glyphName="B" x="0" y="0" flags="0x204"/>
    </TTGlyph>
    <TTGlyph name="afii10020" xMin="-24" yMin="0" xMax="636" yMax="700">
      <contour>
        <pt x="222" y="67" on="1"/>
        <pt x="245" y="63" on="0"/>
        <pt x="291" y="47" on="0"/>
        <pt x="311" y="38" on="1"/>
        <pt x="304" y="0" on="1"/>
        <pt x="-24" y="0" on="1"/>
        <pt x="-17" y="38" on="1"/>
        <pt x="29" y="60" on="0"/>
        <pt x="72" y="67" on="1"/>
        <pt x="192" y="633" on="1"/>
        <pt x="172" y="637" on="0"/>
        <pt x="133" y="651" on="0"/>
        <pt x="116" y="662" on="1"/>
        <pt x="124" y="700" on="1"/>
        <pt x="636" y="700" on="1"/>
        <pt x="632" y="676" on="0"/>
        <pt x="617" y="614" on="0"/>
        <pt x="599" y="548" on="0"/>
        <pt x="578" y="485" on="0"/>
        <pt x="567" y="460" on="1"/>
        <pt x="526" y="460" on="1"/>
        <pt x="501" y="635" on="1"/>
        <pt x="342" y="635" on="1"/>
      </contour>
    </TTGlyph>
    <TTGlyph name="afii10021" xMin="-49" yMin="-163" xMax="788" yMax="700">
      <contour>
        <pt x="690" y="65" on="1"/>
        <pt x="685" y="42" on="0"/>
        <pt x="669" y="-17" on="0"/>
        <pt x="649" y="-79" on="0"/>
        <pt x="626" y="-139" on="0"/>
        <pt x="615" y="-163" on="1"/>
        <pt x="576" y="-163" on="1"/>
        <pt x="561" y="0" on="1"/>
        <pt x="83" y="0" on="1"/>
        <pt x="-10" y="-163" on="1"/>
        <pt x="-48" y="-163" on="1"/>
        <pt x="-49" y="-138" on="0"/>
        <pt x="-45" y="-76" on="0"/>
        <pt x="-39" y="-13" on="0"/>
        <pt x="-31" y="45" on="0"/>
        <pt x="-27" y="65" on="1"/>
        <pt x="60" y="65" on="1"/>
        <pt x="98" y="107" on="0"/>
        <pt x="171" y="231" on="0"/>
        <pt x="235" y="378" on="0"/>
        <pt x="287" y="541" on="0"/>
        <pt x="304" y="623" on="1"/>
        <pt x="279" y="628" on="0"/>
        <pt x="224" y="648" on="0"/>
        <pt x="206" y="662" on="1"/>
        <pt x="214" y="700" on="1"/>
        <pt x="788" y="700" on="1"/>
        <pt x="780" y="662" on="1"/>
        <pt x="764" y="652" on="0"/>
        <pt x="718" y="638" on="0"/>
        <pt x="692" y="633" on="1"/>
        <pt x="572" y="65" on="1"/>
      </contour>
      <contour>
        <pt x="422" y="65" on="1"/>
        <pt x="542" y="635" on="1"/>
        <pt x="383" y="635" on="1"/>
        <pt x="353" y="519" on="0"/>
        <pt x="291" y="336" on="0"/>
        <pt x="230" y="196" on="0"/>
        <pt x="171" y="97" on="0"/>
        <pt x="144" y="65" on="1"/>
      </contour>
    </TTGlyph>
    <TTGlyph name="afii10022" xMin="-24" yMin="0" xMax="650" yMax="700">
      <component glyphName="E" x="0" y="0" flags="0x204"/>
    </TTGlyph>
    <TTGlyph name="afii10023" xMin="-24" yMin="0" xMax="650" yMax="857">
      <component glyphName="E" x="0" y="0" flags="0x204"/>
      <component glyphName="uniF6CB" x="-4" y="0" flags="0x4"/>
    </TTGlyph>
    <TTGlyph name="afii10024" xMin="-37" yMin="0" xMax="1086" yMax="700">
      <contour>
        <pt x="531" y="633" on="1"/>
        <pt x="512" y="639" on="0"/>
        <pt x="483" y="654" on="0"/>
        <pt x="473" y="662" on="1"/>
        <pt x="481" y="700" on="1"/>
        <pt x="740" y="700" on="1"/>
        <pt x="732" y="662" on="1"/>
        <pt x="709" y="646" on="0"/>
        <pt x="668" y="633" on="1"/>
        <pt x="613" y="377" on="1"/>
        <pt x="679" y="393" on="1"/>
        <pt x="873" y="633" on="1"/>
        <pt x="855" y="638" on="0"/>
        <pt x="823" y="653" on="0"/>
        <pt x="809" y="662" on="1"/>
        <pt x="817" y="700" on="1"/>
        <pt x="1086" y="700" on="1"/>
        <pt x="1078" y="662" on="1"/>
        <pt x="1062" y="653" on="0"/>
        <pt x="1021" y="638" on="0"/>
        <pt x="1000" y="633" on="1"/>
        <pt x="762" y="381" on="1"/>
        <pt x="780" y="348" on="0"/>
        <pt x="821" y="269" on="0"/>
        <pt x="867" y="184" on="0"/>
        <pt x="918" y="98" on="0"/>
        <pt x="946" y="58" on="1"/>
        <pt x="983" y="34" on="1"/>
        <pt x="976" y="0" on="1"/>
        <pt x="814" y="0" on="1"/>
        <pt x="778" y="34" on="1"/>
        <pt x="734" y="103" on="0"/>
        <pt x="684" y="251" on="0"/>
        <pt x="659" y="329" on="1"/>
        <pt x="602" y="329" on="1"/>
        <pt x="548" y="67" on="1"/>
        <pt x="579" y="57" on="0"/>
        <pt x="605" y="38" on="1"/>
        <pt x="597" y="0" on="1"/>
        <pt x="328" y="0" on="1"/>
        <pt x="335" y="38" on="1"/>
        <pt x="352" y="47" on="0"/>
        <pt x="389" y="62" on="0"/>
        <pt x="411" y="67" on="1"/>
        <pt x="468" y="338" on="1"/>
        <pt x="402" y="322" on="1"/>
        <pt x="354" y="249" on="0"/>
        <pt x="254" y="100" on="0"/>
        <pt x="191" y="34" on="1"/>
        <pt x="141" y="0" on="1"/>
        <pt x="-37" y="0" on="1"/>
        <pt x="-30" y="34" on="1"/>
        <pt x="16" y="58" on="1"/>
        <pt x="61" y="98" on="0"/>
        <pt x="144" y="185" on="0"/>
        <pt x="219" y="271" on="0"/>
        <pt x="287" y="350" on="0"/>
        <pt x="316" y="382" on="1"/>
        <pt x="197" y="633" on="1"/>
        <pt x="178" y="638" on="0"/>
        <pt x="147" y="654" on="0"/>
        <pt x="136" y="662" on="1"/>
        <pt x="144" y="700" on="1"/>
        <pt x="401" y="700" on="1"/>
        <pt x="393" y="662" on="1"/>
        <pt x="379" y="653" on="0"/>
        <pt x="337" y="638" on="0"/>
        <pt x="316" y="633" on="1"/>
        <pt x="408" y="386" on="1"/>
        <pt x="478" y="386" on="1"/>
      </contour>
    </TTGlyph>
    <TTGlyph name="afii10025" xMin="6" yMin="-12" xMax="594" yMax="712">
      <contour>
        <pt x="211" y="-12" on="1"/>
        <pt x="144" y="-12" on="0"/>
        <pt x="35" y="17" on="0"/>
        <pt x="6" y="37" on="1"/>
        <pt x="10" y="53" on="0"/>
        <pt x="25" y="96" on="0"/>
        <pt x="43" y="142" on="0"/>
        <pt x="64" y="188" on="0"/>
        <pt x="75" y="207" on="1"/>
        <pt x="116" y="207" on="1"/>
        <pt x="127" y="69" on="1"/>
        <pt x="138" y="62" on="0"/>
        <pt x="185" y="53" on="0"/>
        <pt x="206" y="53" on="1"/>
        <pt x="291" y="53" on="0"/>
        <pt x="387" y="151" on="0"/>
        <pt x="387" y="233" on="1"/>
        <pt x="387" y="324" on="0"/>
        <pt x="279" y="324" on="1"/>
        <pt x="200" y="311" on="1"/>
        <pt x="198" y="329" on="0"/>
        <pt x="207" y="376" on="0"/>
        <pt x="217" y="395" on="1"/>
        <pt x="248" y="394" on="1"/>
        <pt x="265" y="393" on="0"/>
        <pt x="311" y="395" on="0"/>
        <pt x="328" y="397" on="1"/>
        <pt x="377" y="418" on="0"/>
        <pt x="439" y="505" on="0"/>
        <pt x="439" y="556" on="1"/>
        <pt x="439" y="601" on="0"/>
        <pt x="395" y="647" on="0"/>
        <pt x="342" y="647" on="1"/>
        <pt x="296" y="645" on="0"/>
        <pt x="268" y="628" on="1"/>
        <pt x="192" y="501" on="1"/>
        <pt x="150" y="501" on="1"/>
        <pt x="149" y="536" on="0"/>
        <pt x="152" y="622" on="0"/>
        <pt x="162" y="669" on="1"/>
        <pt x="186" y="682" on="0"/>
        <pt x="240" y="698" on="0"/>
        <pt x="295" y="708" on="0"/>
        <pt x="347" y="712" on="0"/>
        <pt x="368" y="712" on="1"/>
        <pt x="416" y="712" on="0"/>
        <pt x="499" y="696" on="0"/>
        <pt x="560" y="662" on="0"/>
        <pt x="594" y="606" on="0"/>
        <pt x="594" y="566" on="1"/>
        <pt x="594" y="540" on="0"/>
        <pt x="577" y="484" on="0"/>
        <pt x="537" y="431" on="0"/>
        <pt x="470" y="387" on="0"/>
        <pt x="420" y="374" on="1"/>
        <pt x="420" y="370" on="1"/>
        <pt x="442" y="368" on="0"/>
        <pt x="487" y="350" on="0"/>
        <pt x="524" y="317" on="0"/>
        <pt x="547" y="268" on="0"/>
        <pt x="547" y="234" on="1"/>
        <pt x="547" y="177" on="0"/>
        <pt x="500" y="86" on="0"/>
        <pt x="412" y="22" on="0"/>
        <pt x="288" y="-12" on="0"/>
      </contour>
    </TTGlyph>
    <TTGlyph name="afii10026" xMin="-24" yMin="0" xMax="863" yMax="700">
      <contour>
        <pt x="277" y="0" on="1"/>
        <pt x="-24" y="0" on="1"/>
        <pt x="-17" y="38" on="1"/>
        <pt x="5" y="48" on="0"/>
        <pt x="50" y="64" on="0"/>
        <pt x="72" y="67" on="1"/>
        <pt x="192" y="633" on="1"/>
        <pt x="172" y="637" on="0"/>
        <pt x="132" y="651" on="0"/>
        <pt x="116" y="662" on="1"/>
        <pt x="124" y="700" on="1"/>
        <pt x="425" y="700" on="1"/>
        <pt x="417" y="662" on="1"/>
        <pt x="400" y="653" on="0"/>
        <pt x="360" y="638" on="0"/>
        <pt x="337" y="633" on="1"/>
        <pt x="256" y="253" on="1"/>
        <pt x="229" y="175" on="1"/>
        <pt x="292" y="258" on="1"/>
        <pt x="622" y="609" on="1"/>
        <pt x="627" y="633" on="1"/>
        <pt x="605" y="638" on="0"/>
        <pt x="568" y="652" on="0"/>
        <pt x="554" y="662" on="1"/>
        <pt x="562" y="700" on="1"/>
        <pt x="863" y="700" on="1"/>
        <pt x="855" y="662" on="1"/>
        <pt x="836" y="651" on="0"/>
        <pt x="790" y="637" on="0"/>
        <pt x="767" y="633" on="1"/>
        <pt x="647" y="67" on="1"/>
        <pt x="669" y="63" on="0"/>
        <pt x="707" y="48" on="0"/>
        <pt x="723" y="38" on="1"/>
        <pt x="715" y="0" on="1"/>
        <pt x="414" y="0" on="1"/>
        <pt x="421" y="38" on="1"/>
        <pt x="436" y="45" on="0"/>
        <pt x="479" y="62" on="0"/>
        <pt x="502" y="67" on="1"/>
        <pt x="583" y="446" on="1"/>
        <pt x="611" y="525" on="1"/>
        <pt x="552" y="445" on="1"/>
        <pt x="216" y="89" on="1"/>
        <pt x="212" y="67" on="1"/>
        <pt x="234" y="62" on="0"/>
        <pt x="271" y="46" on="0"/>
        <pt x="285" y="38" on="1"/>
      </contour>
    </TTGlyph>
    <TTGlyph name="afii10027" xMin="-24" yMin="0" xMax="863" yMax="890">
      <component glyphName="afii10026" x="0" y="0" flags="0x204"/>
      <component glyphName="uniF6D1" x="13" y="0" flags="0x4"/>
    </TTGlyph>
    <TTGlyph name="afii10028" xMin="-24" yMin="0" xMax="771" yMax="700">
      <component glyphName="K" x="0" y="0" flags="0x204"/>
    </TTGlyph>
    <TTGlyph name="afii10029" xMin="-28" yMin="-12" xMax="783" yMax="700">
      <contour>
        <pt x="296" y="623" on="1"/>
        <pt x="266" y="628" on="0"/>
        <pt x="215" y="650" on="0"/>
        <pt x="198" y="662" on="1"/>
        <pt x="206" y="700" on="1"/>
        <pt x="783" y="700" on="1"/>
        <pt x="775" y="662" on="1"/>
        <pt x="758" y="653" on="0"/>
        <pt x="712" y="637" on="0"/>
        <pt x="687" y="633" on="1"/>
        <pt x="567" y="67" on="1"/>
        <pt x="588" y="63" on="0"/>
        <pt x="627" y="47" on="0"/>
        <pt x="642" y="38" on="1"/>
        <pt x="635" y="0" on="1"/>
        <pt x="327" y="0" on="1"/>
        <pt x="334" y="38" on="1"/>
        <pt x="354" y="47" on="0"/>
        <pt x="396" y="62" on="0"/>
        <pt x="417" y="67" on="1"/>
        <pt x="537" y="635" on="1"/>
        <pt x="374" y="635" on="1"/>
        <pt x="338" y="483" on="0"/>
        <pt x="274" y="280" on="0"/>
        <pt x="215" y="148" on="0"/>
        <pt x="159" y="70" on="0"/>
        <pt x="132" y="42" on="1"/>
        <pt x="107" y="16" on="0"/>
        <pt x="43" y="-12" on="0"/>
        <pt x="16" y="-12" on="1"/>
        <pt x="4" y="-7" on="0"/>
        <pt x="-13" y="24" on="0"/>
        <pt x="-24" y="64" on="0"/>
        <pt x="-28" y="108" on="0"/>
        <pt x="-26" y="127" on="1"/>
        <pt x="9" y="165" on="1"/>
        <pt x="123" y="136" on="1"/>
        <pt x="142" y="164" on="0"/>
        <pt x="184" y="243" on="0"/>
        <pt x="228" y="359" on="0"/>
        <pt x="273" y="517" on="0"/>
      </contour>
    </TTGlyph>
    <TTGlyph name="afii10030" xMin="-24" yMin="0" xMax="1013" yMax="700">
      <component glyphName="M" x="0" y="0" flags="0x204"/>
    </TTGlyph>
    <TTGlyph name="afii10031" xMin="-24" yMin="0" xMax="853" yMax="700">
      <component glyphName="H" x="0" y="0" flags="0x204"/>
    </TTGlyph>
    <TTGlyph name="afii10032" xMin="59" yMin="-12" xMax="756" yMax="712">
      <component glyphName="O" x="0" y="0" flags="0x204"/>
    </TTGlyph>
    <TTGlyph name="afii10033" xMin="-24" yMin="0" xMax="842" yMax="700">
      <contour>
        <pt x="276" y="0" on="1"/>
        <pt x="-24" y="0" on="1"/>
        <pt x="-17" y="38" on="1"/>
        <pt x="0" y="46" on="0"/>
        <pt x="44" y="63" on="0"/>
        <pt x="72" y="67" on="1"/>
        <pt x="192" y="633" on="1"/>
        <pt x="172" y="637" on="0"/>
        <pt x="133" y="651" on="0"/>
        <pt x="116" y="662" on="1"/>
        <pt x="124" y="700" on="1"/>
        <pt x="842" y="700" on="1"/>
        <pt x="834" y="662" on="1"/>
        <pt x="814" y="650" on="0"/>
        <pt x="768" y="637" on="0"/>
        <pt x="746" y="633" on="1"/>
        <pt x="626" y="67" on="1"/>
        <pt x="663" y="63" on="0"/>
        <pt x="701" y="38" on="1"/>
        <pt x="694" y="0" on="1"/>
        <pt x="394" y="0" on="1"/>
        <pt x="401" y="38" on="1"/>
        <pt x="413" y="46" on="0"/>
        <pt x="449" y="62" on="0"/>
        <pt x="476" y="67" on="1"/>
        <pt x="596" y="635" on="1"/>
        <pt x="342" y="635" on="1"/>
        <pt x="222" y="67" on="1"/>
        <pt x="257" y="57" on="0"/>
        <pt x="283" y="38" on="1"/>
      </contour>
    </TTGlyph>
    <TTGlyph name="afii10034" xMin="-24" yMin="0" xMax="678" yMax="708">
      <component glyphName="P" x="0" y="0" flags="0x204"/>
    </TTGlyph>
    <TTGlyph name="afii10035" xMin="59" yMin="-12" xMax="695" yMax="712">
      <component glyphName="C" x="0" y="0" flags="0x204"/>
    </TTGlyph>
    <TTGlyph name="afii10036" xMin="91" yMin="0" xMax="756" yMax="700">
      <component glyphName="T" x="0" y="0" flags="0x204"/>
    </TTGlyph>
    <TTGlyph name="afii10037" xMin="95" yMin="-18" xMax="787" yMax="700">
      <contour>
        <pt x="608" y="633" on="1"/>
        <pt x="585" y="638" on="0"/>
        <pt x="551" y="653" on="0"/>
        <pt x="537" y="662" on="1"/>
        <pt x="545" y="700" on="1"/>
        <pt x="787" y="700" on="1"/>
        <pt x="779" y="662" on="1"/>
        <pt x="766" y="654" on="0"/>
        <pt x="727" y="638" on="0"/>
        <pt x="702" y="633" on="1"/>
        <pt x="420" y="186" on="1"/>
        <pt x="351" y="83" on="0"/>
        <pt x="224" y="-18" on="0"/>
        <pt x="163" y="-5" on="1"/>
        <pt x="152" y="4" on="0"/>
        <pt x="137" y="39" on="0"/>
        <pt x="129" y="79" on="0"/>
        <pt x="128" y="118" on="0"/>
        <pt x="130" y="130" on="1"/>
        <pt x="165" y="160" on="1"/>
        <pt x="295" y="123" on="1"/>
        <pt x="306" y="132" on="0"/>
        <pt x="326" y="158" on="0"/>
        <pt x="336" y="174" on="1"/>
        <pt x="158" y="633" on="1"/>
        <pt x="140" y="638" on="0"/>
        <pt x="107" y="652" on="0"/>
        <pt x="95" y="662" on="1"/>
        <pt x="103" y="700" on="1"/>
        <pt x="414" y="700" on="1"/>
        <pt x="406" y="662" on="1"/>
        <pt x="390" y="653" on="0"/>
        <pt x="347" y="638" on="0"/>
        <pt x="324" y="633" on="1"/>
        <pt x="417" y="362" on="1"/>
        <pt x="424" y="298" on="1"/>
        <pt x="426" y="298" on="1"/>
        <pt x="460" y="364" on="1"/>
      </contour>
    </TTGlyph>
    <TTGlyph name="afii10038" xMin="51" yMin="-1" xMax="859" yMax="699">
      <contour>
        <pt x="389" y="699" on="1"/>
        <pt x="662" y="699" on="1"/>
        <pt x="655" y="662" on="1"/>
        <pt x="644" y="654" on="0"/>
        <pt x="607" y="638" on="0"/>
        <pt x="582" y="633" on="1"/>
        <pt x="573" y="591" on="1"/>
        <pt x="596" y="595" on="0"/>
        <pt x="651" y="597" on="0"/>
        <pt x="667" y="597" on="1"/>
        <pt x="719" y="597" on="0"/>
        <pt x="792" y="566" on="0"/>
        <pt x="838" y="515" on="0"/>
        <pt x="859" y="451" on="0"/>
        <pt x="859" y="418" on="1"/>
        <pt x="859" y="354" on="0"/>
        <pt x="819" y="243" on="0"/>
        <pt x="741" y="160" on="0"/>
        <pt x="627" y="113" on="0"/>
        <pt x="553" y="113" on="1"/>
        <pt x="548" y="113" on="0"/>
        <pt x="528" y="113" on="0"/>
        <pt x="505" y="115" on="0"/>
        <pt x="482" y="117" on="0"/>
        <pt x="473" y="119" on="1"/>
        <pt x="462" y="65" on="1"/>
        <pt x="480" y="60" on="0"/>
        <pt x="511" y="44" on="0"/>
        <pt x="521" y="36" on="1"/>
        <pt x="514" y="-1" on="1"/>
        <pt x="241" y="-1" on="1"/>
        <pt x="248" y="36" on="1"/>
        <pt x="263" y="45" on="0"/>
        <pt x="304" y="60" on="0"/>
        <pt x="325" y="64" on="1"/>
        <pt x="336" y="117" on="1"/>
        <pt x="313" y="114" on="0"/>
        <pt x="267" y="113" on="0"/>
        <pt x="250" y="113" on="1"/>
        <pt x="208" y="113" on="0"/>
        <pt x="135" y="137" on="0"/>
        <pt x="82" y="184" on="0"/>
        <pt x="51" y="251" on="0"/>
        <pt x="51" y="293" on="1"/>
        <pt x="51" y="354" on="0"/>
        <pt x="90" y="464" on="0"/>
        <pt x="167" y="548" on="0"/>
        <pt x="283" y="597" on="0"/>
        <pt x="360" y="597" on="1"/>
        <pt x="373" y="597" on="0"/>
        <pt x="421" y="595" on="0"/>
        <pt x="438" y="594" on="1"/>
        <pt x="446" y="633" on="1"/>
        <pt x="424" y="639" on="0"/>
        <pt x="390" y="654" on="0"/>
        <pt x="381" y="662" on="1"/>
      </contour>
      <contour>
        <pt x="607" y="535" on="1"/>
        <pt x="595" y="535" on="0"/>
        <pt x="573" y="533" on="0"/>
        <pt x="559" y="530" on="1"/>
        <pt x="484" y="176" on="1"/>
        <pt x="493" y="174" on="0"/>
        <pt x="520" y="173" on="0"/>
        <pt x="528" y="173" on="1"/>
        <pt x="569" y="173" on="0"/>
        <pt x="633" y="214" on="0"/>
        <pt x="678" y="283" on="0"/>
        <pt x="701" y="372" on="0"/>
        <pt x="701" y="421" on="1"/>
        <pt x="701" y="455" on="0"/>
        <pt x="685" y="499" on="0"/>
        <pt x="658" y="525" on="0"/>
        <pt x="625" y="535" on="0"/>
      </contour>
      <contour>
        <pt x="309" y="174" on="1"/>
        <pt x="332" y="174" on="0"/>
        <pt x="350" y="179" on="1"/>
        <pt x="426" y="534" on="1"/>
        <pt x="414" y="536" on="0"/>
        <pt x="394" y="536" on="0"/>
        <pt x="382" y="536" on="1"/>
        <pt x="343" y="536" on="0"/>
        <pt x="279" y="499" on="0"/>
        <pt x="233" y="433" on="0"/>
        <pt x="208" y="343" on="0"/>
        <pt x="208" y="291" on="1"/>
        <pt x="208" y="259" on="0"/>
        <pt x="225" y="215" on="0"/>
        <pt x="254" y="187" on="0"/>
        <pt x="290" y="174" on="0"/>
      </contour>
    </TTGlyph>
    <TTGlyph name="afii10039" xMin="-36" yMin="0" xMax="787" yMax="700">
      <component glyphName="X" x="0" y="0" flags="0x204"/>
    </TTGlyph>
    <TTGlyph name="afii10040" xMin="-24" yMin="-163" xMax="838" yMax="700">
      <contour>
        <pt x="-24" y="0" on="1"/>
        <pt x="-17" y="38" on="1"/>
        <pt x="-1" y="46" on="0"/>
        <pt x="44" y="62" on="0"/>
        <pt x="72" y="67" on="1"/>
        <pt x="192" y="633" on="1"/>
        <pt x="172" y="636" on="0"/>
        <pt x="133" y="651" on="0"/>
        <pt x="116" y="662" on="1"/>
        <pt x="124" y="700" on="1"/>
        <pt x="422" y="700" on="1"/>
        <pt x="414" y="662" on="1"/>
        <pt x="400" y="654" on="0"/>
        <pt x="365" y="639" on="0"/>
        <pt x="342" y="633" on="1"/>
        <pt x="222" y="65" on="1"/>
        <pt x="471" y="65" on="1"/>
        <pt x="592" y="633" on="1"/>
        <pt x="575" y="637" on="0"/>
        <pt x="544" y="653" on="0"/>
        <pt x="531" y="662" on="1"/>
        <pt x="539" y="700" on="1"/>
        <pt x="838" y="700" on="1"/>
        <pt x="830" y="662" on="1"/>
        <pt x="808" y="650" on="0"/>
        <pt x="764" y="637" on="0"/>
        <pt x="742" y="633" on="1"/>
        <pt x="621" y="65" on="1"/>
        <pt x="739" y="65" on="1"/>
        <pt x="733" y="39" on="0"/>
        <pt x="716" y="-22" on="0"/>
        <pt x="696" y="-83" on="0"/>
        <pt x="674" y="-141" on="0"/>
        <pt x="664" y="-163" on="1"/>
        <pt x="625" y="-163" on="1"/>
        <pt x="610" y="0" on="1"/>
      </contour>
    </TTGlyph>
    <TTGlyph name="afii10041" xMin="101" yMin="0" xMax="770" yMax="700">
      <contour>
        <pt x="622" y="0" on="1"/>
        <pt x="314" y="0" on="1"/>
        <pt x="321" y="38" on="1"/>
        <pt x="347" y="49" on="0"/>
        <pt x="397" y="65" on="0"/>
        <pt x="420" y="67" on="1"/>
        <pt x="470" y="303" on="1"/>
        <pt x="438" y="286" on="0"/>
        <pt x="338" y="258" on="0"/>
        <pt x="278" y="258" on="1"/>
        <pt x="238" y="258" on="0"/>
        <pt x="173" y="282" on="0"/>
        <pt x="133" y="333" on="0"/>
        <pt x="120" y="413" on="0"/>
        <pt x="132" y="469" on="1"/>
        <pt x="167" y="633" on="1"/>
        <pt x="149" y="636" on="0"/>
        <pt x="113" y="652" on="0"/>
        <pt x="101" y="662" on="1"/>
        <pt x="109" y="700" on="1"/>
        <pt x="392" y="700" on="1"/>
        <pt x="384" y="662" on="1"/>
        <pt x="372" y="654" on="0"/>
        <pt x="337" y="638" on="0"/>
        <pt x="317" y="633" on="1"/>
        <pt x="286" y="487" on="1"/>
        <pt x="278" y="450" on="0"/>
        <pt x="274" y="391" on="0"/>
        <pt x="289" y="350" on="0"/>
        <pt x="326" y="328" on="0"/>
        <pt x="358" y="328" on="1"/>
        <pt x="391" y="328" on="0"/>
        <pt x="454" y="347" on="0"/>
        <pt x="483" y="363" on="1"/>
        <pt x="540" y="633" on="1"/>
        <pt x="506" y="643" on="0"/>
        <pt x="484" y="662" on="1"/>
        <pt x="492" y="700" on="1"/>
        <pt x="770" y="700" on="1"/>
        <pt x="762" y="662" on="1"/>
        <pt x="748" y="653" on="0"/>
        <pt x="710" y="637" on="0"/>
        <pt x="690" y="633" on="1"/>
        <pt x="570" y="67" on="1"/>
        <pt x="588" y="63" on="0"/>
        <pt x="619" y="46" on="0"/>
        <pt x="629" y="38" on="1"/>
      </contour>
    </TTGlyph>
    <TTGlyph name="afii10042" xMin="-24" yMin="0" xMax="1090" yMax="700">
      <contour>
        <pt x="478" y="700" on="1"/>
        <pt x="737" y="700" on="1"/>
        <pt x="729" y="662" on="1"/>
        <pt x="718" y="654" on="0"/>
        <pt x="686" y="638" on="0"/>
        <pt x="669" y="633" on="1"/>
        <pt x="548" y="65" on="1"/>
        <pt x="735" y="65" on="1"/>
        <pt x="856" y="633" on="1"/>
        <pt x="826" y="641" on="0"/>
        <pt x="805" y="662" on="1"/>
        <pt x="813" y="700" on="1"/>
        <pt x="1090" y="700" on="1"/>
        <pt x="1082" y="662" on="1"/>
        <pt x="1048" y="641" on="0"/>
        <pt x="1006" y="633" on="1"/>
        <pt x="886" y="67" on="1"/>
        <pt x="904" y="62" on="0"/>
        <pt x="936" y="47" on="0"/>
        <pt x="949" y="38" on="1"/>
        <pt x="942" y="0" on="1"/>
        <pt x="-24" y="0" on="1"/>
        <pt x="-17" y="38" on="1"/>
        <pt x="1" y="47" on="0"/>
        <pt x="43" y="63" on="0"/>
        <pt x="62" y="67" on="1"/>
        <pt x="182" y="633" on="1"/>
        <pt x="164" y="637" on="0"/>
        <pt x="127" y="652" on="0"/>
        <pt x="116" y="662" on="1"/>
        <pt x="124" y="700" on="1"/>
        <pt x="400" y="700" on="1"/>
        <pt x="392" y="662" on="1"/>
        <pt x="382" y="655" on="0"/>
        <pt x="351" y="638" on="0"/>
        <pt x="332" y="633" on="1"/>
        <pt x="211" y="65" on="1"/>
        <pt x="398" y="65" on="1"/>
        <pt x="519" y="633" on="1"/>
        <pt x="504" y="638" on="0"/>
        <pt x="478" y="652" on="0"/>
        <pt x="470" y="662" on="1"/>
      </contour>
    </TTGlyph>
    <TTGlyph name="afii10043" xMin="-24" yMin="-163" xMax="1096" yMax="700">
      <contour>
        <pt x="-24" y="0" on="1"/>
        <pt x="-17" y="38" on="1"/>
        <pt x="0" y="46" on="0"/>
        <pt x="40" y="63" on="0"/>
        <pt x="62" y="67" on="1"/>
        <pt x="182" y="633" on="1"/>
        <pt x="164" y="636" on="0"/>
        <pt x="127" y="652" on="0"/>
        <pt x="116" y="662" on="1"/>
        <pt x="124" y="700" on="1"/>
        <pt x="400" y="700" on="1"/>
        <pt x="392" y="662" on="1"/>
        <pt x="381" y="654" on="0"/>
        <pt x="349" y="638" on="0"/>
        <pt x="332" y="633" on="1"/>
        <pt x="211" y="65" on="1"/>
        <pt x="398" y="65" on="1"/>
        <pt x="519" y="633" on="1"/>
        <pt x="488" y="644" on="0"/>
        <pt x="470" y="662" on="1"/>
        <pt x="478" y="700" on="1"/>
        <pt x="737" y="700" on="1"/>
        <pt x="729" y="662" on="1"/>
        <pt x="718" y="654" on="0"/>
        <pt x="687" y="638" on="0"/>
        <pt x="669" y="633" on="1"/>
        <pt x="548" y="65" on="1"/>
        <pt x="735" y="65" on="1"/>
        <pt x="856" y="633" on="1"/>
        <pt x="841" y="638" on="0"/>
        <pt x="815" y="652" on="0"/>
        <pt x="805" y="662" on="1"/>
        <pt x="813" y="700" on="1"/>
        <pt x="1096" y="700" on="1"/>
        <pt x="1088" y="662" on="1"/>
        <pt x="1072" y="652" on="0"/>
        <pt x="1028" y="637" on="0"/>
        <pt x="1006" y="633" on="1"/>
        <pt x="885" y="65" on="1"/>
        <pt x="1003" y="65" on="1"/>
        <pt x="998" y="41" on="0"/>
        <pt x="981" y="-19" on="0"/>
        <pt x="961" y="-80" on="0"/>
        <pt x="939" y="-139" on="0"/>
        <pt x="928" y="-163" on="1"/>
        <pt x="889" y="-163" on="1"/>
        <pt x="874" y="0" on="1"/>
      </contour>
    </TTGlyph>
    <TTGlyph name="afii10044" xMin="91" yMin="-3" xMax="751" yMax="700">
      <contour>
        <pt x="582" y="700" on="1"/>
        <pt x="574" y="662" on="1"/>
        <pt x="555" y="652" on="0"/>
        <pt x="502" y="637" on="0"/>
        <pt x="476" y="633" on="1"/>
        <pt x="430" y="419" on="1"/>
        <pt x="449" y="423" on="0"/>
        <pt x="505" y="426" on="0"/>
        <pt x="525" y="426" on="1"/>
        <pt x="574" y="426" on="0"/>
        <pt x="657" y="408" on="0"/>
        <pt x="717" y="369" on="0"/>
        <pt x="751" y="308" on="0"/>
        <pt x="751" y="266" on="1"/>
        <pt x="751" y="196" on="0"/>
        <pt x="699" y="95" on="0"/>
        <pt x="606" y="29" on="0"/>
        <pt x="477" y="-3" on="0"/>
        <pt x="401" y="-3" on="1"/>
        <pt x="396" y="-3" on="0"/>
        <pt x="364" y="-2" on="0"/>
        <pt x="322" y="-1" on="0"/>
        <pt x="279" y="0" on="0"/>
        <pt x="264" y="0" on="1"/>
        <pt x="110" y="0" on="1"/>
        <pt x="117" y="38" on="1"/>
        <pt x="137" y="48" on="0"/>
        <pt x="182" y="63" on="0"/>
        <pt x="206" y="67" on="1"/>
        <pt x="326" y="635" on="1"/>
        <pt x="222" y="635" on="1"/>
        <pt x="132" y="464" on="1"/>
        <pt x="91" y="464" on="1"/>
        <pt x="91" y="489" on="0"/>
        <pt x="96" y="553" on="0"/>
        <pt x="103" y="618" on="0"/>
        <pt x="113" y="678" on="0"/>
        <pt x="118" y="700" on="1"/>
      </contour>
      <contour>
        <pt x="475" y="361" on="1"/>
        <pt x="439" y="361" on="0"/>
        <pt x="417" y="355" on="1"/>
        <pt x="356" y="66" on="1"/>
        <pt x="360" y="65" on="0"/>
        <pt x="375" y="63" on="0"/>
        <pt x="391" y="62" on="0"/>
        <pt x="407" y="62" on="0"/>
        <pt x="412" y="62" on="1"/>
        <pt x="492" y="62" on="0"/>
        <pt x="586" y="170" on="0"/>
        <pt x="586" y="266" on="1"/>
        <pt x="586" y="309" on="0"/>
        <pt x="538" y="361" on="0"/>
      </contour>
    </TTGlyph>
    <TTGlyph name="afii10045" xMin="-24" yMin="-3" xMax="1014" yMax="700">
      <contour>
        <pt x="866" y="0" on="1"/>
        <pt x="563" y="0" on="1"/>
        <pt x="571" y="38" on="1"/>
        <pt x="588" y="47" on="0"/>
        <pt x="629" y="62" on="0"/>
        <pt x="650" y="67" on="1"/>
        <pt x="770" y="633" on="1"/>
        <pt x="752" y="637" on="0"/>
        <pt x="714" y="651" on="0"/>
        <pt x="698" y="662" on="1"/>
        <pt x="706" y="700" on="1"/>
        <pt x="1014" y="700" on="1"/>
        <pt x="1006" y="662" on="1"/>
        <pt x="970" y="641" on="0"/>
        <pt x="920" y="633" on="1"/>
        <pt x="800" y="67" on="1"/>
        <pt x="824" y="63" on="0"/>
        <pt x="860" y="46" on="0"/>
        <pt x="874" y="38" on="1"/>
      </contour>
      <contour>
        <pt x="-24" y="0" on="1"/>
        <pt x="-17" y="38" on="1"/>
        <pt x="3" y="48" on="0"/>
        <pt x="50" y="64" on="0"/>
        <pt x="72" y="67" on="1"/>
        <pt x="192" y="633" on="1"/>
        <pt x="172" y="637" on="0"/>
        <pt x="132" y="651" on="0"/>
        <pt x="116" y="662" on="1"/>
        <pt x="124" y="700" on="1"/>
        <pt x="444" y="700" on="1"/>
        <pt x="436" y="662" on="1"/>
        <pt x="418" y="652" on="0"/>
        <pt x="368" y="636" on="0"/>
        <pt x="342" y="633" on="1"/>
        <pt x="296" y="419" on="1"/>
        <pt x="315" y="423" on="0"/>
        <pt x="371" y="426" on="0"/>
        <pt x="391" y="426" on="1"/>
        <pt x="451" y="426" on="0"/>
        <pt x="531" y="399" on="0"/>
        <pt x="580" y="354" on="0"/>
        <pt x="601" y="296" on="0"/>
        <pt x="601" y="266" on="1"/>
        <pt x="601" y="199" on="0"/>
        <pt x="554" y="98" on="0"/>
        <pt x="468" y="31" on="0"/>
        <pt x="345" y="-3" on="0"/>
        <pt x="270" y="-3" on="1"/>
        <pt x="265" y="-3" on="0"/>
        <pt x="232" y="-2" on="0"/>
        <pt x="189" y="-1" on="0"/>
        <pt x="145" y="0" on="0"/>
        <pt x="130" y="0" on="1"/>
      </contour>
      <contour>
        <pt x="341" y="361" on="1"/>
        <pt x="305" y="361" on="0"/>
        <pt x="283" y="355" on="1"/>
        <pt x="222" y="66" on="1"/>
        <pt x="230" y="64" on="0"/>
        <pt x="264" y="62" on="0"/>
        <pt x="275" y="62" on="1"/>
        <pt x="314" y="62" on="0"/>
        <pt x="374" y="95" on="0"/>
        <pt x="415" y="152" on="0"/>
        <pt x="436" y="227" on="0"/>
        <pt x="436" y="270" on="1"/>
        <pt x="436" y="289" on="0"/>
        <pt x="428" y="322" on="0"/>
        <pt x="407" y="347" on="0"/>
        <pt x="370" y="361" on="0"/>
      </contour>
    </TTGlyph>
    <TTGlyph name="afii10046" xMin="-24" yMin="-3" xMax="617" yMax="700">
      <contour>
        <pt x="-24" y="0" on="1"/>
        <pt x="-17" y="38" on="1"/>
        <pt x="3" y="48" on="0"/>
        <pt x="50" y="64" on="0"/>
        <pt x="72" y="67" on="1"/>
        <pt x="192" y="633" on="1"/>
        <pt x="172" y="637" on="0"/>
        <pt x="132" y="651" on="0"/>
        <pt x="116" y="662" on="1"/>
        <pt x="124" y="700" on="1"/>
        <pt x="448" y="700" on="1"/>
        <pt x="440" y="662" on="1"/>
        <pt x="422" y="652" on="0"/>
        <pt x="368" y="636" on="0"/>
        <pt x="342" y="633" on="1"/>
        <pt x="296" y="419" on="1"/>
        <pt x="315" y="423" on="0"/>
        <pt x="371" y="426" on="0"/>
        <pt x="391" y="426" on="1"/>
        <pt x="451" y="426" on="0"/>
        <pt x="536" y="402" on="0"/>
        <pt x="591" y="360" on="0"/>
        <pt x="617" y="301" on="0"/>
        <pt x="617" y="266" on="1"/>
        <pt x="617" y="196" on="0"/>
        <pt x="565" y="95" on="0"/>
        <pt x="473" y="29" on="0"/>
        <pt x="345" y="-3" on="0"/>
        <pt x="270" y="-3" on="1"/>
        <pt x="265" y="-3" on="0"/>
        <pt x="232" y="-2" on="0"/>
        <pt x="189" y="-1" on="0"/>
        <pt x="145" y="0" on="0"/>
        <pt x="130" y="0" on="1"/>
      </contour>
      <contour>
        <pt x="341" y="361" on="1"/>
        <pt x="305" y="361" on="0"/>
        <pt x="283" y="355" on="1"/>
        <pt x="222" y="66" on="1"/>
        <pt x="226" y="65" on="0"/>
        <pt x="241" y="63" on="0"/>
        <pt x="257" y="62" on="0"/>
        <pt x="273" y="62" on="0"/>
        <pt x="278" y="62" on="1"/>
        <pt x="358" y="62" on="0"/>
        <pt x="452" y="170" on="0"/>
        <pt x="452" y="266" on="1"/>
        <pt x="452" y="309" on="0"/>
        <pt x="404" y="361" on="0"/>
      </contour>
    </TTGlyph>
    <TTGlyph name="afii10047" xMin="16" yMin="-12" xMax="653" yMax="712">
      <contour>
        <pt x="214" y="304" on="1"/>
        <pt x="213" y="324" on="0"/>
        <pt x="221" y="382" on="0"/>
        <pt x="235" y="406" on="1"/>
        <pt x="489" y="402" on="1"/>
        <pt x="502" y="518" on="0"/>
        <pt x="416" y="647" on="0"/>
        <pt x="328" y="647" on="1"/>
        <pt x="305" y="647" on="0"/>
        <pt x="255" y="636" on="0"/>
        <pt x="241" y="628" on="1"/>
        <pt x="161" y="498" on="1"/>
        <pt x="120" y="498" on="1"/>
        <pt x="120" y="509" on="0"/>
        <pt x="123" y="551" on="0"/>
        <pt x="128" y="599" on="0"/>
        <pt x="136" y="649" on="0"/>
        <pt x="142" y="669" on="1"/>
        <pt x="163" y="681" on="0"/>
        <pt x="217" y="697" on="0"/>
        <pt x="273" y="708" on="0"/>
        <pt x="328" y="712" on="0"/>
        <pt x="349" y="712" on="1"/>
        <pt x="429" y="712" on="0"/>
        <pt x="544" y="672" on="0"/>
        <pt x="618" y="597" on="0"/>
        <pt x="653" y="492" on="0"/>
        <pt x="653" y="428" on="1"/>
        <pt x="653" y="333" on="0"/>
        <pt x="595" y="172" on="0"/>
        <pt x="482" y="54" on="0"/>
        <pt x="317" y="-12" on="0"/>
        <pt x="210" y="-12" on="1"/>
        <pt x="141" y="-12" on="0"/>
        <pt x="44" y="16" on="0"/>
        <pt x="16" y="38" on="1"/>
        <pt x="19" y="57" on="0"/>
        <pt x="32" y="104" on="0"/>
        <pt x="49" y="152" on="0"/>
        <pt x="68" y="199" on="0"/>
        <pt x="77" y="219" on="1"/>
        <pt x="119" y="219" on="1"/>
        <pt x="140" y="69" on="1"/>
        <pt x="151" y="61" on="0"/>
        <pt x="192" y="53" on="0"/>
        <pt x="215" y="53" on="1"/>
        <pt x="260" y="53" on="0"/>
        <pt x="345" y="88" on="0"/>
        <pt x="416" y="159" on="0"/>
        <pt x="467" y="264" on="0"/>
        <pt x="478" y="334" on="1"/>
      </contour>
    </TTGlyph>
    <TTGlyph name="afii10048" xMin="-24" yMin="-12" xMax="1031" yMax="712">
      <contour>
        <pt x="284" y="0" on="1"/>
        <pt x="-24" y="0" on="1"/>
        <pt x="-17" y="38" on="1"/>
        <pt x="4" y="48" on="0"/>
        <pt x="48" y="63" on="0"/>
        <pt x="72" y="67" on="1"/>
        <pt x="192" y="633" on="1"/>
        <pt x="172" y="636" on="0"/>
        <pt x="133" y="651" on="0"/>
        <pt x="116" y="662" on="1"/>
        <pt x="124" y="700" on="1"/>
        <pt x="432" y="700" on="1"/>
        <pt x="424" y="662" on="1"/>
        <pt x="410" y="654" on="0"/>
        <pt x="371" y="638" on="0"/>
        <pt x="342" y="633" on="1"/>
        <pt x="290" y="391" on="1"/>
        <pt x="398" y="391" on="1"/>
        <pt x="416" y="460" on="0"/>
        <pt x="480" y="578" on="0"/>
        <pt x="573" y="663" on="0"/>
        <pt x="694" y="712" on="0"/>
        <pt x="768" y="712" on="1"/>
        <pt x="844" y="712" on="0"/>
        <pt x="945" y="668" on="0"/>
        <pt x="1006" y="595" on="0"/>
        <pt x="1031" y="501" on="0"/>
        <pt x="1031" y="452" on="1"/>
        <pt x="1031" y="371" on="0"/>
        <pt x="981" y="205" on="0"/>
        <pt x="882" y="72" on="0"/>
        <pt x="733" y="-12" on="0"/>
        <pt x="634" y="-12" on="1"/>
        <pt x="556" y="-12" on="0"/>
        <pt x="453" y="44" on="0"/>
        <pt x="394" y="137" on="0"/>
        <pt x="376" y="260" on="0"/>
        <pt x="385" y="326" on="1"/>
        <pt x="276" y="326" on="1"/>
        <pt x="222" y="67" on="1"/>
        <pt x="245" y="62" on="0"/>
        <pt x="279" y="46" on="0"/>
        <pt x="291" y="38" on="1"/>
      </contour>
      <contour>
        <pt x="537" y="253" on="1"/>
        <pt x="535" y="153" on="0"/>
        <pt x="587" y="53" on="0"/>
        <pt x="650" y="53" on="1"/>
        <pt x="703" y="53" on="0"/>
        <pt x="784" y="130" on="0"/>
        <pt x="839" y="253" on="0"/>
        <pt x="867" y="408" on="0"/>
        <pt x="867" y="487" on="1"/>
        <pt x="867" y="517" on="0"/>
        <pt x="858" y="575" on="0"/>
        <pt x="832" y="620" on="0"/>
        <pt x="785" y="647" on="0"/>
        <pt x="749" y="647" on="1"/>
        <pt x="714" y="647" on="0"/>
        <pt x="656" y="609" on="0"/>
        <pt x="609" y="546" on="0"/>
        <pt x="573" y="464" on="0"/>
        <pt x="549" y="376" on="0"/>
        <pt x="537" y="289" on="0"/>
      </contour>
    </TTGlyph>
    <TTGlyph name="afii10049" xMin="-45" yMin="0" xMax="768" yMax="703">
      <contour>
        <pt x="768" y="700" on="1"/>
        <pt x="760" y="662" on="1"/>
        <pt x="746" y="654" on="0"/>
        <pt x="698" y="638" on="0"/>
        <pt x="672" y="633" on="1"/>
        <pt x="552" y="67" on="1"/>
        <pt x="576" y="62" on="0"/>
        <pt x="614" y="46" on="0"/>
        <pt x="628" y="38" on="1"/>
        <pt x="620" y="0" on="1"/>
        <pt x="310" y="0" on="1"/>
        <pt x="318" y="38" on="1"/>
        <pt x="336" y="47" on="0"/>
        <pt x="379" y="62" on="0"/>
        <pt x="402" y="67" on="1"/>
        <pt x="449" y="287" on="1"/>
        <pt x="369" y="287" on="1"/>
        <pt x="323" y="219" on="0"/>
        <pt x="236" y="90" on="0"/>
        <pt x="180" y="32" on="1"/>
        <pt x="133" y="0" on="1"/>
        <pt x="-45" y="0" on="1"/>
        <pt x="-38" y="34" on="1"/>
        <pt x="11" y="58" on="1"/>
        <pt x="90" y="127" on="0"/>
        <pt x="195" y="245" on="0"/>
        <pt x="240" y="296" on="1"/>
        <pt x="222" y="302" on="0"/>
        <pt x="183" y="328" on="0"/>
        <pt x="152" y="367" on="0"/>
        <pt x="131" y="420" on="0"/>
        <pt x="131" y="453" on="1"/>
        <pt x="131" y="574" on="0"/>
        <pt x="305" y="701" on="0"/>
        <pt x="478" y="703" on="1"/>
        <pt x="488" y="703" on="0"/>
        <pt x="520" y="702" on="0"/>
        <pt x="557" y="701" on="0"/>
        <pt x="595" y="700" on="0"/>
        <pt x="610" y="700" on="1"/>
      </contour>
      <contour>
        <pt x="387" y="346" on="1"/>
        <pt x="394" y="346" on="0"/>
        <pt x="416" y="347" on="0"/>
        <pt x="439" y="348" on="0"/>
        <pt x="458" y="350" on="0"/>
        <pt x="463" y="351" on="1"/>
        <pt x="522" y="633" on="1"/>
        <pt x="514" y="635" on="0"/>
        <pt x="480" y="638" on="0"/>
        <pt x="468" y="638" on="1"/>
        <pt x="421" y="638" on="0"/>
        <pt x="354" y="606" on="0"/>
        <pt x="312" y="554" on="0"/>
        <pt x="292" y="486" on="0"/>
        <pt x="292" y="449" on="1"/>
        <pt x="292" y="423" on="0"/>
        <pt x="309" y="384" on="0"/>
        <pt x="337" y="358" on="0"/>
        <pt x="370" y="346" on="0"/>
      </contour>
    </TTGlyph>
    <TTGlyph name="afii10050" xMin="-24" yMin="0" xMax="648" yMax="850">
      <contour>
        <pt x="222" y="67" on="1"/>
        <pt x="245" y="64" on="0"/>
        <pt x="291" y="48" on="0"/>
        <pt x="311" y="38" on="1"/>
        <pt x="304" y="0" on="1"/>
        <pt x="-24" y="0" on="1"/>
        <pt x="-17" y="38" on="1"/>
        <pt x="31" y="61" on="0"/>
        <pt x="72" y="67" on="1"/>
        <pt x="192" y="633" on="1"/>
        <pt x="172" y="637" on="0"/>
        <pt x="132" y="651" on="0"/>
        <pt x="116" y="662" on="1"/>
        <pt x="124" y="700" on="1"/>
        <pt x="514" y="700" on="1"/>
        <pt x="607" y="850" on="1"/>
        <pt x="648" y="850" on="1"/>
        <pt x="647" y="826" on="0"/>
        <pt x="641" y="767" on="0"/>
        <pt x="632" y="708" on="0"/>
        <pt x="622" y="654" on="0"/>
        <pt x="618" y="635" on="1"/>
        <pt x="342" y="635" on="1"/>
      </contour>
    </TTGlyph>
    <TTGlyph name="afii10051" xMin="85" yMin="-5" xMax="786" yMax="700">
      <contour>
        <pt x="786" y="279" on="1"/>
        <pt x="786" y="204" on="0"/>
        <pt x="734" y="95" on="0"/>
        <pt x="648" y="26" on="0"/>
        <pt x="538" y="-5" on="0"/>
        <pt x="480" y="-3" on="1"/>
        <pt x="483" y="42" on="1"/>
        <pt x="557" y="59" on="0"/>
        <pt x="636" y="177" on="0"/>
        <pt x="636" y="268" on="1"/>
        <pt x="636" y="289" on="0"/>
        <pt x="629" y="324" on="0"/>
        <pt x="610" y="348" on="0"/>
        <pt x="577" y="361" on="0"/>
        <pt x="551" y="361" on="1"/>
        <pt x="518" y="361" on="0"/>
        <pt x="456" y="342" on="0"/>
        <pt x="428" y="327" on="1"/>
        <pt x="373" y="67" on="1"/>
        <pt x="388" y="62" on="0"/>
        <pt x="415" y="46" on="0"/>
        <pt x="426" y="38" on="1"/>
        <pt x="419" y="0" on="1"/>
        <pt x="112" y="0" on="1"/>
        <pt x="119" y="38" on="1"/>
        <pt x="141" y="47" on="0"/>
        <pt x="195" y="63" on="0"/>
        <pt x="223" y="67" on="1"/>
        <pt x="343" y="635" on="1"/>
        <pt x="227" y="635" on="1"/>
        <pt x="127" y="464" on="1"/>
        <pt x="85" y="464" on="1"/>
        <pt x="86" y="484" on="0"/>
        <pt x="92" y="546" on="0"/>
        <pt x="99" y="612" on="0"/>
        <pt x="108" y="677" on="0"/>
        <pt x="113" y="700" on="1"/>
        <pt x="750" y="700" on="1"/>
        <pt x="745" y="675" on="0"/>
        <pt x="730" y="620" on="0"/>
        <pt x="713" y="566" on="0"/>
        <pt x="694" y="515" on="0"/>
        <pt x="685" y="494" on="1"/>
        <pt x="643" y="494" on="1"/>
        <pt x="609" y="635" on="1"/>
        <pt x="493" y="635" on="1"/>
        <pt x="440" y="387" on="1"/>
        <pt x="478" y="407" on="0"/>
        <pt x="569" y="431" on="0"/>
        <pt x="625" y="431" on="1"/>
        <pt x="706" y="431" on="0"/>
        <pt x="786" y="351" on="0"/>
      </contour>
    </TTGlyph>
    <TTGlyph name="afii10052" xMin="-24" yMin="0" xMax="636" yMax="899">
      <component glyphName="afii10020" x="0" y="0" flags="0x204"/>
      <component glyphName="uniF6C9" x="-15" y="0" flags="0x4"/>
    </TTGlyph>
    <TTGlyph name="afii10053" xMin="59" yMin="-12" xMax="695" yMax="712">
      <contour>
        <pt x="561" y="210" on="1"/>
        <pt x="603" y="210" on="1"/>
        <pt x="603" y="194" on="0"/>
        <pt x="601" y="149" on="0"/>
        <pt x="595" y="98" on="0"/>
        <pt x="587" y="48" on="0"/>
        <pt x="582" y="28" on="1"/>
        <pt x="561" y="17" on="0"/>
        <pt x="510" y="2" on="0"/>
        <pt x="458" y="-8" on="0"/>
        <pt x="410" y="-12" on="0"/>
        <pt x="392" y="-12" on="1"/>
        <pt x="300" y="-12" on="0"/>
        <pt x="174" y="38" on="0"/>
        <pt x="94" y="118" on="0"/>
        <pt x="59" y="218" on="0"/>
        <pt x="59" y="269" on="1"/>
        <pt x="59" y="368" on="0"/>
        <pt x="117" y="531" on="0"/>
        <pt x="228" y="648" on="0"/>
        <pt x="389" y="712" on="0"/>
        <pt x="491" y="712" on="1"/>
        <pt x="557" y="712" on="0"/>
        <pt x="662" y="693" on="0"/>
        <pt x="695" y="677" on="1"/>
        <pt x="692" y="661" on="0"/>
        <pt x="678" y="611" on="0"/>
        <pt x="660" y="556" on="0"/>
        <pt x="640" y="503" on="0"/>
        <pt x="631" y="485" on="1"/>
        <pt x="589" y="485" on="1"/>
        <pt x="566" y="636" on="1"/>
        <pt x="557" y="641" on="0"/>
        <pt x="515" y="647" on="0"/>
        <pt x="494" y="647" on="1"/>
        <pt x="447" y="647" on="0"/>
        <pt x="365" y="611" on="0"/>
        <pt x="299" y="542" on="0"/>
        <pt x="253" y="444" on="0"/>
        <pt x="241" y="381" on="1"/>
        <pt x="507" y="397" on="1"/>
        <pt x="511" y="374" on="0"/>
        <pt x="498" y="313" on="0"/>
        <pt x="490" y="293" on="1"/>
        <pt x="433" y="301" on="0"/>
        <pt x="294" y="311" on="0"/>
        <pt x="231" y="313" on="1"/>
        <pt x="230" y="299" on="0"/>
        <pt x="229" y="270" on="0"/>
        <pt x="229" y="255" on="1"/>
        <pt x="229" y="199" on="0"/>
        <pt x="261" y="122" on="0"/>
        <pt x="312" y="74" on="0"/>
        <pt x="373" y="53" on="0"/>
        <pt x="402" y="53" on="1"/>
        <pt x="431" y="53" on="0"/>
        <pt x="473" y="64" on="0"/>
        <pt x="483" y="70" on="1"/>
      </contour>
    </TTGlyph>
    <TTGlyph name="afii10054" xMin="15" yMin="-12" xMax="601" yMax="712">
      <component glyphName="S" x="0" y="0" flags="0x204"/>
    </TTGlyph>
    <TTGlyph name="afii10055" xMin="-14" yMin="0" xMax="446" yMax="700">
      <component glyphName="I" x="0" y="0" flags="0x204"/>
    </TTGlyph>
    <TTGlyph name="afii10055.alt" xMin="-14" yMin="0" xMax="446" yMax="885">
      <component glyphName="I" x="0" y="0" flags="0x204"/>
      <component glyphName="uniF40B" x="-75" y="0" flags="0x4"/>
    </TTGlyph>
    <TTGlyph name="afii10056" xMin="-14" yMin="0" xMax="486" yMax="857">
      <contour>
        <pt x="298" y="0" on="1"/>
        <pt x="-14" y="0" on="1"/>
        <pt x="-7" y="38" on="1"/>
        <pt x="40" y="60" on="0"/>
        <pt x="81" y="67" on="1"/>
        <pt x="201" y="633" on="1"/>
        <pt x="181" y="636" on="0"/>
        <pt x="142" y="652" on="0"/>
        <pt x="126" y="662" on="1"/>
        <pt x="134" y="700" on="1"/>
        <pt x="446" y="700" on="1"/>
        <pt x="438" y="662" on="1"/>
        <pt x="418" y="651" on="0"/>
        <pt x="371" y="636" on="0"/>
        <pt x="351" y="633" on="1"/>
        <pt x="231" y="67" on="1"/>
        <pt x="250" y="63" on="0"/>
        <pt x="290" y="49" on="0"/>
        <pt x="305" y="38" on="1"/>
      </contour>
      <contour>
        <pt x="134" y="793" on="1"/>
        <pt x="134" y="825" on="0"/>
        <pt x="173" y="857" on="0"/>
        <pt x="207" y="857" on="1"/>
        <pt x="240" y="857" on="0"/>
        <pt x="281" y="825" on="0"/>
        <pt x="281" y="793" on="1"/>
        <pt x="281" y="765" on="0"/>
        <pt x="240" y="734" on="0"/>
        <pt x="207" y="734" on="1"/>
        <pt x="173" y="734" on="0"/>
        <pt x="134" y="765" on="0"/>
      </contour>
      <contour>
        <pt x="339" y="793" on="1"/>
        <pt x="339" y="825" on="0"/>
        <pt x="380" y="857" on="0"/>
        <pt x="413" y="857" on="1"/>
        <pt x="447" y="857" on="0"/>
        <pt x="486" y="825" on="0"/>
        <pt x="486" y="793" on="1"/>
        <pt x="486" y="765" on="0"/>
        <pt x="447" y="734" on="0"/>
        <pt x="413" y="734" on="1"/>
        <pt x="380" y="734" on="0"/>
        <pt x="339" y="765" on="0"/>
      </contour>
    </TTGlyph>
    <TTGlyph name="afii10057" xMin="-43" yMin="-160" xMax="438" yMax="700">
      <component glyphName="J" x="0" y="0" flags="0x204"/>
    </TTGlyph>
    <TTGlyph name="afii10058" xMin="-28" yMin="-12" xMax="948" yMax="700">
      <contour>
        <pt x="326" y="0" on="1"/>
        <pt x="333" y="38" on="1"/>
        <pt x="353" y="48" on="0"/>
        <pt x="395" y="63" on="0"/>
        <pt x="416" y="67" on="1"/>
        <pt x="536" y="635" on="1"/>
        <pt x="373" y="635" on="1"/>
        <pt x="337" y="483" on="0"/>
        <pt x="273" y="280" on="0"/>
        <pt x="214" y="148" on="0"/>
        <pt x="158" y="71" on="0"/>
        <pt x="131" y="43" on="1"/>
        <pt x="106" y="17" on="0"/>
        <pt x="42" y="-12" on="0"/>
        <pt x="15" y="-12" on="1"/>
        <pt x="6" y="-8" on="0"/>
        <pt x="-9" y="14" on="0"/>
        <pt x="-20" y="43" on="0"/>
        <pt x="-27" y="77" on="0"/>
        <pt x="-28" y="94" on="1"/>
        <pt x="-28" y="102" on="0"/>
        <pt x="-28" y="119" on="0"/>
        <pt x="-27" y="127" on="1"/>
        <pt x="8" y="165" on="1"/>
        <pt x="122" y="136" on="1"/>
        <pt x="141" y="164" on="0"/>
        <pt x="183" y="243" on="0"/>
        <pt x="227" y="359" on="0"/>
        <pt x="272" y="517" on="0"/>
        <pt x="295" y="623" on="1"/>
        <pt x="265" y="628" on="0"/>
        <pt x="214" y="650" on="0"/>
        <pt x="197" y="662" on="1"/>
        <pt x="205" y="700" on="1"/>
        <pt x="788" y="700" on="1"/>
        <pt x="780" y="662" on="1"/>
        <pt x="759" y="652" on="0"/>
        <pt x="711" y="637" on="0"/>
        <pt x="686" y="633" on="1"/>
        <pt x="640" y="419" on="1"/>
        <pt x="659" y="422" on="0"/>
        <pt x="710" y="426" on="0"/>
        <pt x="730" y="426" on="1"/>
        <pt x="833" y="426" on="0"/>
        <pt x="948" y="341" on="0"/>
        <pt x="948" y="264" on="1"/>
        <pt x="948" y="188" on="0"/>
        <pt x="886" y="86" on="0"/>
        <pt x="789" y="24" on="0"/>
        <pt x="670" y="-3" on="0"/>
        <pt x="613" y="-3" on="1"/>
        <pt x="608" y="-3" on="0"/>
        <pt x="577" y="-2" on="0"/>
        <pt x="537" y="-1" on="0"/>
        <pt x="495" y="0" on="0"/>
        <pt x="480" y="0" on="1"/>
      </contour>
      <contour>
        <pt x="680" y="361" on="1"/>
        <pt x="648" y="361" on="0"/>
        <pt x="627" y="355" on="1"/>
        <pt x="566" y="66" on="1"/>
        <pt x="569" y="65" on="0"/>
        <pt x="583" y="63" on="0"/>
        <pt x="598" y="62" on="0"/>
        <pt x="613" y="62" on="0"/>
        <pt x="617" y="62" on="1"/>
        <pt x="651" y="62" on="0"/>
        <pt x="712" y="90" on="0"/>
        <pt x="757" y="142" on="0"/>
        <pt x="783" y="219" on="0"/>
        <pt x="783" y="267" on="1"/>
        <pt x="783" y="312" on="0"/>
        <pt x="739" y="361" on="0"/>
      </contour>
    </TTGlyph>
    <TTGlyph name="afii10059" xMin="-24" yMin="-3" xMax="1018" yMax="700">
      <contour>
        <pt x="402" y="0" on="1"/>
        <pt x="410" y="38" on="1"/>
        <pt x="430" y="49" on="0"/>
        <pt x="465" y="63" on="0"/>
        <pt x="487" y="67" on="1"/>
        <pt x="545" y="339" on="1"/>
        <pt x="280" y="339" on="1"/>
        <pt x="222" y="67" on="1"/>
        <pt x="257" y="60" on="0"/>
        <pt x="287" y="38" on="1"/>
        <pt x="279" y="0" on="1"/>
        <pt x="-24" y="0" on="1"/>
        <pt x="-16" y="38" on="1"/>
        <pt x="4" y="48" on="0"/>
        <pt x="51" y="63" on="0"/>
        <pt x="72" y="67" on="1"/>
        <pt x="192" y="633" on="1"/>
        <pt x="169" y="637" on="0"/>
        <pt x="129" y="653" on="0"/>
        <pt x="116" y="662" on="1"/>
        <pt x="124" y="700" on="1"/>
        <pt x="427" y="700" on="1"/>
        <pt x="419" y="662" on="1"/>
        <pt x="402" y="652" on="0"/>
        <pt x="362" y="636" on="0"/>
        <pt x="342" y="633" on="1"/>
        <pt x="294" y="404" on="1"/>
        <pt x="559" y="404" on="1"/>
        <pt x="607" y="633" on="1"/>
        <pt x="587" y="637" on="0"/>
        <pt x="560" y="650" on="0"/>
        <pt x="542" y="662" on="1"/>
        <pt x="550" y="700" on="1"/>
        <pt x="859" y="700" on="1"/>
        <pt x="851" y="662" on="1"/>
        <pt x="831" y="652" on="0"/>
        <pt x="783" y="637" on="0"/>
        <pt x="757" y="633" on="1"/>
        <pt x="709" y="403" on="1"/>
        <pt x="728" y="406" on="0"/>
        <pt x="778" y="410" on="0"/>
        <pt x="798" y="410" on="1"/>
        <pt x="901" y="410" on="0"/>
        <pt x="1018" y="328" on="0"/>
        <pt x="1018" y="252" on="1"/>
        <pt x="1018" y="178" on="0"/>
        <pt x="957" y="79" on="0"/>
        <pt x="860" y="21" on="0"/>
        <pt x="741" y="-3" on="0"/>
        <pt x="684" y="-3" on="1"/>
        <pt x="679" y="-3" on="0"/>
        <pt x="648" y="-2" on="0"/>
        <pt x="608" y="-1" on="0"/>
        <pt x="566" y="0" on="0"/>
        <pt x="551" y="0" on="1"/>
      </contour>
      <contour>
        <pt x="749" y="345" on="1"/>
        <pt x="716" y="345" on="0"/>
        <pt x="695" y="339" on="1"/>
        <pt x="637" y="66" on="1"/>
        <pt x="644" y="64" on="0"/>
        <pt x="680" y="62" on="0"/>
        <pt x="689" y="62" on="1"/>
        <pt x="723" y="62" on="0"/>
        <pt x="782" y="86" on="0"/>
        <pt x="827" y="134" on="0"/>
        <pt x="853" y="206" on="0"/>
        <pt x="853" y="254" on="1"/>
        <pt x="853" y="294" on="0"/>
        <pt x="808" y="345" on="0"/>
      </contour>
    </TTGlyph>
    <TTGlyph name="afii10060" xMin="86" yMin="0" xMax="801" yMax="700">
      <contour>
        <pt x="494" y="635" on="1"/>
        <pt x="441" y="385" on="1"/>
        <pt x="472" y="402" on="0"/>
        <pt x="567" y="430" on="0"/>
        <pt x="623" y="430" on="1"/>
        <pt x="655" y="430" on="0"/>
        <pt x="710" y="414" on="0"/>
        <pt x="750" y="381" on="0"/>
        <pt x="774" y="330" on="0"/>
        <pt x="775" y="294" on="1"/>
        <pt x="777" y="260" on="0"/>
        <pt x="768" y="220" on="1"/>
        <pt x="736" y="67" on="1"/>
        <pt x="753" y="64" on="0"/>
        <pt x="788" y="48" on="0"/>
        <pt x="801" y="38" on="1"/>
        <pt x="794" y="0" on="1"/>
        <pt x="572" y="0" on="1"/>
        <pt x="615" y="207" on="1"/>
        <pt x="621" y="237" on="0"/>
        <pt x="626" y="292" on="0"/>
        <pt x="614" y="334" on="0"/>
        <pt x="580" y="360" on="0"/>
        <pt x="547" y="360" on="1"/>
        <pt x="514" y="360" on="0"/>
        <pt x="456" y="341" on="0"/>
        <pt x="428" y="325" on="1"/>
        <pt x="373" y="67" on="1"/>
        <pt x="388" y="62" on="0"/>
        <pt x="418" y="46" on="0"/>
        <pt x="429" y="38" on="1"/>
        <pt x="421" y="0" on="1"/>
        <pt x="112" y="0" on="1"/>
        <pt x="120" y="38" on="1"/>
        <pt x="142" y="46" on="0"/>
        <pt x="196" y="63" on="0"/>
        <pt x="223" y="67" on="1"/>
        <pt x="343" y="635" on="1"/>
        <pt x="228" y="635" on="1"/>
        <pt x="127" y="464" on="1"/>
        <pt x="86" y="464" on="1"/>
        <pt x="86" y="484" on="0"/>
        <pt x="91" y="546" on="0"/>
        <pt x="99" y="612" on="0"/>
        <pt x="109" y="677" on="0"/>
        <pt x="114" y="700" on="1"/>
        <pt x="751" y="700" on="1"/>
        <pt x="746" y="676" on="0"/>
        <pt x="731" y="622" on="0"/>
        <pt x="713" y="568" on="0"/>
        <pt x="695" y="517" on="0"/>
        <pt x="686" y="496" on="1"/>
        <pt x="644" y="496" on="1"/>
        <pt x="610" y="635" on="1"/>
      </contour>
    </TTGlyph>
    <TTGlyph name="afii10061" xMin="-24" yMin="0" xMax="771" yMax="899">
      <component glyphName="K" x="0" y="0" flags="0x204"/>
      <component glyphName="uniF6C9" x="27" y="0" flags="0x4"/>
    </TTGlyph>
    <TTGlyph name="afii10062" xMin="95" yMin="-18" xMax="787" yMax="890">
      <component glyphName="afii10037" x="0" y="0" flags="0x204"/>
      <component glyphName="uniF6D1" x="6" y="0" flags="0x4"/>
    </TTGlyph>
    <TTGlyph name="afii10065" xMin="28" yMin="-12" xMax="543" yMax="510">
      <component glyphName="a" x="0" y="0" flags="0x204"/>
    </TTGlyph>
    <TTGlyph name="afii10066" xMin="31" yMin="-12" xMax="586" yMax="762">
      <contour>
        <pt x="31" y="211" on="1"/>
        <pt x="31" y="280" on="0"/>
        <pt x="55" y="411" on="0"/>
        <pt x="103" y="525" on="0"/>
        <pt x="173" y="617" on="0"/>
        <pt x="218" y="647" on="1"/>
        <pt x="246" y="666" on="0"/>
        <pt x="312" y="689" on="0"/>
        <pt x="383" y="702" on="0"/>
        <pt x="456" y="708" on="0"/>
        <pt x="492" y="710" on="1"/>
        <pt x="552" y="762" on="1"/>
        <pt x="586" y="762" on="1"/>
        <pt x="586" y="745" on="0"/>
        <pt x="577" y="707" on="0"/>
        <pt x="563" y="669" on="0"/>
        <pt x="544" y="633" on="0"/>
        <pt x="533" y="620" on="1"/>
        <pt x="519" y="603" on="0"/>
        <pt x="474" y="595" on="0"/>
        <pt x="441" y="593" on="1"/>
        <pt x="368" y="587" on="0"/>
        <pt x="259" y="562" on="0"/>
        <pt x="180" y="507" on="0"/>
        <pt x="129" y="411" on="0"/>
        <pt x="114" y="335" on="1"/>
        <pt x="119" y="335" on="1"/>
        <pt x="165" y="413" on="0"/>
        <pt x="299" y="502" on="0"/>
        <pt x="369" y="502" on="1"/>
        <pt x="440" y="502" on="0"/>
        <pt x="520" y="410" on="0"/>
        <pt x="520" y="329" on="1"/>
        <pt x="520" y="265" on="0"/>
        <pt x="477" y="142" on="0"/>
        <pt x="399" y="46" on="0"/>
        <pt x="291" y="-12" on="0"/>
        <pt x="225" y="-12" on="1"/>
        <pt x="183" y="-12" on="0"/>
        <pt x="112" y="14" on="0"/>
        <pt x="60" y="68" on="0"/>
        <pt x="31" y="152" on="0"/>
      </contour>
      <contour>
        <pt x="200" y="332" on="1"/>
        <pt x="188" y="307" on="0"/>
        <pt x="173" y="222" on="0"/>
        <pt x="173" y="167" on="1"/>
        <pt x="173" y="104" on="0"/>
        <pt x="209" y="45" on="0"/>
        <pt x="239" y="45" on="1"/>
        <pt x="265" y="45" on="0"/>
        <pt x="314" y="89" on="0"/>
        <pt x="352" y="164" on="0"/>
        <pt x="375" y="265" on="0"/>
        <pt x="375" y="322" on="1"/>
        <pt x="375" y="376" on="0"/>
        <pt x="343" y="422" on="0"/>
        <pt x="312" y="422" on="1"/>
        <pt x="292" y="422" on="0"/>
        <pt x="256" y="403" on="0"/>
        <pt x="227" y="376" on="0"/>
        <pt x="206" y="344" on="0"/>
      </contour>
    </TTGlyph>
    <TTGlyph name="afii10067" xMin="27" yMin="-12" xMax="492" yMax="512">
      <contour>
        <pt x="492" y="411" on="1"/>
        <pt x="492" y="367" on="0"/>
        <pt x="416" y="297" on="0"/>
        <pt x="354" y="277" on="1"/>
        <pt x="388" y="275" on="0"/>
        <pt x="433" y="256" on="0"/>
        <pt x="461" y="227" on="0"/>
        <pt x="473" y="194" on="0"/>
        <pt x="473" y="178" on="1"/>
        <pt x="473" y="145" on="0"/>
        <pt x="438" y="78" on="0"/>
        <pt x="371" y="23" on="0"/>
        <pt x="275" y="-12" on="0"/>
        <pt x="214" y="-12" on="1"/>
        <pt x="169" y="-12" on="0"/>
        <pt x="100" y="14" on="0"/>
        <pt x="52" y="61" on="0"/>
        <pt x="27" y="126" on="0"/>
        <pt x="27" y="165" on="1"/>
        <pt x="27" y="214" on="0"/>
        <pt x="47" y="301" on="0"/>
        <pt x="81" y="374" on="0"/>
        <pt x="126" y="432" on="0"/>
        <pt x="152" y="452" on="1"/>
        <pt x="189" y="482" on="0"/>
        <pt x="284" y="512" on="0"/>
        <pt x="356" y="512" on="1"/>
        <pt x="413" y="512" on="0"/>
        <pt x="492" y="462" on="0"/>
      </contour>
      <contour>
        <pt x="328" y="161" on="1"/>
        <pt x="328" y="202" on="0"/>
        <pt x="294" y="234" on="0"/>
        <pt x="258" y="241" on="1"/>
        <pt x="242" y="238" on="0"/>
        <pt x="197" y="234" on="0"/>
        <pt x="178" y="233" on="1"/>
        <pt x="176" y="222" on="0"/>
        <pt x="171" y="181" on="0"/>
        <pt x="171" y="148" on="1"/>
        <pt x="171" y="104" on="0"/>
        <pt x="205" y="45" on="0"/>
        <pt x="240" y="45" on="1"/>
        <pt x="255" y="45" on="0"/>
        <pt x="286" y="62" on="0"/>
        <pt x="311" y="93" on="0"/>
        <pt x="328" y="135" on="0"/>
      </contour>
      <contour>
        <pt x="319" y="455" on="1"/>
        <pt x="281" y="455" on="0"/>
        <pt x="209" y="375" on="0"/>
        <pt x="184" y="280" on="1"/>
        <pt x="221" y="278" on="0"/>
        <pt x="284" y="299" on="0"/>
        <pt x="328" y="335" on="0"/>
        <pt x="353" y="382" on="0"/>
        <pt x="353" y="408" on="1"/>
        <pt x="353" y="426" on="0"/>
        <pt x="338" y="455" on="0"/>
      </contour>
    </TTGlyph>
    <TTGlyph name="afii10068" xMin="17" yMin="-12" xMax="398" yMax="512">
      <contour>
        <pt x="17" y="103" on="1"/>
        <pt x="17" y="142" on="0"/>
        <pt x="52" y="200" on="0"/>
        <pt x="104" y="247" on="0"/>
        <pt x="165" y="284" on="0"/>
        <pt x="217" y="321" on="0"/>
        <pt x="252" y="360" on="0"/>
        <pt x="252" y="384" on="1"/>
        <pt x="252" y="404" on="0"/>
        <pt x="233" y="432" on="0"/>
        <pt x="209" y="432" on="1"/>
        <pt x="192" y="432" on="0"/>
        <pt x="158" y="420" on="0"/>
        <pt x="126" y="401" on="0"/>
        <pt x="99" y="379" on="0"/>
        <pt x="89" y="370" on="1"/>
        <pt x="64" y="397" on="1"/>
        <pt x="77" y="415" on="0"/>
        <pt x="119" y="455" on="0"/>
        <pt x="173" y="490" on="0"/>
        <pt x="236" y="512" on="0"/>
        <pt x="271" y="512" on="1"/>
        <pt x="335" y="512" on="0"/>
        <pt x="398" y="449" on="0"/>
        <pt x="398" y="406" on="1"/>
        <pt x="398" y="367" on="0"/>
        <pt x="363" y="307" on="0"/>
        <pt x="311" y="259" on="0"/>
        <pt x="250" y="219" on="0"/>
        <pt x="198" y="181" on="0"/>
        <pt x="163" y="141" on="0"/>
        <pt x="163" y="116" on="1"/>
        <pt x="163" y="94" on="0"/>
        <pt x="192" y="68" on="0"/>
        <pt x="221" y="68" on="1"/>
        <pt x="240" y="68" on="0"/>
        <pt x="278" y="80" on="0"/>
        <pt x="312" y="98" on="0"/>
        <pt x="342" y="120" on="0"/>
        <pt x="354" y="130" on="1"/>
        <pt x="377" y="106" on="1"/>
        <pt x="364" y="88" on="0"/>
        <pt x="320" y="46" on="0"/>
        <pt x="262" y="11" on="0"/>
        <pt x="190" y="-12" on="0"/>
        <pt x="150" y="-12" on="1"/>
        <pt x="123" y="-12" on="0"/>
        <pt x="74" y="4" on="0"/>
        <pt x="38" y="34" on="0"/>
        <pt x="17" y="77" on="0"/>
      </contour>
    </TTGlyph>
    <TTGlyph name="afii10069" xMin="21" yMin="-12" xMax="520" yMax="754">
      <contour>
        <pt x="21" y="171" on="1"/>
        <pt x="21" y="243" on="0"/>
        <pt x="68" y="366" on="0"/>
        <pt x="148" y="455" on="0"/>
        <pt x="254" y="506" on="0"/>
        <pt x="312" y="506" on="1"/>
        <pt x="332" y="506" on="0"/>
        <pt x="372" y="498" on="0"/>
        <pt x="383" y="490" on="1"/>
        <pt x="383" y="521" on="0"/>
        <pt x="372" y="590" on="0"/>
        <pt x="344" y="649" on="0"/>
        <pt x="298" y="687" on="0"/>
        <pt x="262" y="687" on="1"/>
        <pt x="227" y="687" on="0"/>
        <pt x="173" y="671" on="0"/>
        <pt x="150" y="657" on="1"/>
        <pt x="134" y="683" on="1"/>
        <pt x="163" y="713" on="0"/>
        <pt x="271" y="754" on="0"/>
        <pt x="331" y="754" on="1"/>
        <pt x="369" y="754" on="0"/>
        <pt x="438" y="722" on="0"/>
        <pt x="490" y="652" on="0"/>
        <pt x="520" y="541" on="0"/>
        <pt x="520" y="462" on="1"/>
        <pt x="520" y="362" on="0"/>
        <pt x="473" y="189" on="0"/>
        <pt x="387" y="61" on="0"/>
        <pt x="265" y="-12" on="0"/>
        <pt x="191" y="-12" on="1"/>
        <pt x="154" y="-12" on="0"/>
        <pt x="91" y="13" on="0"/>
        <pt x="46" y="59" on="0"/>
        <pt x="21" y="127" on="0"/>
      </contour>
      <contour>
        <pt x="315" y="449" on="1"/>
        <pt x="274" y="449" on="0"/>
        <pt x="216" y="393" on="0"/>
        <pt x="180" y="306" on="0"/>
        <pt x="163" y="202" on="0"/>
        <pt x="163" y="154" on="1"/>
        <pt x="163" y="132" on="0"/>
        <pt x="169" y="92" on="0"/>
        <pt x="182" y="62" on="0"/>
        <pt x="206" y="45" on="0"/>
        <pt x="224" y="45" on="1"/>
        <pt x="254" y="45" on="0"/>
        <pt x="308" y="106" on="0"/>
        <pt x="350" y="211" on="0"/>
        <pt x="376" y="351" on="0"/>
        <pt x="378" y="431" on="1"/>
        <pt x="363" y="441" on="0"/>
        <pt x="331" y="449" on="0"/>
      </contour>
    </TTGlyph>
    <TTGlyph name="afii10070" xMin="27" yMin="-12" xMax="462" yMax="512">
      <component glyphName="e" x="0" y="0" flags="0x204"/>
    </TTGlyph>
    <TTGlyph name="afii10071" xMin="27" yMin="-12" xMax="516" yMax="729">
      <component glyphName="e" x="0" y="0" flags="0x204"/>
      <component glyphName="dieresis" x="-24" y="0" flags="0x4"/>
    </TTGlyph>
    <TTGlyph name="afii10072" xMin="-19" yMin="-6" xMax="910" yMax="506">
      <contour>
        <pt x="57" y="407" on="1"/>
        <pt x="84" y="446" on="0"/>
        <pt x="170" y="506" on="0"/>
        <pt x="230" y="506" on="1"/>
        <pt x="253" y="506" on="0"/>
        <pt x="289" y="485" on="0"/>
        <pt x="313" y="449" on="0"/>
        <pt x="326" y="402" on="0"/>
        <pt x="326" y="377" on="1"/>
        <pt x="326" y="351" on="0"/>
        <pt x="322" y="302" on="0"/>
        <pt x="318" y="279" on="1"/>
        <pt x="392" y="279" on="1"/>
        <pt x="437" y="500" on="1"/>
        <pt x="564" y="500" on="1"/>
        <pt x="518" y="279" on="1"/>
        <pt x="591" y="279" on="1"/>
        <pt x="605" y="328" on="0"/>
        <pt x="650" y="412" on="0"/>
        <pt x="710" y="472" on="0"/>
        <pt x="782" y="506" on="0"/>
        <pt x="824" y="506" on="1"/>
        <pt x="855" y="506" on="0"/>
        <pt x="890" y="496" on="0"/>
        <pt x="909" y="484" on="1"/>
        <pt x="910" y="473" on="0"/>
        <pt x="905" y="444" on="0"/>
        <pt x="891" y="414" on="0"/>
        <pt x="870" y="387" on="0"/>
        <pt x="855" y="379" on="1"/>
        <pt x="801" y="442" on="1"/>
        <pt x="786" y="436" on="0"/>
        <pt x="751" y="397" on="0"/>
        <pt x="722" y="329" on="0"/>
        <pt x="702" y="230" on="0"/>
        <pt x="702" y="164" on="1"/>
        <pt x="702" y="123" on="0"/>
        <pt x="731" y="74" on="0"/>
        <pt x="762" y="74" on="1"/>
        <pt x="779" y="74" on="0"/>
        <pt x="816" y="96" on="0"/>
        <pt x="830" y="110" on="1"/>
        <pt x="847" y="87" on="1"/>
        <pt x="836" y="71" on="0"/>
        <pt x="801" y="38" on="0"/>
        <pt x="758" y="11" on="0"/>
        <pt x="709" y="-6" on="0"/>
        <pt x="685" y="-6" on="1"/>
        <pt x="654" y="-6" on="0"/>
        <pt x="611" y="15" on="0"/>
        <pt x="584" y="52" on="0"/>
        <pt x="572" y="101" on="0"/>
        <pt x="572" y="129" on="1"/>
        <pt x="572" y="155" on="0"/>
        <pt x="575" y="203" on="0"/>
        <pt x="579" y="227" on="1"/>
        <pt x="507" y="227" on="1"/>
        <pt x="461" y="0" on="1"/>
        <pt x="335" y="0" on="1"/>
        <pt x="381" y="227" on="1"/>
        <pt x="306" y="227" on="1"/>
        <pt x="292" y="176" on="0"/>
        <pt x="247" y="90" on="0"/>
        <pt x="187" y="28" on="0"/>
        <pt x="114" y="-6" on="0"/>
        <pt x="72" y="-6" on="1"/>
        <pt x="41" y="-6" on="0"/>
        <pt x="-1" y="10" on="0"/>
        <pt x="-17" y="21" on="1"/>
        <pt x="-19" y="34" on="0"/>
        <pt x="-13" y="66" on="0"/>
        <pt x="1" y="97" on="0"/>
        <pt x="23" y="123" on="0"/>
        <pt x="37" y="129" on="1"/>
        <pt x="89" y="60" on="1"/>
        <pt x="110" y="67" on="0"/>
        <pt x="149" y="113" on="0"/>
        <pt x="179" y="185" on="0"/>
        <pt x="196" y="279" on="0"/>
        <pt x="196" y="336" on="1"/>
        <pt x="196" y="385" on="0"/>
        <pt x="173" y="426" on="0"/>
        <pt x="150" y="426" on="1"/>
        <pt x="128" y="426" on="0"/>
        <pt x="90" y="401" on="0"/>
        <pt x="76" y="387" on="1"/>
      </contour>
    </TTGlyph>
    <TTGlyph name="afii10073" xMin="-15" yMin="-12" xMax="436" yMax="512">
      <contour>
        <pt x="-15" y="41" on="1"/>
        <pt x="-15" y="56" on="0"/>
        <pt x="-2" y="90" on="0"/>
        <pt x="18" y="121" on="0"/>
        <pt x="43" y="145" on="0"/>
        <pt x="56" y="150" on="1"/>
        <pt x="119" y="50" on="1"/>
        <pt x="127" y="48" on="0"/>
        <pt x="149" y="45" on="0"/>
        <pt x="157" y="45" on="1"/>
        <pt x="179" y="45" on="0"/>
        <pt x="221" y="60" on="0"/>
        <pt x="255" y="90" on="0"/>
        <pt x="276" y="133" on="0"/>
        <pt x="276" y="161" on="1"/>
        <pt x="276" y="194" on="0"/>
        <pt x="240" y="232" on="0"/>
        <pt x="197" y="237" on="1"/>
        <pt x="132" y="219" on="1"/>
        <pt x="124" y="232" on="0"/>
        <pt x="124" y="273" on="0"/>
        <pt x="132" y="286" on="1"/>
        <pt x="198" y="286" on="1"/>
        <pt x="252" y="303" on="0"/>
        <pt x="293" y="366" on="0"/>
        <pt x="293" y="395" on="1"/>
        <pt x="293" y="455" on="0"/>
        <pt x="225" y="455" on="1"/>
        <pt x="217" y="455" on="0"/>
        <pt x="194" y="452" on="0"/>
        <pt x="184" y="450" on="1"/>
        <pt x="169" y="434" on="0"/>
        <pt x="132" y="379" on="0"/>
        <pt x="117" y="359" on="1"/>
        <pt x="107" y="363" on="0"/>
        <pt x="88" y="386" on="0"/>
        <pt x="75" y="418" on="0"/>
        <pt x="71" y="452" on="0"/>
        <pt x="77" y="467" on="1"/>
        <pt x="96" y="481" on="0"/>
        <pt x="195" y="512" on="0"/>
        <pt x="267" y="512" on="1"/>
        <pt x="342" y="512" on="0"/>
        <pt x="436" y="463" on="0"/>
        <pt x="436" y="412" on="1"/>
        <pt x="436" y="367" on="0"/>
        <pt x="373" y="295" on="0"/>
        <pt x="302" y="270" on="1"/>
        <pt x="333" y="270" on="0"/>
        <pt x="378" y="253" on="0"/>
        <pt x="407" y="225" on="0"/>
        <pt x="421" y="189" on="0"/>
        <pt x="421" y="171" on="1"/>
        <pt x="421" y="133" on="0"/>
        <pt x="385" y="66" on="0"/>
        <pt x="319" y="17" on="0"/>
        <pt x="224" y="-12" on="0"/>
        <pt x="165" y="-12" on="1"/>
        <pt x="137" y="-12" on="0"/>
        <pt x="83" y="-4" on="0"/>
        <pt x="35" y="10" on="0"/>
        <pt x="-3" y="29" on="0"/>
      </contour>
    </TTGlyph>
    <TTGlyph name="afii10074" xMin="42" yMin="-12" xMax="555" yMax="512">
      <component glyphName="u" x="0" y="0" flags="0x204"/>
    </TTGlyph>
    <TTGlyph name="afii10075" xMin="42" yMin="-12" xMax="555" yMax="720">
      <component glyphName="u" x="0" y="0" flags="0x204"/>
      <component glyphName="uniF6D4" x="5" y="0" flags="0x4"/>
    </TTGlyph>
    <TTGlyph name="afii10076" xMin="28" yMin="-9" xMax="557" yMax="513">
      <contour>
        <pt x="324" y="46" on="1"/>
        <pt x="296" y="94" on="0"/>
        <pt x="261" y="187" on="0"/>
        <pt x="246" y="229" on="1"/>
        <pt x="214" y="239" on="1"/>
        <pt x="168" y="0" on="1"/>
        <pt x="28" y="0" on="1"/>
        <pt x="112" y="429" on="1"/>
        <pt x="45" y="442" on="1"/>
        <pt x="45" y="476" on="1"/>
        <pt x="59" y="482" on="0"/>
        <pt x="105" y="495" on="0"/>
        <pt x="159" y="505" on="0"/>
        <pt x="218" y="512" on="0"/>
        <pt x="246" y="512" on="1"/>
        <pt x="267" y="501" on="1"/>
        <pt x="223" y="283" on="1"/>
        <pt x="255" y="283" on="1"/>
        <pt x="273" y="296" on="0"/>
        <pt x="310" y="332" on="0"/>
        <pt x="344" y="368" on="0"/>
        <pt x="371" y="403" on="0"/>
        <pt x="377" y="415" on="1"/>
        <pt x="378" y="422" on="0"/>
        <pt x="379" y="446" on="0"/>
        <pt x="378" y="471" on="0"/>
        <pt x="377" y="494" on="0"/>
        <pt x="376" y="500" on="1"/>
        <pt x="393" y="506" on="0"/>
        <pt x="446" y="513" on="0"/>
        <pt x="473" y="513" on="1"/>
        <pt x="499" y="513" on="0"/>
        <pt x="546" y="506" on="0"/>
        <pt x="557" y="500" on="1"/>
        <pt x="544" y="468" on="0"/>
        <pt x="491" y="404" on="0"/>
        <pt x="430" y="348" on="0"/>
        <pt x="372" y="302" on="0"/>
        <pt x="354" y="289" on="1"/>
        <pt x="361" y="270" on="0"/>
        <pt x="391" y="212" on="0"/>
        <pt x="428" y="149" on="0"/>
        <pt x="467" y="89" on="0"/>
        <pt x="483" y="69" on="1"/>
        <pt x="537" y="69" on="1"/>
        <pt x="537" y="35" on="1"/>
        <pt x="527" y="27" on="0"/>
        <pt x="496" y="11" on="0"/>
        <pt x="460" y="-1" on="0"/>
        <pt x="422" y="-9" on="0"/>
        <pt x="404" y="-9" on="1"/>
        <pt x="380" y="-9" on="0"/>
        <pt x="341" y="14" on="0"/>
      </contour>
    </TTGlyph>
    <TTGlyph name="afii10077" xMin="-25" yMin="-17" xMax="534" yMax="500">
      <contour>
        <pt x="386" y="443" on="1"/>
        <pt x="287" y="443" on="1"/>
        <pt x="274" y="386" on="0"/>
        <pt x="244" y="270" on="0"/>
        <pt x="207" y="165" on="0"/>
        <pt x="162" y="75" on="0"/>
        <pt x="135" y="43" on="1"/>
        <pt x="107" y="10" on="0"/>
        <pt x="40" y="-17" on="0"/>
        <pt x="-7" y="-12" on="1"/>
        <pt x="-17" y="-2" on="0"/>
        <pt x="-25" y="38" on="0"/>
        <pt x="-22" y="61" on="1"/>
        <pt x="-20" y="79" on="0"/>
        <pt x="-7" y="114" on="0"/>
        <pt x="4" y="126" on="1"/>
        <pt x="92" y="98" on="1"/>
        <pt x="111" y="122" on="0"/>
        <pt x="148" y="201" on="0"/>
        <pt x="181" y="293" on="0"/>
        <pt x="206" y="388" on="0"/>
        <pt x="213" y="427" on="1"/>
        <pt x="193" y="432" on="0"/>
        <pt x="150" y="451" on="0"/>
        <pt x="139" y="461" on="1"/>
        <pt x="139" y="500" on="1"/>
        <pt x="534" y="500" on="1"/>
        <pt x="452" y="69" on="1"/>
        <pt x="525" y="69" on="1"/>
        <pt x="525" y="35" on="1"/>
        <pt x="505" y="19" on="0"/>
        <pt x="419" y="-9" on="0"/>
        <pt x="367" y="-9" on="1"/>
        <pt x="338" y="-9" on="0"/>
        <pt x="310" y="19" on="0"/>
        <pt x="310" y="36" on="1"/>
        <pt x="310" y="58" on="0"/>
        <pt x="319" y="108" on="0"/>
        <pt x="324" y="131" on="1"/>
      </contour>
    </TTGlyph>
    <TTGlyph name="afii10078" xMin="-25" yMin="-16" xMax="750" yMax="500">
      <contour>
        <pt x="255" y="402" on="1"/>
        <pt x="244" y="357" on="0"/>
        <pt x="220" y="256" on="0"/>
        <pt x="188" y="157" on="0"/>
        <pt x="147" y="68" on="0"/>
        <pt x="120" y="36" on="1"/>
        <pt x="96" y="7" on="0"/>
        <pt x="23" y="-16" on="0"/>
        <pt x="-9" y="-12" on="1"/>
        <pt x="-18" y="-1" on="0"/>
        <pt x="-25" y="43" on="0"/>
        <pt x="-22" y="66" on="1"/>
        <pt x="-20" y="82" on="0"/>
        <pt x="-9" y="111" on="0"/>
        <pt x="1" y="122" on="1"/>
        <pt x="82" y="98" on="1"/>
        <pt x="100" y="121" on="0"/>
        <pt x="133" y="195" on="0"/>
        <pt x="162" y="285" on="0"/>
        <pt x="187" y="384" on="0"/>
        <pt x="197" y="432" on="1"/>
        <pt x="180" y="438" on="0"/>
        <pt x="143" y="456" on="0"/>
        <pt x="135" y="466" on="1"/>
        <pt x="135" y="500" on="1"/>
        <pt x="360" y="500" on="1"/>
        <pt x="396" y="239" on="1"/>
        <pt x="400" y="168" on="1"/>
        <pt x="403" y="168" on="1"/>
        <pt x="443" y="242" on="1"/>
        <pt x="605" y="500" on="1"/>
        <pt x="750" y="500" on="1"/>
        <pt x="665" y="69" on="1"/>
        <pt x="739" y="69" on="1"/>
        <pt x="739" y="35" on="1"/>
        <pt x="729" y="27" on="0"/>
        <pt x="695" y="11" on="0"/>
        <pt x="655" y="-1" on="0"/>
        <pt x="609" y="-9" on="0"/>
        <pt x="587" y="-9" on="1"/>
        <pt x="556" y="-9" on="0"/>
        <pt x="526" y="16" on="0"/>
        <pt x="526" y="32" on="1"/>
        <pt x="526" y="56" on="0"/>
        <pt x="539" y="117" on="0"/>
        <pt x="544" y="140" on="1"/>
        <pt x="584" y="311" on="1"/>
        <pt x="586" y="320" on="0"/>
        <pt x="592" y="343" on="0"/>
        <pt x="600" y="368" on="0"/>
        <pt x="607" y="392" on="0"/>
        <pt x="610" y="400" on="1"/>
        <pt x="607" y="400" on="1"/>
        <pt x="361" y="0" on="1"/>
        <pt x="298" y="0" on="1"/>
        <pt x="264" y="330" on="1"/>
        <pt x="259" y="402" on="1"/>
      </contour>
    </TTGlyph>
    <TTGlyph name="afii10079" xMin="28" yMin="-9" xMax="562" yMax="512">
      <contour>
        <pt x="562" y="500" on="1"/>
        <pt x="476" y="69" on="1"/>
        <pt x="547" y="69" on="1"/>
        <pt x="547" y="35" on="1"/>
        <pt x="537" y="27" on="0"/>
        <pt x="502" y="11" on="0"/>
        <pt x="460" y="-1" on="0"/>
        <pt x="415" y="-9" on="0"/>
        <pt x="394" y="-9" on="1"/>
        <pt x="361" y="-9" on="0"/>
        <pt x="334" y="19" on="0"/>
        <pt x="334" y="34" on="1"/>
        <pt x="334" y="53" on="0"/>
        <pt x="347" y="106" on="0"/>
        <pt x="352" y="129" on="1"/>
        <pt x="371" y="224" on="1"/>
        <pt x="213" y="224" on="1"/>
        <pt x="166" y="0" on="1"/>
        <pt x="28" y="0" on="1"/>
        <pt x="113" y="429" on="1"/>
        <pt x="55" y="442" on="1"/>
        <pt x="55" y="476" on="1"/>
        <pt x="69" y="483" on="0"/>
        <pt x="117" y="496" on="0"/>
        <pt x="173" y="506" on="0"/>
        <pt x="228" y="512" on="0"/>
        <pt x="249" y="512" on="1"/>
        <pt x="269" y="500" on="1"/>
        <pt x="224" y="281" on="1"/>
        <pt x="382" y="281" on="1"/>
        <pt x="424" y="500" on="1"/>
      </contour>
    </TTGlyph>
    <TTGlyph name="afii10080" xMin="29" yMin="-12" xMax="520" yMax="512">
      <component glyphName="o" x="0" y="0" flags="0x204"/>
    </TTGlyph>
    <TTGlyph name="afii10081" xMin="28" yMin="-9" xMax="542" yMax="512">
      <component glyphName="n" x="0" y="0" flags="0x204"/>
    </TTGlyph>
    <TTGlyph name="afii10082" xMin="-17" yMin="-200" xMax="548" yMax="512">
      <component glyphName="p" x="0" y="0" flags="0x204"/>
    </TTGlyph>
    <TTGlyph name="afii10083" xMin="27" yMin="-12" xMax="451" yMax="512">
      <component glyphName="c" x="0" y="0" flags="0x204"/>
    </TTGlyph>
    <TTGlyph name="afii10084" xMin="28" yMin="-9" xMax="803" yMax="512">
      <component glyphName="m" x="0" y="0" flags="0x204"/>
    </TTGlyph>
    <TTGlyph name="afii10085" xMin="-16" yMin="-209" xMax="508" yMax="512">
      <component glyphName="y" x="0" y="0" flags="0x204"/>
    </TTGlyph>
    <TTGlyph name="afii10086" xMin="27" yMin="-200" xMax="729" yMax="752">
      <contour>
        <pt x="365" y="-132" on="1"/>
        <pt x="382" y="-135" on="0"/>
        <pt x="418" y="-153" on="0"/>
        <pt x="432" y="-162" on="1"/>
        <pt x="432" y="-200" on="1"/>
        <pt x="236" y="-200" on="1"/>
        <pt x="228" y="-190" on="1"/>
        <pt x="280" y="54" on="1"/>
        <pt x="257" y="25" on="0"/>
        <pt x="197" y="-14" on="0"/>
        <pt x="150" y="-14" on="1"/>
        <pt x="128" y="-14" on="0"/>
        <pt x="84" y="1" on="0"/>
        <pt x="49" y="37" on="0"/>
        <pt x="27" y="95" on="0"/>
        <pt x="27" y="139" on="1"/>
        <pt x="27" y="221" on="0"/>
        <pt x="66" y="358" on="0"/>
        <pt x="135" y="456" on="0"/>
        <pt x="228" y="510" on="0"/>
        <pt x="283" y="510" on="1"/>
        <pt x="307" y="510" on="0"/>
        <pt x="348" y="498" on="0"/>
        <pt x="361" y="487" on="1"/>
        <pt x="392" y="668" on="1"/>
        <pt x="325" y="682" on="1"/>
        <pt x="325" y="716" on="1"/>
        <pt x="340" y="722" on="0"/>
        <pt x="384" y="734" on="0"/>
        <pt x="435" y="744" on="0"/>
        <pt x="488" y="750" on="0"/>
        <pt x="512" y="752" on="1"/>
        <pt x="532" y="741" on="1"/>
        <pt x="476" y="450" on="1"/>
        <pt x="494" y="472" on="0"/>
        <pt x="567" y="512" on="0"/>
        <pt x="615" y="512" on="1"/>
        <pt x="638" y="512" on="0"/>
        <pt x="680" y="497" on="0"/>
        <pt x="711" y="461" on="0"/>
        <pt x="729" y="404" on="0"/>
        <pt x="729" y="362" on="1"/>
        <pt x="729" y="278" on="0"/>
        <pt x="690" y="141" on="0"/>
        <pt x="620" y="42" on="0"/>
        <pt x="523" y="-12" on="0"/>
        <pt x="466" y="-12" on="1"/>
        <pt x="443" y="-12" on="0"/>
        <pt x="405" y="5" on="0"/>
        <pt x="395" y="17" on="1"/>
      </contour>
      <contour>
        <pt x="545" y="444" on="1"/>
        <pt x="519" y="444" on="0"/>
        <pt x="482" y="420" on="0"/>
        <pt x="466" y="403" on="1"/>
        <pt x="405" y="60" on="1"/>
        <pt x="421" y="45" on="0"/>
        <pt x="456" y="45" on="1"/>
        <pt x="483" y="45" on="0"/>
        <pt x="532" y="98" on="0"/>
        <pt x="568" y="188" on="0"/>
        <pt x="589" y="307" on="0"/>
        <pt x="589" y="373" on="1"/>
        <pt x="589" y="408" on="0"/>
        <pt x="565" y="444" on="0"/>
      </contour>
      <contour>
        <pt x="210" y="54" on="1"/>
        <pt x="229" y="54" on="0"/>
        <pt x="272" y="83" on="0"/>
        <pt x="288" y="104" on="1"/>
        <pt x="350" y="437" on="1"/>
        <pt x="331" y="453" on="0"/>
        <pt x="298" y="453" on="1"/>
        <pt x="271" y="453" on="0"/>
        <pt x="223" y="403" on="0"/>
        <pt x="188" y="316" on="0"/>
        <pt x="167" y="200" on="0"/>
        <pt x="167" y="133" on="1"/>
        <pt x="167" y="54" on="0"/>
      </contour>
    </TTGlyph>
    <TTGlyph name="afii10087" xMin="-27" yMin="-9" xMax="527" yMax="509">
      <component glyphName="x" x="0" y="0" flags="0x204"/>
    </TTGlyph>
    <TTGlyph name="afii10088" xMin="42" yMin="-205" xMax="555" yMax="512">
      <contour>
        <pt x="395" y="-9" on="1"/>
        <pt x="363" y="-9" on="0"/>
        <pt x="337" y="20" on="0"/>
        <pt x="337" y="36" on="1"/>
        <pt x="337" y="54" on="0"/>
        <pt x="345" y="118" on="0"/>
        <pt x="357" y="160" on="1"/>
        <pt x="353" y="160" on="1"/>
        <pt x="340" y="136" on="0"/>
        <pt x="300" y="76" on="0"/>
        <pt x="246" y="23" on="0"/>
        <pt x="176" y="-12" on="0"/>
        <pt x="134" y="-12" on="1"/>
        <pt x="93" y="-12" on="0"/>
        <pt x="42" y="37" on="0"/>
        <pt x="42" y="82" on="1"/>
        <pt x="42" y="104" on="0"/>
        <pt x="55" y="186" on="0"/>
        <pt x="74" y="283" on="0"/>
        <pt x="97" y="386" on="0"/>
        <pt x="106" y="429" on="1"/>
        <pt x="47" y="442" on="1"/>
        <pt x="47" y="476" on="1"/>
        <pt x="63" y="482" on="0"/>
        <pt x="111" y="494" on="0"/>
        <pt x="163" y="504" on="0"/>
        <pt x="217" y="511" on="0"/>
        <pt x="239" y="512" on="1"/>
        <pt x="261" y="500" on="1"/>
        <pt x="245" y="425" on="0"/>
        <pt x="212" y="290" on="0"/>
        <pt x="198" y="215" on="1"/>
        <pt x="193" y="191" on="0"/>
        <pt x="182" y="133" on="0"/>
        <pt x="182" y="104" on="1"/>
        <pt x="182" y="86" on="0"/>
        <pt x="201" y="68" on="0"/>
        <pt x="215" y="68" on="1"/>
        <pt x="240" y="68" on="0"/>
        <pt x="289" y="107" on="0"/>
        <pt x="330" y="162" on="0"/>
        <pt x="361" y="220" on="0"/>
        <pt x="368" y="239" on="1"/>
        <pt x="420" y="500" on="1"/>
        <pt x="555" y="500" on="1"/>
        <pt x="476" y="69" on="1"/>
        <pt x="553" y="69" on="1"/>
        <pt x="553" y="29" on="1"/>
        <pt x="540" y="16" on="0"/>
        <pt x="531" y="-14" on="0"/>
        <pt x="530" y="-47" on="0"/>
        <pt x="533" y="-83" on="0"/>
        <pt x="532" y="-101" on="1"/>
        <pt x="532" y="-128" on="0"/>
        <pt x="505" y="-165" on="0"/>
        <pt x="463" y="-190" on="0"/>
        <pt x="410" y="-203" on="0"/>
        <pt x="383" y="-205" on="1"/>
        <pt x="377" y="-176" on="1"/>
        <pt x="406" y="-168" on="0"/>
        <pt x="423" y="-126" on="0"/>
        <pt x="422" y="-100" on="1"/>
        <pt x="422" y="-80" on="0"/>
        <pt x="431" y="-50" on="0"/>
        <pt x="449" y="-23" on="0"/>
        <pt x="476" y="4" on="0"/>
        <pt x="494" y="19" on="1"/>
        <pt x="491" y="23" on="1"/>
        <pt x="476" y="13" on="0"/>
        <pt x="421" y="-9" on="0"/>
      </contour>
    </TTGlyph>
    <TTGlyph name="afii10089" xMin="24" yMin="-9" xMax="514" yMax="512">
      <contour>
        <pt x="493" y="69" on="1"/>
        <pt x="493" y="35" on="1"/>
        <pt x="483" y="27" on="0"/>
        <pt x="450" y="11" on="0"/>
        <pt x="411" y="-1" on="0"/>
        <pt x="368" y="-9" on="0"/>
        <pt x="347" y="-9" on="1"/>
        <pt x="311" y="-9" on="0"/>
        <pt x="284" y="21" on="0"/>
        <pt x="284" y="38" on="1"/>
        <pt x="284" y="58" on="0"/>
        <pt x="290" y="87" on="1"/>
        <pt x="329" y="242" on="1"/>
        <pt x="325" y="242" on="1"/>
        <pt x="295" y="202" on="0"/>
        <pt x="198" y="145" on="0"/>
        <pt x="142" y="145" on="1"/>
        <pt x="100" y="145" on="0"/>
        <pt x="48" y="190" on="0"/>
        <pt x="48" y="234" on="1"/>
        <pt x="48" y="254" on="0"/>
        <pt x="53" y="293" on="0"/>
        <pt x="62" y="338" on="0"/>
        <pt x="75" y="393" on="0"/>
        <pt x="83" y="429" on="1"/>
        <pt x="24" y="442" on="1"/>
        <pt x="24" y="476" on="1"/>
        <pt x="40" y="482" on="0"/>
        <pt x="88" y="494" on="0"/>
        <pt x="140" y="504" on="0"/>
        <pt x="194" y="511" on="0"/>
        <pt x="216" y="512" on="1"/>
        <pt x="238" y="500" on="1"/>
        <pt x="218" y="419" on="0"/>
        <pt x="188" y="300" on="0"/>
        <pt x="188" y="267" on="1"/>
        <pt x="188" y="225" on="0"/>
        <pt x="229" y="225" on="1"/>
        <pt x="257" y="225" on="0"/>
        <pt x="317" y="262" on="0"/>
        <pt x="334" y="287" on="1"/>
        <pt x="378" y="500" on="1"/>
        <pt x="514" y="500" on="1"/>
        <pt x="423" y="69" on="1"/>
      </contour>
    </TTGlyph>
</ttFont>
